<svg xmlns="http://www.w3.org/2000/svg" width="403.384" height="194.365" viewBox="0 0 403.384 194.365"><g transform="translate(2268.384 132.615)"><rect width="403" height="194" rx="15" transform="translate(-2268 -132.25)" fill="#fff"/><rect width="169.474" height="194.115" rx="5.335" transform="translate(-2268.384 -132.615)" fill="#f5d027"/><circle cx="21.152" cy="21.152" r="21.152" transform="translate(-2213.528 -128.131)" fill="#3c354c"/><circle cx="21.152" cy="21.152" r="21.152" transform="translate(-2214.938 -108.388)" fill="#3c354c"/><path d="M327.846,392.794s-.94,13.162-5.171,15.042,13.162,30.554,13.162,30.554l7.051-8.931-5.641-15.982s4.23-13.161,6.111-14.1S327.846,392.794,327.846,392.794Z" transform="translate(-2530.798 -494.836)" fill="#ffc1c7"/><path d="M327.846,392.794s-.94,13.162-5.171,15.042,13.162,30.554,13.162,30.554l7.051-8.931-5.641-15.982s4.23-13.161,6.111-14.1S327.846,392.794,327.846,392.794Z" transform="translate(-2530.798 -494.836)" opacity="0.1"/><path d="M444.865,526.457s20.682,10.811,16.452,23.033-13.161-13.632-13.161-13.632l-7.051-5.171Z" transform="translate(-2590 -561.282)" fill="#ffc1c7"/><path d="M443.006,590.017s7.991,17.392,1.41,18.332-7.051-15.512-7.051-15.512Z" transform="translate(-2588.141 -592.878)" fill="#ffc1c7"/><path d="M368.732,490.938a44.37,44.37,0,0,1,4.23,1.41s14.1,25.853,19.742,31.024,13.632,17.862,12.222,18.8-11.751,7.521-12.691,5.641-4.7-8.931-7.051-10.341-14.1-16.922-17.392-18.332-10.811-23.973-10.811-23.973Z" transform="translate(-2548.181 -543.625)" fill="#6c63ff"/><path d="M368.732,490.938a44.37,44.37,0,0,1,4.23,1.41s14.1,25.853,19.742,31.024,13.632,17.862,12.222,18.8-11.751,7.521-12.691,5.641-4.7-8.931-7.051-10.341-14.1-16.922-17.392-18.332-10.811-23.973-10.811-23.973Z" transform="translate(-2548.181 -543.625)" opacity="0.1"/><circle cx="13.867" cy="13.867" r="13.867" transform="translate(-2207.888 -116.85)" fill="#ffc1c7"/><path d="M325.532,454.247s-7.521,8.931-8.461,9.4c-.353.179-2.7,1.217-5.495,2.449-4.63,2.04-10.487,4.6-10.487,4.6s-3.76,2.35-5.641,2.35-12.221,5.171-12.221,5.171-7.521,5.641-12.222,5.641-.47,2.82-6.581,2.35-.94-17.862,1.88-20.212,3.29-11.751,2.82-14.572,2.35-13.162,6.111-26.323,11.751-7.991,11.751-7.991a51.275,51.275,0,0,1,5.171-2.82c.47,0,5.171,7.991,6.111,12.691.583,2.914,4.419,8.9,7.248,13.025,1.735,2.534,3.093,4.367,3.093,4.367s0-.879-.024-2.092a41.932,41.932,0,0,0-.447-6.369c-.47-1.88-.94-11.751-.94-11.751s0-.47,1.41-.47S321.3,441.085,321.3,441.085l.94,9.4,1.608,1.838Z" transform="translate(-2500.75 -505.523)" fill="#6c63ff"/><path d="M344.059,469.029s-7.521,8.931-8.461,9.4c-.353.179-2.7,1.217-5.495,2.449-13.547-3.436-29.054-11.145-29.054-11.145s-4.466-15.747-.705-22.8,14.572.94,14.572.94,4.118,3.182,9.128,6.914c1,.743,2.026,1.509,3.069,2.275,5.453,4.01,11.173,8.047,13.514,9.143.428.2,1.02.5,1.749.9Z" transform="translate(-2519.277 -520.306)" opacity="0.1"/><path d="M295.271,466.706s34.784,10.811,43.715,11.751,24.913,18.8,26.323,18.332,11.281-12.221,8.931-14.1-30.366-18.8-35.4-21.152S313.133,443.2,313.133,443.2s-10.811-7.991-14.572-.94S295.271,466.706,295.271,466.706Z" transform="translate(-2517.495 -517.983)" fill="#6c63ff"/><path d="M313.585,595.043s-5.641-4.23-9.4-3.29-8.461,3.76-7.991,9.871a100.612,100.612,0,0,0,1.41,10.811h.47l1.41-8.461s4.23,1.88,5.171,5.171,12.691,9.871,15.512,7.521-2.82-5.171-2.82-5.171Z" transform="translate(-2517.946 -593.673)" fill="#f2f2f2"/><path d="M313.585,595.043s-5.641-4.23-9.4-3.29-8.461,3.76-7.991,9.871a100.612,100.612,0,0,0,1.41,10.811h.47l1.41-8.461s4.23,1.88,5.171,5.171,12.691,9.871,15.512,7.521-2.82-5.171-2.82-5.171Z" transform="translate(-2517.946 -593.673)" opacity="0.1"/><path d="M335.222,578.028s40.425-4.7,38.544-12.221-15.982-15.982-15.982-15.982l-23.5,4.7-15.4,16.663,6,3.079Z" transform="translate(-2529.243 -572.898)" fill="#3c354c"/><path d="M335.222,578.028s40.425-4.7,38.544-12.221-15.982-15.982-15.982-15.982l-23.5,4.7-15.4,16.663,6,3.079Z" transform="translate(-2529.243 -572.898)" opacity="0.1"/><path d="M301.357,618.993s-7.991,13.632-10.341,14.1-5.171,3.29-1.88,9.4a33.382,33.382,0,0,1,3.76,11.751h.94l-.47-8.461s6.111,9.871,6.581,13.632,17.862,7.521,20.682,2.35-3.76-8.931-3.76-8.931-9.871-10.811-8.461-18.332,2.82-9.4,2.82-9.4Z" transform="translate(-2513.71 -607.283)" fill="#f2f2f2"/><path d="M262.989,533.536s-4.23,26.793,11.281,25.853,47.946-20.212,47.946-20.212l9.871-10.811s7.051-9.871-4.7-12.692-31.024,7.051-31.024,7.051l-29.143,12.691Z" transform="translate(-2501.195 -555.67)" fill="#3c354c"/><path d="M355.354,536.739l1.88,2.35s-28.673,46.535-31.494,47.005-12.691-6.581-12.691-7.991,3.76-9.4,4.7-10.341,10.341-22.563,12.221-23.973S355.354,536.739,355.354,536.739Z" transform="translate(-2526.342 -566.393)" fill="#3c354c"/><ellipse cx="15.512" cy="10.576" rx="15.512" ry="10.576" transform="translate(-2208.828 -124.37)" fill="#3c354c"/><rect width="113.436" height="11.064" rx="5" transform="translate(-2037.809 -101.713)" fill="#272c3a" opacity="0.2"/><rect width="179.817" height="7.543" rx="3.772" transform="translate(-2071 -61.136)" fill="#272c3a" opacity="0.2"/><rect width="179.817" height="7.543" rx="3.772" transform="translate(-2071 -38.485)" fill="#272c3a" opacity="0.2"/><rect width="179.817" height="7.543" rx="3.772" transform="translate(-2071 -15.835)" fill="#272c3a" opacity="0.2"/><rect width="179.817" height="7.543" rx="3.772" transform="translate(-2071 6.816)" fill="#272c3a" opacity="0.2"/><rect width="70.254" height="13.075" rx="6.538" transform="translate(-1958.461 35.614)" fill="#272c3a"/></g></svg>