<?xml version="1.0" encoding="UTF-8"?><svg id="a" xmlns="http://www.w3.org/2000/svg" viewBox="0 0 1427.78 295.11"><defs><style>.b{fill:#f5d027;}.c{fill:#fefefe;}</style></defs><g><path class="c" d="M181.58,87.05c-16.79-14.62-40.83-21.91-72.02-21.91H0V235.35H99.37c17.2,0,31.28-1.04,42.33-3.17,11-2.08,20.14-5.43,27.57-10.05,11.95-7.29,21.14-17.29,27.71-30.01,6.52-12.72,9.82-27.07,9.82-42.92,0-26.85-8.38-47.58-25.22-62.16Zm-32.78,103.53c-11.36,8.47-30.69,12.72-57.95,12.72H39.66V95.56H109.87c18.47,0,32.41,4.48,41.87,13.45,9.42,8.96,14.12,22.14,14.12,39.52,0,19.56-5.66,33.55-17.07,42.06Z"/><polygon class="c" points="323.04 65.14 226.79 235.35 266.22 235.35 340.78 98.14 414.39 235.35 458.85 235.35 361.24 65.14 323.04 65.14"/><path class="c" d="M663.45,154.5c0,2.17,.09,5.21,.32,9.19,.23,3.98,.63,10.73,1.27,20.28-2.54-3.12-5.39-6.16-8.51-9.1-3.12-2.94-6.75-6.11-10.77-9.42l-119.83-100.32h-27.07V235.35h35.63v-91.99c0-3.44-.18-7.47-.45-12.13-.23-4.66-.63-9.64-1.18-14.89,1.95,2.26,4.03,4.44,6.29,6.61,2.26,2.13,4.89,4.57,7.88,7.24l124.99,105.16h27.03V65.14h-35.58v89.36Z"/><polygon class="c" points="1117.34 161.11 1195.92 161.11 1195.92 132.14 1117.34 132.14 1117.34 94.11 1252.01 94.11 1252.01 65.14 1077.77 65.14 1077.77 235.35 1253.6 235.35 1253.6 203.3 1117.34 203.3 1117.34 161.11"/><polygon class="c" points="1333.25 203.3 1333.25 65.14 1293.6 65.14 1293.6 235.35 1427.78 235.35 1427.78 203.3 1333.25 203.3"/></g><g><g><polygon class="c" points="833.2 118.79 833.2 134.05 833.2 161.18 833.2 237.93 874.41 237.93 874.41 161.18 874.41 136.98 867.77 134.05 833.2 118.79"/><polygon class="b" points="833.2 98.41 874.41 116.6 874.41 62.97 833.2 62.97 833.2 98.41"/><polygon class="b" points="902.39 128.93 913.98 134.05 943.61 147.13 943.61 134.05 943.61 62.97 902.39 62.97 902.39 128.93"/><polygon class="c" points="902.39 149.31 902.39 161.18 902.39 237.93 943.61 237.93 943.61 167.51 929.29 161.18 902.39 149.31"/></g><path class="c" d="M1037.77,295.11h-204.26c-52.09,0-94.48-41.87-94.48-93.32V0h204.27c52.09,0,94.47,41.87,94.47,93.32v201.79ZM772.01,32.57V201.79c0,33.5,27.59,60.75,61.5,60.75h171.29V93.32c0-33.5-27.58-60.75-61.49-60.75h-171.29Z"/></g></svg>