<svg fill="#d1d5db" cache-id="360ffb0e6011435dba6ea3b2b083dfef" id="elmBs1GyA0b1" xmlns="http://www.w3.org/2000/svg" xmlns:xlink="http://www.w3.org/1999/xlink" viewBox="0 0 512 512" shape-rendering="geometricPrecision" text-rendering="geometricPrecision">
<style><![CDATA[
#elmBs1GyA0b400_ts {animation: elmBs1GyA0b400_ts__ts 1000ms linear infinite normal forwards}@keyframes elmBs1GyA0b400_ts__ts { 0% {transform: translate(158.298004px,261.14299px) scale(1,1)} 100% {transform: translate(158.298004px,261.14299px) scale(3,3)}} #elmBs1GyA0b400 {animation: elmBs1GyA0b400_c_o 1000ms linear infinite normal forwards}@keyframes elmBs1GyA0b400_c_o { 0% {opacity: 0.6} 100% {opacity: 0}}
]]></style>
<g><g><path d="M480.605,374.273c0,1.926-1.563,3.488-3.489,3.488-1.928,0-3.489-1.563-3.489-3.488c0-1.93,1.562-3.492,3.489-3.492s3.489,1.563,3.489,3.492Z"/></g><g><path d="M480.605,384.555c0,1.93-1.563,3.484-3.489,3.484-1.928,0-3.489-1.555-3.489-3.484c0-1.926,1.562-3.488,3.489-3.488c1.927-.001,3.489,1.562,3.489,3.488Z"/></g><g><path d="M470.32,363.988c0,1.926-1.562,3.488-3.489,3.488s-3.489-1.563-3.489-3.488c0-1.93,1.563-3.492,3.489-3.492c1.928,0,3.489,1.563,3.489,3.492Z"/></g><g><path d="M470.32,374.273c0,1.926-1.562,3.488-3.489,3.488s-3.489-1.563-3.489-3.488c0-1.93,1.563-3.492,3.489-3.492c1.928,0,3.489,1.563,3.489,3.492Z"/></g><g><path d="M470.32,384.555c0,1.93-1.562,3.484-3.489,3.484s-3.489-1.555-3.489-3.484c0-1.926,1.563-3.488,3.489-3.488c1.928-.001,3.489,1.562,3.489,3.488Z"/></g><g><path d="M460.036,363.988c0,1.926-1.562,3.488-3.489,3.488s-3.489-1.563-3.489-3.488c0-1.93,1.563-3.492,3.489-3.492c1.928,0,3.489,1.563,3.489,3.492Z"/></g><g><path d="M460.036,374.273c0,1.926-1.562,3.488-3.489,3.488s-3.489-1.563-3.489-3.488c0-1.93,1.563-3.492,3.489-3.492c1.928,0,3.489,1.563,3.489,3.492Z"/></g><g><path d="M460.036,384.555c0,1.93-1.562,3.484-3.489,3.484s-3.489-1.555-3.489-3.484c0-1.926,1.563-3.488,3.489-3.488c1.928-.001,3.489,1.562,3.489,3.488Z"/></g><g><circle r="3.489" transform="translate(312.564 271.426)"/></g><g><circle r="3.489" transform="translate(312.564 281.711)"/></g><g><circle r="3.489" transform="translate(312.564 291.996)"/></g><g><path d="M316.054,302.281c0,1.922-1.562,3.488-3.489,3.488s-3.489-1.566-3.489-3.488c0-1.93,1.563-3.492,3.489-3.492c1.927,0,3.489,1.563,3.489,3.492Z"/></g><g><path d="M316.054,312.563c0,1.93-1.562,3.492-3.489,3.492s-3.489-1.563-3.489-3.492c0-1.926,1.563-3.488,3.489-3.488c1.927-.001,3.489,1.562,3.489,3.488Z"/></g><g><path d="M316.054,322.848c0,1.93-1.562,3.492-3.489,3.492s-3.489-1.563-3.489-3.492c0-1.926,1.563-3.488,3.489-3.488c1.927-.001,3.489,1.562,3.489,3.488Z"/></g><g><circle r="3.489" transform="translate(312.564 394.84)"/></g><g><circle r="3.489" transform="translate(302.28 271.426)"/></g><g><circle r="3.489" transform="translate(302.28 281.711)"/></g><g><circle r="3.489" transform="translate(302.28 291.996)"/></g><g><path d="M305.77,302.281c0,1.922-1.563,3.488-3.489,3.488-1.928,0-3.489-1.566-3.489-3.488c0-1.93,1.562-3.492,3.489-3.492c1.926,0,3.489,1.563,3.489,3.492Z"/></g><g><path d="M305.77,312.563c0,1.93-1.563,3.492-3.489,3.492-1.928,0-3.489-1.563-3.489-3.492c0-1.926,1.562-3.488,3.489-3.488c1.926-.001,3.489,1.562,3.489,3.488Z"/></g><g><path d="M305.77,322.848c0,1.93-1.563,3.492-3.489,3.492-1.928,0-3.489-1.563-3.489-3.492c0-1.926,1.562-3.488,3.489-3.488c1.926-.001,3.489,1.562,3.489,3.488Z"/></g><g><path d="M305.77,353.703c0,1.926-1.563,3.488-3.489,3.488-1.928,0-3.489-1.563-3.489-3.488c0-1.93,1.562-3.492,3.489-3.492c1.926,0,3.489,1.562,3.489,3.492Z"/></g><g><path d="M305.77,384.555c0,1.93-1.563,3.484-3.489,3.484-1.928,0-3.489-1.555-3.489-3.484c0-1.926,1.562-3.488,3.489-3.488c1.926-.001,3.489,1.562,3.489,3.488Z"/></g><g><circle r="3.489" transform="translate(302.28 394.84)"/></g><g><circle r="3.489" transform="translate(291.996 271.426)"/></g><g><circle r="3.489" transform="translate(291.996 281.711)"/></g><g><circle r="3.489" transform="translate(291.996 291.996)"/></g><g><path d="M295.485,302.281c0,1.922-1.563,3.488-3.489,3.488-1.928,0-3.489-1.566-3.489-3.488c0-1.93,1.562-3.492,3.489-3.492s3.489,1.563,3.489,3.492Z"/></g><g><path d="M295.485,312.563c0,1.93-1.563,3.492-3.489,3.492-1.928,0-3.489-1.563-3.489-3.492c0-1.926,1.562-3.488,3.489-3.488c1.927-.001,3.489,1.562,3.489,3.488Z"/></g><g><path d="M295.485,322.848c0,1.93-1.563,3.492-3.489,3.492-1.928,0-3.489-1.563-3.489-3.492c0-1.926,1.562-3.488,3.489-3.488c1.927-.001,3.489,1.562,3.489,3.488Z"/></g><g><path d="M295.485,333.133c0,1.93-1.563,3.488-3.489,3.488-1.928,0-3.489-1.559-3.489-3.488s1.562-3.488,3.489-3.488s3.489,1.558,3.489,3.488Z"/></g><g><path d="M295.485,343.414c0,1.93-1.563,3.492-3.489,3.492-1.928,0-3.489-1.563-3.489-3.492c0-1.922,1.562-3.484,3.489-3.484s3.489,1.562,3.489,3.484Z"/></g><g><path d="M295.485,353.703c0,1.926-1.563,3.488-3.489,3.488-1.928,0-3.489-1.563-3.489-3.488c0-1.93,1.562-3.492,3.489-3.492s3.489,1.562,3.489,3.492Z"/></g><g><path d="M295.485,363.988c0,1.926-1.563,3.488-3.489,3.488-1.928,0-3.489-1.563-3.489-3.488c0-1.93,1.562-3.492,3.489-3.492s3.489,1.563,3.489,3.492Z"/></g><g><circle r="3.489" transform="translate(291.996 394.84)"/></g><g><circle r="3.489" transform="translate(281.711 271.426)"/></g><g><circle r="3.489" transform="translate(281.711 281.711)"/></g><g><circle r="3.489" transform="translate(281.711 291.996)"/></g><g><path d="M285.2,302.281c0,1.922-1.562,3.488-3.489,3.488s-3.489-1.566-3.489-3.488c0-1.93,1.563-3.492,3.489-3.492c1.928,0,3.489,1.563,3.489,3.492Z"/></g><g><path d="M285.2,312.563c0,1.93-1.562,3.492-3.489,3.492s-3.489-1.563-3.489-3.492c0-1.926,1.563-3.488,3.489-3.488c1.928-.001,3.489,1.562,3.489,3.488Z"/></g><g><path d="M285.2,322.848c0,1.93-1.562,3.492-3.489,3.492s-3.489-1.563-3.489-3.492c0-1.926,1.563-3.488,3.489-3.488c1.928-.001,3.489,1.562,3.489,3.488Z"/></g><g><path d="M285.2,333.133c0,1.93-1.562,3.488-3.489,3.488s-3.489-1.559-3.489-3.488s1.563-3.488,3.489-3.488c1.928,0,3.489,1.558,3.489,3.488Z"/></g><g><path d="M285.2,343.414c0,1.93-1.562,3.492-3.489,3.492s-3.489-1.563-3.489-3.492c0-1.922,1.563-3.484,3.489-3.484c1.928,0,3.489,1.562,3.489,3.484Z"/></g><g><path d="M285.2,353.703c0,1.926-1.562,3.488-3.489,3.488s-3.489-1.563-3.489-3.488c0-1.93,1.563-3.492,3.489-3.492c1.928,0,3.489,1.562,3.489,3.492Z"/></g><g><path d="M285.2,363.988c0,1.926-1.562,3.488-3.489,3.488s-3.489-1.563-3.489-3.488c0-1.93,1.563-3.492,3.489-3.492c1.928,0,3.489,1.563,3.489,3.492Z"/></g><g><path d="M285.2,374.273c0,1.926-1.562,3.488-3.489,3.488s-3.489-1.563-3.489-3.488c0-1.93,1.563-3.492,3.489-3.492c1.928,0,3.489,1.563,3.489,3.492Z"/></g><g><path d="M285.2,384.555c0,1.93-1.562,3.484-3.489,3.484s-3.489-1.555-3.489-3.484c0-1.926,1.563-3.488,3.489-3.488c1.928-.001,3.489,1.562,3.489,3.488Z"/></g><g><circle r="3.489" transform="translate(281.711 394.84)"/></g><g><path d="M285.2,405.121c0,1.93-1.562,3.492-3.489,3.492s-3.489-1.563-3.489-3.492c0-1.926,1.563-3.488,3.489-3.488c1.928,0,3.489,1.562,3.489,3.488Z"/></g><g><circle r="3.489" transform="translate(271.427 281.711)"/></g><g><path d="M274.916,302.281c0,1.922-1.562,3.488-3.489,3.488s-3.489-1.566-3.489-3.488c0-1.93,1.563-3.492,3.489-3.492c1.927,0,3.489,1.563,3.489,3.492Z"/></g><g><path d="M274.916,312.563c0,1.93-1.562,3.492-3.489,3.492s-3.489-1.563-3.489-3.492c0-1.926,1.563-3.488,3.489-3.488c1.927-.001,3.489,1.562,3.489,3.488Z"/></g><g><path d="M274.916,322.848c0,1.93-1.562,3.492-3.489,3.492s-3.489-1.563-3.489-3.492c0-1.926,1.563-3.488,3.489-3.488c1.927-.001,3.489,1.562,3.489,3.488Z"/></g><g><path d="M274.916,333.133c0,1.93-1.562,3.488-3.489,3.488s-3.489-1.559-3.489-3.488s1.563-3.488,3.489-3.488c1.927,0,3.489,1.558,3.489,3.488Z"/></g><g><path d="M274.916,343.414c0,1.93-1.562,3.492-3.489,3.492s-3.489-1.563-3.489-3.492c0-1.922,1.563-3.484,3.489-3.484c1.927,0,3.489,1.562,3.489,3.484Z"/></g><g><path d="M274.916,353.703c0,1.926-1.562,3.488-3.489,3.488s-3.489-1.563-3.489-3.488c0-1.93,1.563-3.492,3.489-3.492c1.927,0,3.489,1.562,3.489,3.492Z"/></g><g><path d="M274.916,363.988c0,1.926-1.562,3.488-3.489,3.488s-3.489-1.563-3.489-3.488c0-1.93,1.563-3.492,3.489-3.492c1.927,0,3.489,1.563,3.489,3.492Z"/></g><g><path d="M274.916,374.273c0,1.926-1.562,3.488-3.489,3.488s-3.489-1.563-3.489-3.488c0-1.93,1.563-3.492,3.489-3.492c1.927,0,3.489,1.563,3.489,3.492Z"/></g><g><path d="M274.916,384.555c0,1.93-1.562,3.484-3.489,3.484s-3.489-1.555-3.489-3.484c0-1.926,1.563-3.488,3.489-3.488c1.927-.001,3.489,1.562,3.489,3.488Z"/></g><g><circle r="3.489" transform="translate(271.427 394.84)"/></g><g><path d="M274.916,405.121c0,1.93-1.562,3.492-3.489,3.492s-3.489-1.563-3.489-3.492c0-1.926,1.563-3.488,3.489-3.488c1.927,0,3.489,1.562,3.489,3.488Z"/></g><g><circle r="3.489" transform="translate(261.143 281.711)"/></g><g><circle r="3.489" transform="translate(261.143 291.996)"/></g><g><path d="M264.632,302.281c0,1.922-1.563,3.488-3.489,3.488-1.928,0-3.489-1.566-3.489-3.488c0-1.93,1.562-3.492,3.489-3.492c1.926,0,3.489,1.563,3.489,3.492Z"/></g><g><path d="M264.632,312.563c0,1.93-1.563,3.492-3.489,3.492-1.928,0-3.489-1.563-3.489-3.492c0-1.926,1.562-3.488,3.489-3.488c1.926-.001,3.489,1.562,3.489,3.488Z"/></g><g><path d="M264.632,322.848c0,1.93-1.563,3.492-3.489,3.492-1.928,0-3.489-1.563-3.489-3.492c0-1.926,1.562-3.488,3.489-3.488c1.926-.001,3.489,1.562,3.489,3.488Z"/></g><g><path d="M264.632,333.133c0,1.93-1.563,3.488-3.489,3.488-1.928,0-3.489-1.559-3.489-3.488s1.562-3.488,3.489-3.488c1.926,0,3.489,1.558,3.489,3.488Z"/></g><g><path d="M264.632,343.414c0,1.93-1.563,3.492-3.489,3.492-1.928,0-3.489-1.563-3.489-3.492c0-1.922,1.562-3.484,3.489-3.484c1.926,0,3.489,1.562,3.489,3.484Z"/></g><g><path d="M264.632,353.703c0,1.926-1.563,3.488-3.489,3.488-1.928,0-3.489-1.563-3.489-3.488c0-1.93,1.562-3.492,3.489-3.492c1.926,0,3.489,1.562,3.489,3.492Z"/></g><g><path d="M264.632,363.988c0,1.926-1.563,3.488-3.489,3.488-1.928,0-3.489-1.563-3.489-3.488c0-1.93,1.562-3.492,3.489-3.492c1.926,0,3.489,1.563,3.489,3.492Z"/></g><g><path d="M264.632,374.273c0,1.926-1.563,3.488-3.489,3.488-1.928,0-3.489-1.563-3.489-3.488c0-1.93,1.562-3.492,3.489-3.492c1.926,0,3.489,1.563,3.489,3.492Z"/></g><g><circle r="3.489" transform="translate(261.143 394.84)"/></g><g><path d="M264.632,405.121c0,1.93-1.563,3.492-3.489,3.492-1.928,0-3.489-1.563-3.489-3.492c0-1.926,1.562-3.488,3.489-3.488c1.926,0,3.489,1.562,3.489,3.488Z"/></g><g><path d="M254.347,199.438c0,1.926-1.562,3.488-3.489,3.488s-3.489-1.563-3.489-3.488c0-1.93,1.562-3.492,3.489-3.492s3.489,1.562,3.489,3.492Z"/></g><g><circle r="3.489" transform="translate(250.858 281.711)"/></g><g><circle r="3.489" transform="translate(250.858 291.996)"/></g><g><path d="M254.347,302.281c0,1.922-1.562,3.488-3.489,3.488s-3.489-1.566-3.489-3.488c0-1.93,1.562-3.492,3.489-3.492s3.489,1.563,3.489,3.492Z"/></g><g><path d="M254.347,312.563c0,1.93-1.562,3.492-3.489,3.492s-3.489-1.563-3.489-3.492c0-1.926,1.562-3.488,3.489-3.488s3.489,1.562,3.489,3.488Z"/></g><g><path d="M254.347,322.848c0,1.93-1.562,3.492-3.489,3.492s-3.489-1.563-3.489-3.492c0-1.926,1.562-3.488,3.489-3.488s3.489,1.562,3.489,3.488Z"/></g><g><path d="M254.347,333.133c0,1.93-1.562,3.488-3.489,3.488s-3.489-1.559-3.489-3.488s1.562-3.488,3.489-3.488s3.489,1.558,3.489,3.488Z"/></g><g><path d="M254.347,343.414c0,1.93-1.562,3.492-3.489,3.492s-3.489-1.563-3.489-3.492c0-1.922,1.562-3.484,3.489-3.484s3.489,1.562,3.489,3.484Z"/></g><g><path d="M254.347,353.703c0,1.926-1.562,3.488-3.489,3.488s-3.489-1.563-3.489-3.488c0-1.93,1.562-3.492,3.489-3.492s3.489,1.562,3.489,3.492Z"/></g><g><path d="M254.347,363.988c0,1.926-1.562,3.488-3.489,3.488s-3.489-1.563-3.489-3.488c0-1.93,1.562-3.492,3.489-3.492s3.489,1.563,3.489,3.492Z"/></g><g><circle r="3.49" transform="translate(240.573 281.711)"/></g><g><path d="M244.063,302.281c0,1.922-1.563,3.488-3.489,3.488-1.927,0-3.49-1.566-3.49-3.488c0-1.93,1.563-3.492,3.49-3.492c1.926,0,3.489,1.563,3.489,3.492Z"/></g><g><path d="M244.063,312.563c0,1.93-1.563,3.492-3.489,3.492-1.927,0-3.49-1.563-3.49-3.492c0-1.926,1.563-3.488,3.49-3.488c1.926-.001,3.489,1.562,3.489,3.488Z"/></g><g><path d="M244.063,322.848c0,1.93-1.563,3.492-3.489,3.492-1.927,0-3.49-1.563-3.49-3.492c0-1.926,1.563-3.488,3.49-3.488c1.926-.001,3.489,1.562,3.489,3.488Z"/></g><g><path d="M244.063,333.133c0,1.93-1.563,3.488-3.489,3.488-1.927,0-3.49-1.559-3.49-3.488s1.563-3.488,3.49-3.488c1.926,0,3.489,1.558,3.489,3.488Z"/></g><g><path d="M244.063,343.414c0,1.93-1.563,3.492-3.489,3.492-1.927,0-3.49-1.563-3.49-3.492c0-1.922,1.563-3.484,3.49-3.484c1.926,0,3.489,1.562,3.489,3.484Z"/></g><g><path d="M244.063,353.703c0,1.926-1.563,3.488-3.489,3.488-1.927,0-3.49-1.563-3.49-3.488c0-1.93,1.563-3.492,3.49-3.492c1.926,0,3.489,1.562,3.489,3.492Z"/></g><g><path d="M244.063,363.988c0,1.926-1.563,3.488-3.489,3.488-1.927,0-3.49-1.563-3.49-3.488c0-1.93,1.563-3.492,3.49-3.492c1.926,0,3.489,1.563,3.489,3.492Z"/></g><g><path d="M244.063,405.121c0,1.93-1.563,3.492-3.489,3.492-1.927,0-3.49-1.563-3.49-3.492c0-1.926,1.563-3.488,3.49-3.488c1.926,0,3.489,1.562,3.489,3.488Z"/></g><g><path d="M233.778,312.563c0,1.93-1.562,3.492-3.489,3.492s-3.489-1.563-3.489-3.492c0-1.926,1.562-3.488,3.489-3.488s3.489,1.562,3.489,3.488Z"/></g><g><path d="M233.778,322.848c0,1.93-1.562,3.492-3.489,3.492s-3.489-1.563-3.489-3.492c0-1.926,1.562-3.488,3.489-3.488s3.489,1.562,3.489,3.488Z"/></g><g><path d="M233.778,333.133c0,1.93-1.562,3.488-3.489,3.488s-3.489-1.559-3.489-3.488s1.562-3.488,3.489-3.488s3.489,1.558,3.489,3.488Z"/></g><g><path d="M233.778,343.414c0,1.93-1.562,3.492-3.489,3.492s-3.489-1.563-3.489-3.492c0-1.922,1.562-3.484,3.489-3.484s3.489,1.562,3.489,3.484Z"/></g><g><path d="M233.778,353.703c0,1.926-1.562,3.488-3.489,3.488s-3.489-1.563-3.489-3.488c0-1.93,1.562-3.492,3.489-3.492s3.489,1.562,3.489,3.492Z"/></g><g><path d="M233.778,363.988c0,1.926-1.562,3.488-3.489,3.488s-3.489-1.563-3.489-3.488c0-1.93,1.562-3.492,3.489-3.492s3.489,1.563,3.489,3.492Z"/></g><g><circle r="3.489" transform="translate(230.289 394.84)"/></g><g><path d="M233.778,405.121c0,1.93-1.562,3.492-3.489,3.492s-3.489-1.563-3.489-3.492c0-1.926,1.562-3.488,3.489-3.488s3.489,1.562,3.489,3.488Z"/></g><g><path d="M223.494,127.445c0,1.926-1.563,3.488-3.49,3.488s-3.489-1.563-3.489-3.488c0-1.93,1.562-3.492,3.489-3.492s3.49,1.563,3.49,3.492Z"/></g><g><path d="M223.494,312.563c0,1.93-1.563,3.492-3.49,3.492s-3.489-1.563-3.489-3.492c0-1.926,1.562-3.488,3.489-3.488s3.49,1.562,3.49,3.488Z"/></g><g><path d="M223.494,322.848c0,1.93-1.563,3.492-3.49,3.492s-3.489-1.563-3.489-3.492c0-1.926,1.562-3.488,3.489-3.488s3.49,1.562,3.49,3.488Z"/></g><g><path d="M223.494,333.133c0,1.93-1.563,3.488-3.49,3.488s-3.489-1.559-3.489-3.488s1.562-3.488,3.489-3.488s3.49,1.558,3.49,3.488Z"/></g><g><circle r="3.49" transform="translate(220.005 394.84)"/></g><g><path d="M223.494,405.121c0,1.93-1.563,3.492-3.49,3.492s-3.489-1.563-3.489-3.492c0-1.926,1.562-3.488,3.489-3.488s3.49,1.562,3.49,3.488Z"/></g><g><path d="M213.209,127.445c0,1.926-1.562,3.488-3.489,3.488s-3.49-1.563-3.49-3.488c0-1.93,1.563-3.492,3.49-3.492s3.489,1.563,3.489,3.492Z"/></g><g><circle r="3.49" transform="translate(209.72 230.289)"/></g><g><path d="M213.209,240.574c0,1.926-1.562,3.488-3.489,3.488s-3.49-1.563-3.49-3.488s1.563-3.496,3.49-3.496s3.489,1.57,3.489,3.496Z"/></g><g><path d="M213.209,374.273c0,1.926-1.562,3.488-3.489,3.488s-3.49-1.563-3.49-3.488c0-1.93,1.563-3.492,3.49-3.492s3.489,1.563,3.489,3.492Z"/></g><g><path d="M213.209,384.555c0,1.93-1.562,3.484-3.489,3.484s-3.49-1.555-3.49-3.484c0-1.926,1.563-3.488,3.49-3.488s3.489,1.562,3.489,3.488Z"/></g><g><circle r="3.49" transform="translate(199.436 220.004)"/></g><g><circle r="3.49" transform="translate(199.436 230.289)"/></g><g><path d="M202.925,240.574c0,1.926-1.563,3.488-3.49,3.488s-3.489-1.563-3.489-3.488s1.562-3.496,3.489-3.496s3.49,1.57,3.49,3.496Z"/></g><g><path d="M202.925,250.859c0,1.926-1.563,3.488-3.49,3.488s-3.489-1.563-3.489-3.488c0-1.93,1.562-3.492,3.489-3.492s3.49,1.563,3.49,3.492Z"/></g><g><path d="M202.925,261.141c0,1.93-1.563,3.492-3.49,3.492s-3.489-1.563-3.489-3.492c0-1.926,1.562-3.488,3.489-3.488s3.49,1.562,3.49,3.488Z"/></g><g><path d="M202.925,333.133c0,1.93-1.563,3.488-3.49,3.488s-3.489-1.559-3.489-3.488s1.562-3.488,3.489-3.488s3.49,1.558,3.49,3.488Z"/></g><g><path d="M202.925,343.414c0,1.93-1.563,3.492-3.49,3.492s-3.489-1.563-3.489-3.492c0-1.922,1.562-3.484,3.489-3.484s3.49,1.562,3.49,3.484Z"/></g><g><path d="M202.925,353.703c0,1.926-1.563,3.488-3.49,3.488s-3.489-1.563-3.489-3.488c0-1.93,1.562-3.492,3.489-3.492s3.49,1.562,3.49,3.492Z"/></g><g><path d="M202.925,363.988c0,1.926-1.563,3.488-3.49,3.488s-3.489-1.563-3.489-3.488c0-1.93,1.562-3.492,3.489-3.492s3.49,1.563,3.49,3.492Z"/></g><g><path d="M202.925,374.273c0,1.926-1.563,3.488-3.49,3.488s-3.489-1.563-3.489-3.488c0-1.93,1.562-3.492,3.489-3.492s3.49,1.563,3.49,3.492Z"/></g><g><circle r="3.49" transform="translate(199.436 394.84)"/></g><g><path d="M202.925,405.121c0,1.93-1.563,3.492-3.49,3.492s-3.489-1.563-3.489-3.492c0-1.926,1.562-3.488,3.489-3.488s3.49,1.562,3.49,3.488Z"/></g><g><path d="M192.641,76.023c0,1.926-1.563,3.488-3.489,3.488-1.927,0-3.489-1.563-3.489-3.488c0-1.93,1.562-3.492,3.489-3.492c1.926,0,3.489,1.563,3.489,3.492Z"/></g><g><circle r="3.489" transform="translate(189.151 220.004)"/></g><g><circle r="3.489" transform="translate(189.151 230.289)"/></g><g><path d="M192.641,240.574c0,1.926-1.563,3.488-3.489,3.488-1.927,0-3.489-1.563-3.489-3.488s1.562-3.496,3.489-3.496c1.926,0,3.489,1.57,3.489,3.496Z"/></g><g><path d="M192.641,250.859c0,1.926-1.563,3.488-3.489,3.488-1.927,0-3.489-1.563-3.489-3.488c0-1.93,1.562-3.492,3.489-3.492c1.926,0,3.489,1.563,3.489,3.492Z"/></g><g><path d="M192.641,261.141c0,1.93-1.563,3.492-3.489,3.492-1.927,0-3.489-1.563-3.489-3.492c0-1.926,1.562-3.488,3.489-3.488c1.926-.001,3.489,1.562,3.489,3.488Z"/></g><g><circle r="3.489" transform="translate(189.151 281.711)"/></g><g><circle r="3.489" transform="translate(189.151 291.996)"/></g><g><path d="M192.641,302.281c0,1.922-1.563,3.488-3.489,3.488-1.927,0-3.489-1.566-3.489-3.488c0-1.93,1.562-3.492,3.489-3.492c1.926,0,3.489,1.563,3.489,3.492Z"/></g><g><path d="M192.641,322.848c0,1.93-1.563,3.492-3.489,3.492-1.927,0-3.489-1.563-3.489-3.492c0-1.926,1.562-3.488,3.489-3.488c1.926-.001,3.489,1.562,3.489,3.488Z"/></g><g><path d="M192.641,333.133c0,1.93-1.563,3.488-3.489,3.488-1.927,0-3.489-1.559-3.489-3.488s1.562-3.488,3.489-3.488c1.926,0,3.489,1.558,3.489,3.488Z"/></g><g><path d="M192.641,343.414c0,1.93-1.563,3.492-3.489,3.492-1.927,0-3.489-1.563-3.489-3.492c0-1.922,1.562-3.484,3.489-3.484c1.926,0,3.489,1.562,3.489,3.484Z"/></g><g><path d="M192.641,353.703c0,1.926-1.563,3.488-3.489,3.488-1.927,0-3.489-1.563-3.489-3.488c0-1.93,1.562-3.492,3.489-3.492c1.926,0,3.489,1.562,3.489,3.492Z"/></g><g><path d="M192.641,363.988c0,1.926-1.563,3.488-3.489,3.488-1.927,0-3.489-1.563-3.489-3.488c0-1.93,1.562-3.492,3.489-3.492c1.926,0,3.489,1.563,3.489,3.492Z"/></g><g><path d="M192.641,374.273c0,1.926-1.563,3.488-3.489,3.488-1.927,0-3.489-1.563-3.489-3.488c0-1.93,1.562-3.492,3.489-3.492c1.926,0,3.489,1.563,3.489,3.492Z"/></g><g><path d="M192.641,384.555c0,1.93-1.563,3.484-3.489,3.484-1.927,0-3.489-1.555-3.489-3.484c0-1.926,1.562-3.488,3.489-3.488c1.926-.001,3.489,1.562,3.489,3.488Z"/></g><g><path d="M182.356,86.305c0,1.93-1.562,3.492-3.489,3.492s-3.489-1.563-3.489-3.492c0-1.926,1.562-3.488,3.489-3.488s3.489,1.562,3.489,3.488Z"/></g><g><circle r="3.489" transform="translate(178.867 96.59)"/></g><g><path d="M182.356,106.871c0,1.934-1.562,3.492-3.489,3.492s-3.489-1.559-3.489-3.492c0-1.922,1.562-3.484,3.489-3.484s3.489,1.562,3.489,3.484Z"/></g><g><circle r="3.489" transform="translate(178.867 117.16)"/></g><g><path d="M182.356,127.445c0,1.926-1.562,3.488-3.489,3.488s-3.489-1.563-3.489-3.488c0-1.93,1.562-3.492,3.489-3.492s3.489,1.563,3.489,3.492Z"/></g><g><path d="M182.356,137.73c0,1.926-1.562,3.488-3.489,3.488s-3.489-1.563-3.489-3.488c0-1.93,1.562-3.492,3.489-3.492s3.489,1.563,3.489,3.492Z"/></g><g><path d="M182.356,148.012c0,1.93-1.562,3.488-3.489,3.488s-3.489-1.559-3.489-3.488c0-1.926,1.562-3.488,3.489-3.488s3.489,1.562,3.489,3.488Z"/></g><g><circle r="3.489" transform="translate(178.867 220.004)"/></g><g><circle r="3.489" transform="translate(178.867 230.289)"/></g><g><path d="M182.356,240.574c0,1.926-1.562,3.488-3.489,3.488s-3.489-1.563-3.489-3.488s1.562-3.496,3.489-3.496s3.489,1.57,3.489,3.496Z"/></g><g><path d="M182.356,333.133c0,1.93-1.562,3.488-3.489,3.488s-3.489-1.559-3.489-3.488s1.562-3.488,3.489-3.488s3.489,1.558,3.489,3.488Z"/></g><g><path d="M182.356,343.414c0,1.93-1.562,3.492-3.489,3.492s-3.489-1.563-3.489-3.492c0-1.922,1.562-3.484,3.489-3.484s3.489,1.562,3.489,3.484Z"/></g><g><path d="M182.356,353.703c0,1.926-1.562,3.488-3.489,3.488s-3.489-1.563-3.489-3.488c0-1.93,1.562-3.492,3.489-3.492s3.489,1.562,3.489,3.492Z"/></g><g><path d="M182.356,363.988c0,1.926-1.562,3.488-3.489,3.488s-3.489-1.563-3.489-3.488c0-1.93,1.562-3.492,3.489-3.492s3.489,1.563,3.489,3.492Z"/></g><g><path d="M182.356,374.273c0,1.926-1.562,3.488-3.489,3.488s-3.489-1.563-3.489-3.488c0-1.93,1.562-3.492,3.489-3.492s3.489,1.563,3.489,3.492Z"/></g><g><path d="M182.356,384.555c0,1.93-1.562,3.484-3.489,3.484s-3.489-1.555-3.489-3.484c0-1.926,1.562-3.488,3.489-3.488s3.489,1.562,3.489,3.488Z"/></g><g><path d="M182.356,405.121c0,1.93-1.562,3.492-3.489,3.492s-3.489-1.563-3.489-3.492c0-1.926,1.562-3.488,3.489-3.488s3.489,1.562,3.489,3.488Z"/></g><g><circle r="3.49" transform="translate(168.582 96.59)"/></g><g><path d="M172.072,106.871c0,1.934-1.563,3.492-3.489,3.492-1.927,0-3.49-1.559-3.49-3.492c0-1.922,1.563-3.484,3.49-3.484c1.926,0,3.489,1.562,3.489,3.484Z"/></g><g><circle r="3.49" transform="translate(168.582 117.16)"/></g><g><path d="M172.072,127.445c0,1.926-1.563,3.488-3.489,3.488-1.927,0-3.49-1.563-3.49-3.488c0-1.93,1.563-3.492,3.49-3.492c1.926,0,3.489,1.563,3.489,3.492Z"/></g><g><path d="M172.072,137.73c0,1.926-1.563,3.488-3.489,3.488-1.927,0-3.49-1.563-3.49-3.488c0-1.93,1.563-3.492,3.49-3.492c1.926,0,3.489,1.563,3.489,3.492Z"/></g><g><path d="M172.072,148.012c0,1.93-1.563,3.488-3.489,3.488-1.927,0-3.49-1.559-3.49-3.488c0-1.926,1.563-3.488,3.49-3.488c1.926-.001,3.489,1.562,3.489,3.488Z"/></g><g><path d="M172.072,158.297c0,1.93-1.563,3.492-3.489,3.492-1.927,0-3.49-1.563-3.49-3.492c0-1.926,1.563-3.488,3.49-3.488c1.926,0,3.489,1.562,3.489,3.488Z"/></g><g><path d="M172.072,168.578c0,1.93-1.563,3.492-3.489,3.492-1.927,0-3.49-1.563-3.49-3.492c0-1.922,1.563-3.484,3.49-3.484c1.926,0,3.489,1.562,3.489,3.484Z"/></g><g><path d="M172.072,178.867c0,1.922-1.563,3.488-3.489,3.488-1.927,0-3.49-1.566-3.49-3.488c0-1.93,1.563-3.488,3.49-3.488c1.926,0,3.489,1.559,3.489,3.488Z"/></g><g><path d="M172.072,189.148c0,1.93-1.563,3.492-3.489,3.492-1.927,0-3.49-1.563-3.49-3.492c0-1.926,1.563-3.488,3.49-3.488c1.926,0,3.489,1.563,3.489,3.488Z"/></g><g><path d="M172.072,199.438c0,1.926-1.563,3.488-3.489,3.488-1.927,0-3.49-1.563-3.49-3.488c0-1.93,1.563-3.492,3.49-3.492c1.926-.001,3.489,1.562,3.489,3.492Z"/></g><g><circle r="3.49" transform="translate(168.582 209.719)"/></g><g><circle r="3.49" transform="translate(168.582 220.004)"/></g><g><circle r="3.49" transform="translate(168.582 230.289)"/></g><g><path d="M172.072,240.574c0,1.926-1.563,3.488-3.489,3.488-1.927,0-3.49-1.563-3.49-3.488s1.563-3.496,3.49-3.496c1.926,0,3.489,1.57,3.489,3.496Z"/></g><g><path d="M172.072,250.859c0,1.926-1.563,3.488-3.489,3.488-1.927,0-3.49-1.563-3.49-3.488c0-1.93,1.563-3.492,3.49-3.492c1.926,0,3.489,1.563,3.489,3.492Z"/></g><g><circle r="3.49" transform="translate(168.582 271.426)"/></g><g><circle r="3.49" transform="translate(168.582 281.711)"/></g><g><path d="M172.072,302.281c0,1.922-1.563,3.488-3.489,3.488-1.927,0-3.49-1.566-3.49-3.488c0-1.93,1.563-3.492,3.49-3.492c1.926,0,3.489,1.563,3.489,3.492Z"/></g><g><path d="M172.072,322.848c0,1.93-1.563,3.492-3.489,3.492-1.927,0-3.49-1.563-3.49-3.492c0-1.926,1.563-3.488,3.49-3.488c1.926-.001,3.489,1.562,3.489,3.488Z"/></g><g><path d="M172.072,333.133c0,1.93-1.563,3.488-3.489,3.488-1.927,0-3.49-1.559-3.49-3.488s1.563-3.488,3.49-3.488c1.926,0,3.489,1.558,3.489,3.488Z"/></g><g><path d="M172.072,343.414c0,1.93-1.563,3.492-3.489,3.492-1.927,0-3.49-1.563-3.49-3.492c0-1.922,1.563-3.484,3.49-3.484c1.926,0,3.489,1.562,3.489,3.484Z"/></g><g><path d="M172.072,353.703c0,1.926-1.563,3.488-3.489,3.488-1.927,0-3.49-1.563-3.49-3.488c0-1.93,1.563-3.492,3.49-3.492c1.926,0,3.489,1.562,3.489,3.492Z"/></g><g><path d="M172.072,363.988c0,1.926-1.563,3.488-3.489,3.488-1.927,0-3.49-1.563-3.49-3.488c0-1.93,1.563-3.492,3.49-3.492c1.926,0,3.489,1.563,3.489,3.492Z"/></g><g><path d="M172.072,374.273c0,1.926-1.563,3.488-3.489,3.488-1.927,0-3.49-1.563-3.49-3.488c0-1.93,1.563-3.492,3.49-3.492c1.926,0,3.489,1.563,3.489,3.492Z"/></g><g><circle r="3.49" transform="translate(168.582 394.84)"/></g><g><circle r="3.489" transform="translate(158.298 96.59)"/></g><g><path d="M161.787,106.871c0,1.934-1.562,3.492-3.489,3.492s-3.489-1.559-3.489-3.492c0-1.922,1.562-3.484,3.489-3.484s3.489,1.562,3.489,3.484Z"/></g><g><circle r="3.489" transform="translate(158.298 117.16)"/></g><g><path d="M161.787,127.445c0,1.926-1.562,3.488-3.489,3.488s-3.489-1.563-3.489-3.488c0-1.93,1.562-3.492,3.489-3.492s3.489,1.563,3.489,3.492Z"/></g><g><path d="M161.787,137.73c0,1.926-1.562,3.488-3.489,3.488s-3.489-1.563-3.489-3.488c0-1.93,1.562-3.492,3.489-3.492s3.489,1.563,3.489,3.492Z"/></g><g><path d="M161.787,148.012c0,1.93-1.562,3.488-3.489,3.488s-3.489-1.559-3.489-3.488c0-1.926,1.562-3.488,3.489-3.488s3.489,1.562,3.489,3.488Z"/></g><g><path d="M161.787,158.297c0,1.93-1.562,3.492-3.489,3.492s-3.489-1.563-3.489-3.492c0-1.926,1.562-3.488,3.489-3.488s3.489,1.562,3.489,3.488Z"/></g><g><path d="M161.787,168.578c0,1.93-1.562,3.492-3.489,3.492s-3.489-1.563-3.489-3.492c0-1.922,1.562-3.484,3.489-3.484s3.489,1.562,3.489,3.484Z"/></g><g><path d="M161.787,178.867c0,1.922-1.562,3.488-3.489,3.488s-3.489-1.566-3.489-3.488c0-1.93,1.562-3.488,3.489-3.488s3.489,1.559,3.489,3.488Z"/></g><g><path d="M161.787,189.148c0,1.93-1.562,3.492-3.489,3.492s-3.489-1.563-3.489-3.492c0-1.926,1.562-3.488,3.489-3.488s3.489,1.563,3.489,3.488Z"/></g><g><path d="M161.787,199.438c0,1.926-1.562,3.488-3.489,3.488s-3.489-1.563-3.489-3.488c0-1.93,1.562-3.492,3.489-3.492s3.489,1.562,3.489,3.492Z"/></g><g><circle r="3.489" transform="translate(158.298 209.719)"/></g><g><circle r="3.489" transform="translate(158.298 220.004)"/></g><g><circle r="3.489" transform="translate(158.298 230.289)"/></g><g><path d="M161.787,240.574c0,1.926-1.562,3.488-3.489,3.488s-3.489-1.563-3.489-3.488s1.562-3.496,3.489-3.496s3.489,1.57,3.489,3.496Z"/></g><g><path d="M161.787,250.859c0,1.926-1.562,3.488-3.489,3.488s-3.489-1.563-3.489-3.488c0-1.93,1.562-3.492,3.489-3.492s3.489,1.563,3.489,3.492Z"/></g><g><g id="elmBs1GyA0b400_ts" transform="translate(158.298004,261.14299) scale(1,1)"><path id="elmBs1GyA0b400" d="M161.787,261.141c0,1.93-1.562,3.492-3.489,3.492s-3.489-1.563-3.489-3.492c0-1.926,1.562-3.488,3.489-3.488s3.489,1.562,3.489,3.488Z" transform="translate(-158.298004,-261.14299)" opacity="0.6" fill="#818cf8"/></g><path d="M161.787,261.141c0,1.93-1.562,3.492-3.489,3.492s-3.489-1.563-3.489-3.492c0-1.926,1.562-3.488,3.489-3.488s3.489,1.562,3.489,3.488Z" fill="#818cf8"/></g><g><circle r="3.489" transform="translate(158.298 271.426)"/></g><g><circle r="3.489" transform="translate(158.298 281.711)"/></g><g><circle r="3.489" transform="translate(158.298 291.996)"/></g><g><path d="M161.787,333.133c0,1.93-1.562,3.488-3.489,3.488s-3.489-1.559-3.489-3.488s1.562-3.488,3.489-3.488s3.489,1.558,3.489,3.488Z"/></g><g><path d="M161.787,343.414c0,1.93-1.562,3.492-3.489,3.492s-3.489-1.563-3.489-3.492c0-1.922,1.562-3.484,3.489-3.484s3.489,1.562,3.489,3.484Z"/></g><g><path d="M161.787,353.703c0,1.926-1.562,3.488-3.489,3.488s-3.489-1.563-3.489-3.488c0-1.93,1.562-3.492,3.489-3.492s3.489,1.562,3.489,3.492Z"/></g><g><path d="M161.787,363.988c0,1.926-1.562,3.488-3.489,3.488s-3.489-1.563-3.489-3.488c0-1.93,1.562-3.492,3.489-3.492s3.489,1.563,3.489,3.492Z"/></g><g><path d="M161.787,374.273c0,1.926-1.562,3.488-3.489,3.488s-3.489-1.563-3.489-3.488c0-1.93,1.562-3.492,3.489-3.492s3.489,1.563,3.489,3.492Z"/></g><g><circle r="3.49" transform="translate(148.013 96.59)"/></g><g><path d="M151.503,106.871c0,1.934-1.563,3.492-3.489,3.492-1.928,0-3.49-1.559-3.49-3.492c0-1.922,1.562-3.484,3.49-3.484c1.926,0,3.489,1.562,3.489,3.484Z"/></g><g><circle r="3.49" transform="translate(148.013 117.16)"/></g><g><path d="M151.503,127.445c0,1.926-1.563,3.488-3.489,3.488-1.928,0-3.49-1.563-3.49-3.488c0-1.93,1.562-3.492,3.49-3.492c1.926,0,3.489,1.563,3.489,3.492Z"/></g><g><path d="M151.503,137.73c0,1.926-1.563,3.488-3.489,3.488-1.928,0-3.49-1.563-3.49-3.488c0-1.93,1.562-3.492,3.49-3.492c1.926,0,3.489,1.563,3.489,3.492Z"/></g><g><path d="M151.503,148.012c0,1.93-1.563,3.488-3.489,3.488-1.928,0-3.49-1.559-3.49-3.488c0-1.926,1.562-3.488,3.49-3.488c1.926-.001,3.489,1.562,3.489,3.488Z"/></g><g><path d="M151.503,158.297c0,1.93-1.563,3.492-3.489,3.492-1.928,0-3.49-1.563-3.49-3.492c0-1.926,1.562-3.488,3.49-3.488c1.926,0,3.489,1.562,3.489,3.488Z"/></g><g><path d="M151.503,168.578c0,1.93-1.563,3.492-3.489,3.492-1.928,0-3.49-1.563-3.49-3.492c0-1.922,1.562-3.484,3.49-3.484c1.926,0,3.489,1.562,3.489,3.484Z"/></g><g><path d="M151.503,178.867c0,1.922-1.563,3.488-3.489,3.488-1.928,0-3.49-1.566-3.49-3.488c0-1.93,1.562-3.488,3.49-3.488c1.926,0,3.489,1.559,3.489,3.488Z"/></g><g><path d="M151.503,189.148c0,1.93-1.563,3.492-3.489,3.492-1.928,0-3.49-1.563-3.49-3.492c0-1.926,1.562-3.488,3.49-3.488c1.926,0,3.489,1.563,3.489,3.488Z"/></g><g><path d="M151.503,199.438c0,1.926-1.563,3.488-3.489,3.488-1.928,0-3.49-1.563-3.49-3.488c0-1.93,1.562-3.492,3.49-3.492c1.926-.001,3.489,1.562,3.489,3.492Z"/></g><g><circle r="3.49" transform="translate(148.013 209.719)"/></g><g><circle r="3.49" transform="translate(148.013 220.004)"/></g><g><circle r="3.49" transform="translate(148.013 230.289)"/></g><g><path d="M151.503,240.574c0,1.926-1.563,3.488-3.489,3.488-1.928,0-3.49-1.563-3.49-3.488s1.562-3.496,3.49-3.496c1.926,0,3.489,1.57,3.489,3.496Z"/></g><g><path d="M151.503,250.859c0,1.926-1.563,3.488-3.489,3.488-1.928,0-3.49-1.563-3.49-3.488c0-1.93,1.562-3.492,3.49-3.492c1.926,0,3.489,1.563,3.489,3.492Z"/></g><g><path d="M151.503,261.141c0,1.93-1.563,3.492-3.489,3.492-1.928,0-3.49-1.563-3.49-3.492c0-1.926,1.562-3.488,3.49-3.488c1.926-.001,3.489,1.562,3.489,3.488Z"/></g><g><circle r="3.49" transform="translate(148.013 271.426)"/></g><g><circle r="3.49" transform="translate(148.013 281.711)"/></g><g><circle r="3.49" transform="translate(148.013 291.996)"/></g><g><path d="M151.503,302.281c0,1.922-1.563,3.488-3.489,3.488-1.928,0-3.49-1.566-3.49-3.488c0-1.93,1.562-3.492,3.49-3.492c1.926,0,3.489,1.563,3.489,3.492Z"/></g><g><path d="M151.503,312.563c0,1.93-1.563,3.492-3.489,3.492-1.928,0-3.49-1.563-3.49-3.492c0-1.926,1.562-3.488,3.49-3.488c1.926-.001,3.489,1.562,3.489,3.488Z"/></g><g><path d="M151.503,333.133c0,1.93-1.563,3.488-3.489,3.488-1.928,0-3.49-1.559-3.49-3.488s1.562-3.488,3.49-3.488c1.926,0,3.489,1.558,3.489,3.488Z"/></g><g><path d="M151.503,343.414c0,1.93-1.563,3.492-3.489,3.492-1.928,0-3.49-1.563-3.49-3.492c0-1.922,1.562-3.484,3.49-3.484c1.926,0,3.489,1.562,3.489,3.484Z"/></g><g><path d="M151.503,353.703c0,1.926-1.563,3.488-3.489,3.488-1.928,0-3.49-1.563-3.49-3.488c0-1.93,1.562-3.492,3.49-3.492c1.926,0,3.489,1.562,3.489,3.492Z"/></g><g><path d="M151.503,363.988c0,1.926-1.563,3.488-3.489,3.488-1.928,0-3.49-1.563-3.49-3.488c0-1.93,1.562-3.492,3.49-3.492c1.926,0,3.489,1.563,3.489,3.492Z"/></g><g><circle r="3.49" transform="translate(148.013 394.84)"/></g><g><path d="M151.503,405.121c0,1.93-1.563,3.492-3.489,3.492-1.928,0-3.49-1.563-3.49-3.492c0-1.926,1.562-3.488,3.49-3.488c1.926,0,3.489,1.562,3.489,3.488Z"/></g><g><path d="M141.218,106.871c0,1.934-1.562,3.492-3.489,3.492s-3.489-1.559-3.489-3.492c0-1.922,1.562-3.484,3.489-3.484s3.489,1.562,3.489,3.484Z"/></g><g><circle r="3.489" transform="translate(137.729 117.16)"/></g><g><path d="M141.218,127.445c0,1.926-1.562,3.488-3.489,3.488s-3.489-1.563-3.489-3.488c0-1.93,1.562-3.492,3.489-3.492s3.489,1.563,3.489,3.492Z"/></g><g><path d="M141.218,137.73c0,1.926-1.562,3.488-3.489,3.488s-3.489-1.563-3.489-3.488c0-1.93,1.562-3.492,3.489-3.492s3.489,1.563,3.489,3.492Z"/></g><g><path d="M141.218,148.012c0,1.93-1.562,3.488-3.489,3.488s-3.489-1.559-3.489-3.488c0-1.926,1.562-3.488,3.489-3.488s3.489,1.562,3.489,3.488Z"/></g><g><path d="M141.218,158.297c0,1.93-1.562,3.492-3.489,3.492s-3.489-1.563-3.489-3.492c0-1.926,1.562-3.488,3.489-3.488s3.489,1.562,3.489,3.488Z"/></g><g><path d="M141.218,168.578c0,1.93-1.562,3.492-3.489,3.492s-3.489-1.563-3.489-3.492c0-1.922,1.562-3.484,3.489-3.484s3.489,1.562,3.489,3.484Z"/></g><g><path d="M141.218,178.867c0,1.922-1.562,3.488-3.489,3.488s-3.489-1.566-3.489-3.488c0-1.93,1.562-3.488,3.489-3.488s3.489,1.559,3.489,3.488Z"/></g><g><path d="M141.218,189.148c0,1.93-1.562,3.492-3.489,3.492s-3.489-1.563-3.489-3.492c0-1.926,1.562-3.488,3.489-3.488s3.489,1.563,3.489,3.488Z"/></g><g><path d="M141.218,199.438c0,1.926-1.562,3.488-3.489,3.488s-3.489-1.563-3.489-3.488c0-1.93,1.562-3.492,3.489-3.492s3.489,1.562,3.489,3.492Z"/></g><g><circle r="3.489" transform="translate(137.729 209.719)"/></g><g><circle r="3.489" transform="translate(137.729 220.004)"/></g><g><circle r="3.489" transform="translate(137.729 230.289)"/></g><g><path d="M141.218,240.574c0,1.926-1.562,3.488-3.489,3.488s-3.489-1.563-3.489-3.488s1.562-3.496,3.489-3.496s3.489,1.57,3.489,3.496Z"/></g><g><path d="M141.218,250.859c0,1.926-1.562,3.488-3.489,3.488s-3.489-1.563-3.489-3.488c0-1.93,1.562-3.492,3.489-3.492s3.489,1.563,3.489,3.492Z"/></g><g><path d="M141.218,261.141c0,1.93-1.562,3.492-3.489,3.492s-3.489-1.563-3.489-3.492c0-1.926,1.562-3.488,3.489-3.488s3.489,1.562,3.489,3.488Z"/></g><g><circle r="3.489" transform="translate(137.729 271.426)"/></g><g><circle r="3.489" transform="translate(137.729 281.711)"/></g><g><circle r="3.489" transform="translate(137.729 291.996)"/></g><g><path d="M141.218,302.281c0,1.922-1.562,3.488-3.489,3.488s-3.489-1.566-3.489-3.488c0-1.93,1.562-3.492,3.489-3.492s3.489,1.563,3.489,3.492Z"/></g><g><path d="M141.218,312.563c0,1.93-1.562,3.492-3.489,3.492s-3.489-1.563-3.489-3.492c0-1.926,1.562-3.488,3.489-3.488s3.489,1.562,3.489,3.488Z"/></g><g><path d="M141.218,322.848c0,1.93-1.562,3.492-3.489,3.492s-3.489-1.563-3.489-3.492c0-1.926,1.562-3.488,3.489-3.488s3.489,1.562,3.489,3.488Z"/></g><g><path d="M141.218,333.133c0,1.93-1.562,3.488-3.489,3.488s-3.489-1.559-3.489-3.488s1.562-3.488,3.489-3.488s3.489,1.558,3.489,3.488Z"/></g><g><path d="M141.218,384.555c0,1.93-1.562,3.484-3.489,3.484s-3.489-1.555-3.489-3.484c0-1.926,1.562-3.488,3.489-3.488s3.489,1.562,3.489,3.488Z"/></g><g><circle r="3.489" transform="translate(137.729 394.84)"/></g><g><path d="M130.934,127.445c0,1.926-1.562,3.488-3.489,3.488s-3.489-1.563-3.489-3.488c0-1.93,1.562-3.492,3.489-3.492s3.489,1.563,3.489,3.492Z"/></g><g><path d="M130.934,137.73c0,1.926-1.562,3.488-3.489,3.488s-3.489-1.563-3.489-3.488c0-1.93,1.562-3.492,3.489-3.492s3.489,1.563,3.489,3.492Z"/></g><g><path d="M130.934,148.012c0,1.93-1.562,3.488-3.489,3.488s-3.489-1.559-3.489-3.488c0-1.926,1.562-3.488,3.489-3.488s3.489,1.562,3.489,3.488Z"/></g><g><path d="M130.934,158.297c0,1.93-1.562,3.492-3.489,3.492s-3.489-1.563-3.489-3.492c0-1.926,1.562-3.488,3.489-3.488s3.489,1.562,3.489,3.488Z"/></g><g><path d="M130.934,168.578c0,1.93-1.562,3.492-3.489,3.492s-3.489-1.563-3.489-3.492c0-1.922,1.562-3.484,3.489-3.484s3.489,1.562,3.489,3.484Z"/></g><g><path d="M130.934,178.867c0,1.922-1.562,3.488-3.489,3.488s-3.489-1.566-3.489-3.488c0-1.93,1.562-3.488,3.489-3.488s3.489,1.559,3.489,3.488Z"/></g><g><path d="M130.934,189.148c0,1.93-1.562,3.492-3.489,3.492s-3.489-1.563-3.489-3.492c0-1.926,1.562-3.488,3.489-3.488s3.489,1.563,3.489,3.488Z"/></g><g><path d="M130.934,199.438c0,1.926-1.562,3.488-3.489,3.488s-3.489-1.563-3.489-3.488c0-1.93,1.562-3.492,3.489-3.492s3.489,1.562,3.489,3.492Z"/></g><g><circle r="3.489" transform="translate(127.444 209.719)"/></g><g><circle r="3.489" transform="translate(127.444 220.004)"/></g><g><circle r="3.489" transform="translate(127.444 230.289)"/></g><g><path d="M130.934,240.574c0,1.926-1.562,3.488-3.489,3.488s-3.489-1.563-3.489-3.488s1.562-3.496,3.489-3.496s3.489,1.57,3.489,3.496Z"/></g><g><path d="M130.934,250.859c0,1.926-1.562,3.488-3.489,3.488s-3.489-1.563-3.489-3.488c0-1.93,1.562-3.492,3.489-3.492s3.489,1.563,3.489,3.492Z"/></g><g><path d="M130.934,261.141c0,1.93-1.562,3.492-3.489,3.492s-3.489-1.563-3.489-3.492c0-1.926,1.562-3.488,3.489-3.488s3.489,1.562,3.489,3.488Z"/></g><g><circle r="3.489" transform="translate(127.444 271.426)"/></g><g><circle r="3.489" transform="translate(127.444 281.711)"/></g><g><circle r="3.489" transform="translate(127.444 291.996)"/></g><g><path d="M130.934,302.281c0,1.922-1.562,3.488-3.489,3.488s-3.489-1.566-3.489-3.488c0-1.93,1.562-3.492,3.489-3.492s3.489,1.563,3.489,3.492Z"/></g><g><path d="M130.934,312.563c0,1.93-1.562,3.492-3.489,3.492s-3.489-1.563-3.489-3.492c0-1.926,1.562-3.488,3.489-3.488s3.489,1.562,3.489,3.488Z"/></g><g><path d="M130.934,322.848c0,1.93-1.562,3.492-3.489,3.492s-3.489-1.563-3.489-3.492c0-1.926,1.562-3.488,3.489-3.488s3.489,1.562,3.489,3.488Z"/></g><g><path d="M130.934,353.703c0,1.926-1.562,3.488-3.489,3.488s-3.489-1.563-3.489-3.488c0-1.93,1.562-3.492,3.489-3.492s3.489,1.562,3.489,3.492Z"/></g><g><path d="M130.934,363.988c0,1.926-1.562,3.488-3.489,3.488s-3.489-1.563-3.489-3.488c0-1.93,1.562-3.492,3.489-3.492s3.489,1.563,3.489,3.492Z"/></g><g><path d="M130.934,384.555c0,1.93-1.562,3.484-3.489,3.484s-3.489-1.555-3.489-3.484c0-1.926,1.562-3.488,3.489-3.488s3.489,1.562,3.489,3.488Z"/></g><g><circle r="3.489" transform="translate(127.444 394.84)"/></g><g><path d="M120.649,148.012c0,1.93-1.562,3.488-3.489,3.488s-3.489-1.559-3.489-3.488c0-1.926,1.562-3.488,3.489-3.488s3.489,1.562,3.489,3.488Z"/></g><g><path d="M120.649,158.297c0,1.93-1.562,3.492-3.489,3.492s-3.489-1.563-3.489-3.492c0-1.926,1.562-3.488,3.489-3.488s3.489,1.562,3.489,3.488Z"/></g><g><path d="M120.649,168.578c0,1.93-1.562,3.492-3.489,3.492s-3.489-1.563-3.489-3.492c0-1.922,1.562-3.484,3.489-3.484s3.489,1.562,3.489,3.484Z"/></g><g><path d="M120.649,178.867c0,1.922-1.562,3.488-3.489,3.488s-3.489-1.566-3.489-3.488c0-1.93,1.562-3.488,3.489-3.488s3.489,1.559,3.489,3.488Z"/></g><g><path d="M120.649,189.148c0,1.93-1.562,3.492-3.489,3.492s-3.489-1.563-3.489-3.492c0-1.926,1.562-3.488,3.489-3.488s3.489,1.563,3.489,3.488Z"/></g><g><path d="M120.649,199.438c0,1.926-1.562,3.488-3.489,3.488s-3.489-1.563-3.489-3.488c0-1.93,1.562-3.492,3.489-3.492s3.489,1.562,3.489,3.492Z"/></g><g><circle r="3.489" transform="translate(117.16 209.719)"/></g><g><circle r="3.489" transform="translate(117.16 220.004)"/></g><g><circle r="3.489" transform="translate(117.16 230.289)"/></g><g><path d="M120.649,240.574c0,1.926-1.562,3.488-3.489,3.488s-3.489-1.563-3.489-3.488s1.562-3.496,3.489-3.496s3.489,1.57,3.489,3.496Z"/></g><g><path d="M120.649,250.859c0,1.926-1.562,3.488-3.489,3.488s-3.489-1.563-3.489-3.488c0-1.93,1.562-3.492,3.489-3.492s3.489,1.563,3.489,3.492Z"/></g><g><path d="M120.649,261.141c0,1.93-1.562,3.492-3.489,3.492s-3.489-1.563-3.489-3.492c0-1.926,1.562-3.488,3.489-3.488s3.489,1.562,3.489,3.488Z"/></g><g><circle r="3.489" transform="translate(117.16 271.426)"/></g><g><circle r="3.489" transform="translate(117.16 281.711)"/></g><g><circle r="3.489" transform="translate(117.16 291.996)"/></g><g><path d="M120.649,302.281c0,1.922-1.562,3.488-3.489,3.488s-3.489-1.566-3.489-3.488c0-1.93,1.562-3.492,3.489-3.492s3.489,1.563,3.489,3.492Z"/></g><g><path d="M120.649,312.563c0,1.93-1.562,3.492-3.489,3.492s-3.489-1.563-3.489-3.492c0-1.926,1.562-3.488,3.489-3.488s3.489,1.562,3.489,3.488Z"/></g><g><path d="M120.649,322.848c0,1.93-1.562,3.492-3.489,3.492s-3.489-1.563-3.489-3.492c0-1.926,1.562-3.488,3.489-3.488s3.489,1.562,3.489,3.488Z"/></g><g><path d="M120.649,333.133c0,1.93-1.562,3.488-3.489,3.488s-3.489-1.559-3.489-3.488s1.562-3.488,3.489-3.488s3.489,1.558,3.489,3.488Z"/></g><g><path d="M120.649,343.414c0,1.93-1.562,3.492-3.489,3.492s-3.489-1.563-3.489-3.492c0-1.922,1.562-3.484,3.489-3.484s3.489,1.562,3.489,3.484Z"/></g><g><path d="M120.649,353.703c0,1.926-1.562,3.488-3.489,3.488s-3.489-1.563-3.489-3.488c0-1.93,1.562-3.492,3.489-3.492s3.489,1.562,3.489,3.492Z"/></g><g><path d="M120.649,363.988c0,1.926-1.562,3.488-3.489,3.488s-3.489-1.563-3.489-3.488c0-1.93,1.562-3.492,3.489-3.492s3.489,1.563,3.489,3.492Z"/></g><g><path d="M120.649,374.273c0,1.926-1.562,3.488-3.489,3.488s-3.489-1.563-3.489-3.488c0-1.93,1.562-3.492,3.489-3.492s3.489,1.563,3.489,3.492Z"/></g><g><path d="M120.649,384.555c0,1.93-1.562,3.484-3.489,3.484s-3.489-1.555-3.489-3.484c0-1.926,1.562-3.488,3.489-3.488s3.489,1.562,3.489,3.488Z"/></g><g><circle r="3.489" transform="translate(117.16 394.84)"/></g><g><path d="M120.649,405.121c0,1.93-1.562,3.492-3.489,3.492s-3.489-1.563-3.489-3.492c0-1.926,1.562-3.488,3.489-3.488s3.489,1.562,3.489,3.488Z"/></g><g><path d="M110.365,148.012c0,1.93-1.562,3.488-3.489,3.488s-3.489-1.559-3.489-3.488c0-1.926,1.562-3.488,3.489-3.488s3.489,1.562,3.489,3.488Z"/></g><g><path d="M110.365,158.297c0,1.93-1.562,3.492-3.489,3.492s-3.489-1.563-3.489-3.492c0-1.926,1.562-3.488,3.489-3.488s3.489,1.562,3.489,3.488Z"/></g><g><path d="M110.365,168.578c0,1.93-1.562,3.492-3.489,3.492s-3.489-1.563-3.489-3.492c0-1.922,1.562-3.484,3.489-3.484s3.489,1.562,3.489,3.484Z"/></g><g><path d="M110.365,178.867c0,1.922-1.562,3.488-3.489,3.488s-3.489-1.566-3.489-3.488c0-1.93,1.562-3.488,3.489-3.488s3.489,1.559,3.489,3.488Z"/></g><g><path d="M110.365,189.148c0,1.93-1.562,3.492-3.489,3.492s-3.489-1.563-3.489-3.492c0-1.926,1.562-3.488,3.489-3.488s3.489,1.563,3.489,3.488Z"/></g><g><circle r="3.489" transform="translate(106.875 209.719)"/></g><g><circle r="3.489" transform="translate(106.875 220.004)"/></g><g><circle r="3.489" transform="translate(106.875 230.289)"/></g><g><path d="M110.365,240.574c0,1.926-1.562,3.488-3.489,3.488s-3.489-1.563-3.489-3.488s1.562-3.496,3.489-3.496s3.489,1.57,3.489,3.496Z"/></g><g><path d="M110.365,250.859c0,1.926-1.562,3.488-3.489,3.488s-3.489-1.563-3.489-3.488c0-1.93,1.562-3.492,3.489-3.492s3.489,1.563,3.489,3.492Z"/></g><g><path d="M110.365,261.141c0,1.93-1.562,3.492-3.489,3.492s-3.489-1.563-3.489-3.492c0-1.926,1.562-3.488,3.489-3.488s3.489,1.562,3.489,3.488Z"/></g><g><circle r="3.489" transform="translate(106.875 271.426)"/></g><g><circle r="3.489" transform="translate(106.875 281.711)"/></g><g><circle r="3.489" transform="translate(106.875 291.996)"/></g><g><path d="M110.365,302.281c0,1.922-1.562,3.488-3.489,3.488s-3.489-1.566-3.489-3.488c0-1.93,1.562-3.492,3.489-3.492s3.489,1.563,3.489,3.492Z"/></g><g><path d="M110.365,312.563c0,1.93-1.562,3.492-3.489,3.492s-3.489-1.563-3.489-3.492c0-1.926,1.562-3.488,3.489-3.488s3.489,1.562,3.489,3.488Z"/></g><g><path d="M110.365,322.848c0,1.93-1.562,3.492-3.489,3.492s-3.489-1.563-3.489-3.492c0-1.926,1.562-3.488,3.489-3.488s3.489,1.562,3.489,3.488Z"/></g><g><path d="M110.365,333.133c0,1.93-1.562,3.488-3.489,3.488s-3.489-1.559-3.489-3.488s1.562-3.488,3.489-3.488s3.489,1.558,3.489,3.488Z"/></g><g><path d="M110.365,343.414c0,1.93-1.562,3.492-3.489,3.492s-3.489-1.563-3.489-3.492c0-1.922,1.562-3.484,3.489-3.484s3.489,1.562,3.489,3.484Z"/></g><g><path d="M110.365,353.703c0,1.926-1.562,3.488-3.489,3.488s-3.489-1.563-3.489-3.488c0-1.93,1.562-3.492,3.489-3.492s3.489,1.562,3.489,3.492Z"/></g><g><path d="M110.365,363.988c0,1.926-1.562,3.488-3.489,3.488s-3.489-1.563-3.489-3.488c0-1.93,1.562-3.492,3.489-3.492s3.489,1.563,3.489,3.492Z"/></g><g><path d="M110.365,374.273c0,1.926-1.562,3.488-3.489,3.488s-3.489-1.563-3.489-3.488c0-1.93,1.562-3.492,3.489-3.492s3.489,1.563,3.489,3.492Z"/></g><g><path d="M110.365,384.555c0,1.93-1.562,3.484-3.489,3.484s-3.489-1.555-3.489-3.484c0-1.926,1.562-3.488,3.489-3.488s3.489,1.562,3.489,3.488Z"/></g><g><circle r="3.489" transform="translate(106.875 394.84)"/></g><g><path d="M110.365,405.121c0,1.93-1.562,3.492-3.489,3.492s-3.489-1.563-3.489-3.492c0-1.926,1.562-3.488,3.489-3.488s3.489,1.562,3.489,3.488Z"/></g><g><path d="M100.081,148.012c0,1.93-1.562,3.488-3.489,3.488s-3.489-1.559-3.489-3.488c0-1.926,1.562-3.488,3.489-3.488s3.489,1.562,3.489,3.488Z"/></g><g><path d="M100.081,158.297c0,1.93-1.562,3.492-3.489,3.492s-3.489-1.563-3.489-3.492c0-1.926,1.562-3.488,3.489-3.488s3.489,1.562,3.489,3.488Z"/></g><g><path d="M100.081,199.438c0,1.926-1.562,3.488-3.489,3.488s-3.489-1.563-3.489-3.488c0-1.93,1.562-3.492,3.489-3.492s3.489,1.562,3.489,3.492Z"/></g><g><circle r="3.489" transform="translate(96.591 209.719)"/></g><g><circle r="3.489" transform="translate(96.591 220.004)"/></g><g><circle r="3.489" transform="translate(96.591 230.289)"/></g><g><path d="M100.081,240.574c0,1.926-1.562,3.488-3.489,3.488s-3.489-1.563-3.489-3.488s1.562-3.496,3.489-3.496s3.489,1.57,3.489,3.496Z"/></g><g><path d="M100.081,250.859c0,1.926-1.562,3.488-3.489,3.488s-3.489-1.563-3.489-3.488c0-1.93,1.562-3.492,3.489-3.492s3.489,1.563,3.489,3.492Z"/></g><g><path d="M100.081,261.141c0,1.93-1.562,3.492-3.489,3.492s-3.489-1.563-3.489-3.492c0-1.926,1.562-3.488,3.489-3.488s3.489,1.562,3.489,3.488Z"/></g><g><circle r="3.489" transform="translate(96.591 271.426)"/></g><g><circle r="3.489" transform="translate(96.591 281.711)"/></g><g><circle r="3.489" transform="translate(96.591 291.996)"/></g><g><path d="M100.081,302.281c0,1.922-1.562,3.488-3.489,3.488s-3.489-1.566-3.489-3.488c0-1.93,1.562-3.492,3.489-3.492s3.489,1.563,3.489,3.492Z"/></g><g><path d="M100.081,312.563c0,1.93-1.562,3.492-3.489,3.492s-3.489-1.563-3.489-3.492c0-1.926,1.562-3.488,3.489-3.488s3.489,1.562,3.489,3.488Z"/></g><g><path d="M100.081,322.848c0,1.93-1.562,3.492-3.489,3.492s-3.489-1.563-3.489-3.492c0-1.926,1.562-3.488,3.489-3.488s3.489,1.562,3.489,3.488Z"/></g><g><path d="M100.081,333.133c0,1.93-1.562,3.488-3.489,3.488s-3.489-1.559-3.489-3.488s1.562-3.488,3.489-3.488s3.489,1.558,3.489,3.488Z"/></g><g><path d="M100.081,343.414c0,1.93-1.562,3.492-3.489,3.492s-3.489-1.563-3.489-3.492c0-1.922,1.562-3.484,3.489-3.484s3.489,1.562,3.489,3.484Z"/></g><g><path d="M100.081,353.703c0,1.926-1.562,3.488-3.489,3.488s-3.489-1.563-3.489-3.488c0-1.93,1.562-3.492,3.489-3.492s3.489,1.562,3.489,3.492Z"/></g><g><path d="M100.081,363.988c0,1.926-1.562,3.488-3.489,3.488s-3.489-1.563-3.489-3.488c0-1.93,1.562-3.492,3.489-3.492s3.489,1.563,3.489,3.492Z"/></g><g><path d="M100.081,374.273c0,1.926-1.562,3.488-3.489,3.488s-3.489-1.563-3.489-3.488c0-1.93,1.562-3.492,3.489-3.492s3.489,1.563,3.489,3.492Z"/></g><g><path d="M100.081,384.555c0,1.93-1.562,3.484-3.489,3.484s-3.489-1.555-3.489-3.484c0-1.926,1.562-3.488,3.489-3.488s3.489,1.562,3.489,3.488Z"/></g><g><circle r="3.489" transform="translate(96.591 394.84)"/></g><g><path d="M100.081,405.121c0,1.93-1.562,3.492-3.489,3.492s-3.489-1.563-3.489-3.492c0-1.926,1.562-3.488,3.489-3.488s3.489,1.562,3.489,3.488Z"/></g><g><path d="M89.796,148.012c0,1.93-1.562,3.488-3.489,3.488s-3.489-1.559-3.489-3.488c0-1.926,1.562-3.488,3.489-3.488s3.489,1.562,3.489,3.488Z"/></g><g><path d="M89.796,158.297c0,1.93-1.562,3.492-3.489,3.492s-3.489-1.563-3.489-3.492c0-1.926,1.562-3.488,3.489-3.488s3.489,1.562,3.489,3.488Z"/></g><g><path d="M89.796,189.148c0,1.93-1.562,3.492-3.489,3.492s-3.489-1.563-3.489-3.492c0-1.926,1.562-3.488,3.489-3.488s3.489,1.563,3.489,3.488Z"/></g><g><path d="M89.796,199.438c0,1.926-1.562,3.488-3.489,3.488s-3.489-1.563-3.489-3.488c0-1.93,1.562-3.492,3.489-3.492s3.489,1.562,3.489,3.492Z"/></g><g><circle r="3.489" transform="translate(86.307 209.719)"/></g><g><circle r="3.489" transform="translate(86.307 220.004)"/></g><g><circle r="3.489" transform="translate(86.307 230.289)"/></g><g><path d="M89.796,240.574c0,1.926-1.562,3.488-3.489,3.488s-3.489-1.563-3.489-3.488s1.562-3.496,3.489-3.496s3.489,1.57,3.489,3.496Z"/></g><g><path d="M89.796,250.859c0,1.926-1.562,3.488-3.489,3.488s-3.489-1.563-3.489-3.488c0-1.93,1.562-3.492,3.489-3.492s3.489,1.563,3.489,3.492Z"/></g><g><path d="M89.796,261.141c0,1.93-1.562,3.492-3.489,3.492s-3.489-1.563-3.489-3.492c0-1.926,1.562-3.488,3.489-3.488s3.489,1.562,3.489,3.488Z"/></g><g><circle r="3.489" transform="translate(86.307 271.426)"/></g><g><circle r="3.489" transform="translate(86.307 281.711)"/></g><g><circle r="3.489" transform="translate(86.307 291.996)"/></g><g><path d="M89.796,302.281c0,1.922-1.562,3.488-3.489,3.488s-3.489-1.566-3.489-3.488c0-1.93,1.562-3.492,3.489-3.492s3.489,1.563,3.489,3.492Z"/></g><g><path d="M89.796,312.563c0,1.93-1.562,3.492-3.489,3.492s-3.489-1.563-3.489-3.492c0-1.926,1.562-3.488,3.489-3.488s3.489,1.562,3.489,3.488Z"/></g><g><path d="M89.796,322.848c0,1.93-1.562,3.492-3.489,3.492s-3.489-1.563-3.489-3.492c0-1.926,1.562-3.488,3.489-3.488s3.489,1.562,3.489,3.488Z"/></g><g><path d="M89.796,333.133c0,1.93-1.562,3.488-3.489,3.488s-3.489-1.559-3.489-3.488s1.562-3.488,3.489-3.488s3.489,1.558,3.489,3.488Z"/></g><g><path d="M89.796,343.414c0,1.93-1.562,3.492-3.489,3.492s-3.489-1.563-3.489-3.492c0-1.922,1.562-3.484,3.489-3.484s3.489,1.562,3.489,3.484Z"/></g><g><path d="M89.796,353.703c0,1.926-1.562,3.488-3.489,3.488s-3.489-1.563-3.489-3.488c0-1.93,1.562-3.492,3.489-3.492s3.489,1.562,3.489,3.492Z"/></g><g><path d="M89.796,363.988c0,1.926-1.562,3.488-3.489,3.488s-3.489-1.563-3.489-3.488c0-1.93,1.562-3.492,3.489-3.492s3.489,1.563,3.489,3.492Z"/></g><g><path d="M89.796,374.273c0,1.926-1.562,3.488-3.489,3.488s-3.489-1.563-3.489-3.488c0-1.93,1.562-3.492,3.489-3.492s3.489,1.563,3.489,3.492Z"/></g><g><path d="M89.796,384.555c0,1.93-1.562,3.484-3.489,3.484s-3.489-1.555-3.489-3.484c0-1.926,1.562-3.488,3.489-3.488s3.489,1.562,3.489,3.488Z"/></g><g><circle r="3.489" transform="translate(86.307 394.84)"/></g><g><path d="M79.512,158.297c0,1.93-1.563,3.492-3.489,3.492-1.928,0-3.49-1.563-3.49-3.492c0-1.926,1.562-3.488,3.49-3.488c1.926,0,3.489,1.562,3.489,3.488Z"/></g><g><path d="M79.512,168.578c0,1.93-1.563,3.492-3.489,3.492-1.928,0-3.49-1.563-3.49-3.492c0-1.922,1.562-3.484,3.49-3.484c1.926,0,3.489,1.562,3.489,3.484Z"/></g><g><path d="M79.512,178.867c0,1.922-1.563,3.488-3.489,3.488-1.928,0-3.49-1.566-3.49-3.488c0-1.93,1.562-3.488,3.49-3.488c1.926,0,3.489,1.559,3.489,3.488Z"/></g><g><path d="M79.512,189.148c0,1.93-1.563,3.492-3.489,3.492-1.928,0-3.49-1.563-3.49-3.492c0-1.926,1.562-3.488,3.49-3.488c1.926,0,3.489,1.563,3.489,3.488Z"/></g><g><path d="M79.512,199.438c0,1.926-1.563,3.488-3.489,3.488-1.928,0-3.49-1.563-3.49-3.488c0-1.93,1.562-3.492,3.49-3.492c1.926-.001,3.489,1.562,3.489,3.492Z"/></g><g><circle r="3.49" transform="translate(76.022 209.719)"/></g><g><circle r="3.49" transform="translate(76.022 220.004)"/></g><g><circle r="3.49" transform="translate(76.022 230.289)"/></g><g><path d="M79.512,240.574c0,1.926-1.563,3.488-3.489,3.488-1.928,0-3.49-1.563-3.49-3.488s1.562-3.496,3.49-3.496c1.926,0,3.489,1.57,3.489,3.496Z"/></g><g><path d="M79.512,250.859c0,1.926-1.563,3.488-3.489,3.488-1.928,0-3.49-1.563-3.49-3.488c0-1.93,1.562-3.492,3.49-3.492c1.926,0,3.489,1.563,3.489,3.492Z"/></g><g><path d="M79.512,261.141c0,1.93-1.563,3.492-3.489,3.492-1.928,0-3.49-1.563-3.49-3.492c0-1.926,1.562-3.488,3.49-3.488c1.926-.001,3.489,1.562,3.489,3.488Z"/></g><g><circle r="3.49" transform="translate(76.022 271.426)"/></g><g><circle r="3.49" transform="translate(76.022 281.711)"/></g><g><circle r="3.49" transform="translate(76.022 291.996)"/></g><g><path d="M79.512,302.281c0,1.922-1.563,3.488-3.489,3.488-1.928,0-3.49-1.566-3.49-3.488c0-1.93,1.562-3.492,3.49-3.492c1.926,0,3.489,1.563,3.489,3.492Z"/></g><g><path d="M79.512,312.563c0,1.93-1.563,3.492-3.489,3.492-1.928,0-3.49-1.563-3.49-3.492c0-1.926,1.562-3.488,3.49-3.488c1.926-.001,3.489,1.562,3.489,3.488Z"/></g><g><path d="M79.512,322.848c0,1.93-1.563,3.492-3.489,3.492-1.928,0-3.49-1.563-3.49-3.492c0-1.926,1.562-3.488,3.49-3.488c1.926-.001,3.489,1.562,3.489,3.488Z"/></g><g><path d="M79.512,333.133c0,1.93-1.563,3.488-3.489,3.488-1.928,0-3.49-1.559-3.49-3.488s1.562-3.488,3.49-3.488c1.926,0,3.489,1.558,3.489,3.488Z"/></g><g><path d="M79.512,343.414c0,1.93-1.563,3.492-3.489,3.492-1.928,0-3.49-1.563-3.49-3.492c0-1.922,1.562-3.484,3.49-3.484c1.926,0,3.489,1.562,3.489,3.484Z"/></g><g><path d="M79.512,353.703c0,1.926-1.563,3.488-3.489,3.488-1.928,0-3.49-1.563-3.49-3.488c0-1.93,1.562-3.492,3.49-3.492c1.926,0,3.489,1.562,3.489,3.492Z"/></g><g><path d="M79.512,363.988c0,1.926-1.563,3.488-3.489,3.488-1.928,0-3.49-1.563-3.49-3.488c0-1.93,1.562-3.492,3.49-3.492c1.926,0,3.489,1.563,3.489,3.492Z"/></g><g><path d="M79.512,374.273c0,1.926-1.563,3.488-3.489,3.488-1.928,0-3.49-1.563-3.49-3.488c0-1.93,1.562-3.492,3.49-3.492c1.926,0,3.489,1.563,3.489,3.492Z"/></g><g><path d="M79.512,384.555c0,1.93-1.563,3.484-3.489,3.484-1.928,0-3.49-1.555-3.49-3.484c0-1.926,1.562-3.488,3.49-3.488c1.926-.001,3.489,1.562,3.489,3.488Z"/></g><g><circle r="3.49" transform="translate(76.022 394.84)"/></g><g><path d="M69.227,148.012c0,1.93-1.562,3.488-3.489,3.488s-3.489-1.559-3.489-3.488c0-1.926,1.562-3.488,3.489-3.488s3.489,1.562,3.489,3.488Z"/></g><g><path d="M69.227,158.297c0,1.93-1.562,3.492-3.489,3.492s-3.489-1.563-3.489-3.492c0-1.926,1.562-3.488,3.489-3.488s3.489,1.562,3.489,3.488Z"/></g><g><path d="M69.227,168.578c0,1.93-1.562,3.492-3.489,3.492s-3.489-1.563-3.489-3.492c0-1.922,1.562-3.484,3.489-3.484s3.489,1.562,3.489,3.484Z"/></g><g><path d="M69.227,178.867c0,1.922-1.562,3.488-3.489,3.488s-3.489-1.566-3.489-3.488c0-1.93,1.562-3.488,3.489-3.488s3.489,1.559,3.489,3.488Z"/></g><g><path d="M69.227,189.148c0,1.93-1.562,3.492-3.489,3.492s-3.489-1.563-3.489-3.492c0-1.926,1.562-3.488,3.489-3.488s3.489,1.563,3.489,3.488Z"/></g><g><path d="M69.227,199.438c0,1.926-1.562,3.488-3.489,3.488s-3.489-1.563-3.489-3.488c0-1.93,1.562-3.492,3.489-3.492s3.489,1.562,3.489,3.492Z"/></g><g><circle r="3.489" transform="translate(65.738 230.289)"/></g><g><path d="M69.227,240.574c0,1.926-1.562,3.488-3.489,3.488s-3.489-1.563-3.489-3.488s1.562-3.496,3.489-3.496s3.489,1.57,3.489,3.496Z"/></g><g><path d="M69.227,250.859c0,1.926-1.562,3.488-3.489,3.488s-3.489-1.563-3.489-3.488c0-1.93,1.562-3.492,3.489-3.492s3.489,1.563,3.489,3.492Z"/></g><g><path d="M69.227,261.141c0,1.93-1.562,3.492-3.489,3.492s-3.489-1.563-3.489-3.492c0-1.926,1.562-3.488,3.489-3.488s3.489,1.562,3.489,3.488Z"/></g><g><circle r="3.489" transform="translate(65.738 271.426)"/></g><g><circle r="3.489" transform="translate(65.738 281.711)"/></g><g><circle r="3.489" transform="translate(65.738 291.996)"/></g><g><path d="M69.227,302.281c0,1.922-1.562,3.488-3.489,3.488s-3.489-1.566-3.489-3.488c0-1.93,1.562-3.492,3.489-3.492s3.489,1.563,3.489,3.492Z"/></g><g><path d="M69.227,312.563c0,1.93-1.562,3.492-3.489,3.492s-3.489-1.563-3.489-3.492c0-1.926,1.562-3.488,3.489-3.488s3.489,1.562,3.489,3.488Z"/></g><g><path d="M69.227,322.848c0,1.93-1.562,3.492-3.489,3.492s-3.489-1.563-3.489-3.492c0-1.926,1.562-3.488,3.489-3.488s3.489,1.562,3.489,3.488Z"/></g><g><path d="M69.227,333.133c0,1.93-1.562,3.488-3.489,3.488s-3.489-1.559-3.489-3.488s1.562-3.488,3.489-3.488s3.489,1.558,3.489,3.488Z"/></g><g><path d="M69.227,343.414c0,1.93-1.562,3.492-3.489,3.492s-3.489-1.563-3.489-3.492c0-1.922,1.562-3.484,3.489-3.484s3.489,1.562,3.489,3.484Z"/></g><g><path d="M69.227,353.703c0,1.926-1.562,3.488-3.489,3.488s-3.489-1.563-3.489-3.488c0-1.93,1.562-3.492,3.489-3.492s3.489,1.562,3.489,3.492Z"/></g><g><path d="M69.227,363.988c0,1.926-1.562,3.488-3.489,3.488s-3.489-1.563-3.489-3.488c0-1.93,1.562-3.492,3.489-3.492s3.489,1.563,3.489,3.492Z"/></g><g><path d="M69.227,374.273c0,1.926-1.562,3.488-3.489,3.488s-3.489-1.563-3.489-3.488c0-1.93,1.562-3.492,3.489-3.492s3.489,1.563,3.489,3.492Z"/></g><g><path d="M69.227,384.555c0,1.93-1.562,3.484-3.489,3.484s-3.489-1.555-3.489-3.484c0-1.926,1.562-3.488,3.489-3.488s3.489,1.562,3.489,3.488Z"/></g><g><circle r="3.489" transform="translate(65.738 394.84)"/></g><g><path d="M58.942,158.297c0,1.93-1.562,3.492-3.489,3.492s-3.489-1.563-3.489-3.492c0-1.926,1.562-3.488,3.489-3.488s3.489,1.562,3.489,3.488Z"/></g><g><path d="M58.942,168.578c0,1.93-1.562,3.492-3.489,3.492s-3.489-1.563-3.489-3.492c0-1.922,1.562-3.484,3.489-3.484s3.489,1.562,3.489,3.484Z"/></g><g><path d="M58.942,178.867c0,1.922-1.562,3.488-3.489,3.488s-3.489-1.566-3.489-3.488c0-1.93,1.562-3.488,3.489-3.488s3.489,1.559,3.489,3.488Z"/></g><g><path d="M58.942,189.148c0,1.93-1.562,3.492-3.489,3.492s-3.489-1.563-3.489-3.492c0-1.926,1.562-3.488,3.489-3.488s3.489,1.563,3.489,3.488Z"/></g><g><path d="M58.942,199.438c0,1.926-1.562,3.488-3.489,3.488s-3.489-1.563-3.489-3.488c0-1.93,1.562-3.492,3.489-3.492s3.489,1.562,3.489,3.492Z"/></g><g><circle r="3.489" transform="translate(55.453 209.719)"/></g><g><circle r="3.489" transform="translate(55.453 220.004)"/></g><g><circle r="3.489" transform="translate(55.453 230.289)"/></g><g><path d="M58.942,240.574c0,1.926-1.562,3.488-3.489,3.488s-3.489-1.563-3.489-3.488s1.562-3.496,3.489-3.496s3.489,1.57,3.489,3.496Z"/></g><g><path d="M58.942,250.859c0,1.926-1.562,3.488-3.489,3.488s-3.489-1.563-3.489-3.488c0-1.93,1.562-3.492,3.489-3.492s3.489,1.563,3.489,3.492Z"/></g><g><path d="M58.942,261.141c0,1.93-1.562,3.492-3.489,3.492s-3.489-1.563-3.489-3.492c0-1.926,1.562-3.488,3.489-3.488s3.489,1.562,3.489,3.488Z"/></g><g><circle r="3.489" transform="translate(55.453 271.426)"/></g><g><circle r="3.489" transform="translate(55.453 281.711)"/></g><g><circle r="3.489" transform="translate(55.453 291.996)"/></g><g><path d="M58.942,302.281c0,1.922-1.562,3.488-3.489,3.488s-3.489-1.566-3.489-3.488c0-1.93,1.562-3.492,3.489-3.492s3.489,1.563,3.489,3.492Z"/></g><g><path d="M58.942,312.563c0,1.93-1.562,3.492-3.489,3.492s-3.489-1.563-3.489-3.492c0-1.926,1.562-3.488,3.489-3.488s3.489,1.562,3.489,3.488Z"/></g><g><path d="M58.942,322.848c0,1.93-1.562,3.492-3.489,3.492s-3.489-1.563-3.489-3.492c0-1.926,1.562-3.488,3.489-3.488s3.489,1.562,3.489,3.488Z"/></g><g><path d="M58.942,333.133c0,1.93-1.562,3.488-3.489,3.488s-3.489-1.559-3.489-3.488s1.562-3.488,3.489-3.488s3.489,1.558,3.489,3.488Z"/></g><g><path d="M58.942,343.414c0,1.93-1.562,3.492-3.489,3.492s-3.489-1.563-3.489-3.492c0-1.922,1.562-3.484,3.489-3.484s3.489,1.562,3.489,3.484Z"/></g><g><path d="M58.942,374.273c0,1.926-1.562,3.488-3.489,3.488s-3.489-1.563-3.489-3.488c0-1.93,1.562-3.492,3.489-3.492s3.489,1.563,3.489,3.492Z"/></g><g><path d="M48.658,178.867c0,1.922-1.562,3.488-3.489,3.488s-3.489-1.566-3.489-3.488c0-1.93,1.562-3.488,3.489-3.488s3.489,1.559,3.489,3.488Z"/></g><g><path d="M48.658,189.148c0,1.93-1.562,3.492-3.489,3.492s-3.489-1.563-3.489-3.492c0-1.926,1.562-3.488,3.489-3.488s3.489,1.563,3.489,3.488Z"/></g><g><path d="M48.658,199.438c0,1.926-1.562,3.488-3.489,3.488s-3.489-1.563-3.489-3.488c0-1.93,1.562-3.492,3.489-3.492s3.489,1.562,3.489,3.492Z"/></g><g><circle r="3.489" transform="translate(45.169 209.719)"/></g><g><circle r="3.489" transform="translate(45.169 220.004)"/></g><g><circle r="3.489" transform="translate(45.169 230.289)"/></g><g><path d="M48.658,240.574c0,1.926-1.562,3.488-3.489,3.488s-3.489-1.563-3.489-3.488s1.562-3.496,3.489-3.496s3.489,1.57,3.489,3.496Z"/></g><g><path d="M48.658,250.859c0,1.926-1.562,3.488-3.489,3.488s-3.489-1.563-3.489-3.488c0-1.93,1.562-3.492,3.489-3.492s3.489,1.563,3.489,3.492Z"/></g><g><path d="M48.658,261.141c0,1.93-1.562,3.492-3.489,3.492s-3.489-1.563-3.489-3.492c0-1.926,1.562-3.488,3.489-3.488s3.489,1.562,3.489,3.488Z"/></g><g><circle r="3.489" transform="translate(45.169 271.426)"/></g><g><circle r="3.489" transform="translate(45.169 281.711)"/></g><g><circle r="3.489" transform="translate(45.169 291.996)"/></g><g><path d="M48.658,302.281c0,1.922-1.562,3.488-3.489,3.488s-3.489-1.566-3.489-3.488c0-1.93,1.562-3.492,3.489-3.492s3.489,1.563,3.489,3.492Z"/></g><g><path d="M48.658,312.563c0,1.93-1.562,3.492-3.489,3.492s-3.489-1.563-3.489-3.492c0-1.926,1.562-3.488,3.489-3.488s3.489,1.562,3.489,3.488Z"/></g><g><path d="M48.658,322.848c0,1.93-1.562,3.492-3.489,3.492s-3.489-1.563-3.489-3.492c0-1.926,1.562-3.488,3.489-3.488s3.489,1.562,3.489,3.488Z"/></g><g><path d="M48.658,333.133c0,1.93-1.562,3.488-3.489,3.488s-3.489-1.559-3.489-3.488s1.562-3.488,3.489-3.488s3.489,1.558,3.489,3.488Z"/></g><g><circle r="3.489" transform="translate(34.884 209.719)"/></g><g><circle r="3.489" transform="translate(34.884 220.004)"/></g><g><circle r="3.489" transform="translate(34.884 230.289)"/></g><g><path d="M38.374,240.574c0,1.926-1.562,3.488-3.489,3.488s-3.489-1.563-3.489-3.488s1.562-3.496,3.489-3.496s3.489,1.57,3.489,3.496Z"/></g><g><path d="M38.374,250.859c0,1.926-1.562,3.488-3.489,3.488s-3.489-1.563-3.489-3.488c0-1.93,1.562-3.492,3.489-3.492s3.489,1.563,3.489,3.492Z"/></g><g><path d="M38.374,261.141c0,1.93-1.562,3.492-3.489,3.492s-3.489-1.563-3.489-3.492c0-1.926,1.562-3.488,3.489-3.488s3.489,1.562,3.489,3.488Z"/></g><g><circle r="3.489" transform="translate(34.884 271.426)"/></g><g><circle r="3.489" transform="translate(34.884 281.711)"/></g><g><circle r="3.489" transform="translate(34.884 291.996)"/></g><g><path d="M38.374,302.281c0,1.922-1.562,3.488-3.489,3.488s-3.489-1.566-3.489-3.488c0-1.93,1.562-3.492,3.489-3.492s3.489,1.563,3.489,3.492Z"/></g><g><path d="M38.374,312.563c0,1.93-1.562,3.492-3.489,3.492s-3.489-1.563-3.489-3.492c0-1.926,1.562-3.488,3.489-3.488s3.489,1.562,3.489,3.488Z"/></g><g><path d="M38.374,322.848c0,1.93-1.562,3.492-3.489,3.492s-3.489-1.563-3.489-3.492c0-1.926,1.562-3.488,3.489-3.488s3.489,1.562,3.489,3.488Z"/></g><g><path d="M38.374,333.133c0,1.93-1.562,3.488-3.489,3.488s-3.489-1.559-3.489-3.488s1.562-3.488,3.489-3.488s3.489,1.558,3.489,3.488Z"/></g><g><path d="M285.2,415.41c0,1.926-1.562,3.488-3.489,3.488s-3.489-1.563-3.489-3.488c0-1.93,1.563-3.488,3.489-3.488c1.928,0,3.489,1.558,3.489,3.488Z"/></g><g><path d="M274.916,415.41c0,1.926-1.562,3.488-3.489,3.488s-3.489-1.563-3.489-3.488c0-1.93,1.563-3.488,3.489-3.488c1.927,0,3.489,1.558,3.489,3.488Z"/></g><g><path d="M274.916,425.695c0,1.926-1.562,3.484-3.489,3.484s-3.489-1.559-3.489-3.484c0-1.93,1.563-3.492,3.489-3.492c1.927,0,3.489,1.563,3.489,3.492Z"/></g><g><path d="M274.916,435.977c0,1.93-1.562,3.492-3.489,3.492s-3.489-1.563-3.489-3.492c0-1.926,1.563-3.488,3.489-3.488c1.927-.001,3.489,1.562,3.489,3.488Z"/></g><g><path d="M264.632,415.41c0,1.926-1.563,3.488-3.489,3.488-1.928,0-3.489-1.563-3.489-3.488c0-1.93,1.562-3.488,3.489-3.488c1.926,0,3.489,1.558,3.489,3.488Z"/></g><g><path d="M264.632,425.695c0,1.926-1.563,3.484-3.489,3.484-1.928,0-3.489-1.559-3.489-3.484c0-1.93,1.562-3.492,3.489-3.492c1.926,0,3.489,1.563,3.489,3.492Z"/></g><g><path d="M254.347,415.41c0,1.926-1.562,3.488-3.489,3.488s-3.489-1.563-3.489-3.488c0-1.93,1.562-3.488,3.489-3.488s3.489,1.558,3.489,3.488Z"/></g><g><path d="M254.347,425.695c0,1.926-1.562,3.484-3.489,3.484s-3.489-1.559-3.489-3.484c0-1.93,1.562-3.492,3.489-3.492s3.489,1.563,3.489,3.492Z"/></g><g><path d="M244.063,415.41c0,1.926-1.563,3.488-3.489,3.488-1.927,0-3.49-1.563-3.49-3.488c0-1.93,1.563-3.488,3.49-3.488c1.926,0,3.489,1.558,3.489,3.488Z"/></g><g><path d="M244.063,425.695c0,1.926-1.563,3.484-3.489,3.484-1.927,0-3.49-1.559-3.49-3.484c0-1.93,1.563-3.492,3.49-3.492c1.926,0,3.489,1.563,3.489,3.492Z"/></g><g><path d="M233.778,415.41c0,1.926-1.562,3.488-3.489,3.488s-3.489-1.563-3.489-3.488c0-1.93,1.562-3.488,3.489-3.488s3.489,1.558,3.489,3.488Z"/></g><g><path d="M223.494,415.41c0,1.926-1.563,3.488-3.49,3.488s-3.489-1.563-3.489-3.488c0-1.93,1.562-3.488,3.489-3.488s3.49,1.558,3.49,3.488Z"/></g><g><path d="M202.925,415.41c0,1.926-1.563,3.488-3.49,3.488s-3.489-1.563-3.489-3.488c0-1.93,1.562-3.488,3.489-3.488s3.49,1.558,3.49,3.488Z"/></g></g></svg>
