<svg xmlns="http://www.w3.org/2000/svg" width="35" height="35" viewBox="0 0 35 35"><g transform="translate(-0.001 -80.001)"><path d="M.917,107.451a3.128,3.128,0,0,0,0,4.423l2.211,2.211a3.128,3.128,0,0,0,4.423,0l9.95-9.95L10.867,97.5ZM34.085,83.128l-2.211-2.211a3.128,3.128,0,0,0-4.423,0l-9.95,9.95L24.135,97.5l9.95-9.95a3.128,3.128,0,0,0,0-4.423Z" transform="translate(0)" fill="#f7d952"/><path d="M34.085,107.451a3.128,3.128,0,0,1,0,4.423l-2.211,2.211a3.128,3.128,0,0,1-4.423,0L.917,87.551a3.128,3.128,0,0,1,0-4.423l2.211-2.211a3.128,3.128,0,0,1,4.423,0Z" transform="translate(0 0)" fill="#f5d027"/></g></svg>