<svg xmlns="http://www.w3.org/2000/svg" width="53.646" height="34.53" viewBox="0 0 53.646 34.53"><g transform="translate(149.615 -24.988) rotate(90)"><path d="M42.418,256l9.464,9.468L35.768,281.643a3.982,3.982,0,0,1-5.631.03l-.03-.03-3.773-3.8a4.009,4.009,0,0,1,0-5.672Z" transform="translate(-0.142 -133.209)" fill="#f7d952"/><path d="M29.948,97.159l-3.784,3.811a4.009,4.009,0,0,0,0,5.672L51.741,132.26l6.6-6.62.01-.01a4.022,4.022,0,0,0-.027-5.688L35.611,97.148l-.028-.03a3.986,3.986,0,0,0-5.635.037Z" transform="translate(0 0)" fill="#f5d027"/></g></svg>