<svg xmlns="http://www.w3.org/2000/svg" width="26.331" height="30.46" viewBox="0 0 26.331 30.46"><path d="M118.283,373.5c-2.865,0-5.183,1.844-5.183,4.122s2.319,4.122,5.183,4.122,5.183-1.844,5.183-4.122S121.148,373.5,118.283,373.5Z" transform="translate(-105.827 -351.284)" fill="#f7d952"/><path d="M42.2,9.136c0,6.9-9.372,7.007-9.372,9.553v.345a1.639,1.639,0,0,1-1.8,1.428H25.607a1.639,1.639,0,0,1-1.8-1.428v-.583c0-3.676,3.508-5.145,6.156-6.329,2.274-1.011,3.665-1.7,3.665-3.045,0-1.773-2.842-2.95-5.146-2.95-2.925,0-4.323,1.077-6.193,2.938a2.122,2.122,0,0,1-2.491.244L16.58,7.364a1.246,1.246,0,0,1-.389-1.957C19.235,1.945,23.1,0,29.071,0,35.421,0,42.2,3.944,42.2,9.136Z" transform="translate(-15.867)" fill="#f5d027"/></svg>