<svg width="32" height="32" viewBox="0 0 32 32" fill="none" xmlns="http://www.w3.org/2000/svg">
<g clip-path="url(#clip0_41_60)">
<path d="M9.89401 12.7541V26.0943H14.452V14.7888L13.718 14.4608L9.89401 12.7541Z" fill="#020617"/>
<path d="M9.89401 10.4723L14.452 12.5091V6.50409H9.89401V10.4723Z" fill="#6366F1"/>
<path d="M17.547 13.8899L18.829 14.4628L22.106 15.9276V6.50409H17.547V13.8899Z" fill="#6366F1"/>
<path d="M17.547 16.1716V26.0922H22.106V18.2074L20.522 17.4988L17.547 16.1716Z" fill="#020617"/>
<path d="M32 32H10.12C7.45281 32.0132 4.88934 30.9548 2.9921 29.057C1.09485 27.1591 0.0188026 24.5769 3.05176e-05 21.8769V-2.02053e-08H21.881C24.5481 -0.0132029 27.1115 1.04525 29.0086 2.9431C30.9057 4.84095 31.9815 7.42315 32 10.1231V32ZM3.53299 3.53194V21.881C3.54568 23.6382 4.24641 25.3187 5.48148 26.5535C6.71654 27.7884 8.38508 28.477 10.121 28.4681H28.47V10.1231C28.4576 8.3659 27.757 6.68549 26.5221 5.45057C25.2872 4.21565 23.6189 3.52709 21.883 3.53598H3.53403L3.53299 3.53194Z" fill="#020617"/>
</g>
<defs>
<clipPath id="clip0_41_60">
<rect width="32" height="32" fill="white"/>
</clipPath>
</defs>
</svg>
