<svg width="170" height="40" viewBox="0 0 170 40" fill="none" xmlns="http://www.w3.org/2000/svg">
<path d="M97 14V16.8183V21.8268V36H105V21.8268V17.3592L103.711 16.8183L97 14Z" fill="#020617"/>
<path d="M97 10.6072L105 14V4H97V10.6072Z" fill="#6366F1"/>
<path d="M109 15.7571L111.25 16.6695L117 19V16.6695V4H109V15.7571Z" fill="#6366F1"/>
<path d="M109 20V22.1415V36H117V23.2846L114.221 22.1415L109 20Z" fill="#020617"/>
<path d="M14.3867 36H3.04297V4H14.4805C17.6992 4 20.4701 4.64062 22.793 5.92188C25.1159 7.19271 26.9023 9.02083 28.1523 11.4062C29.4128 13.7917 30.043 16.6458 30.043 19.9687C30.043 23.3021 29.4128 26.1667 28.1523 28.5625C26.9023 30.9583 25.1055 32.7969 22.7617 34.0781C20.4284 35.3594 17.6367 36 14.3867 36ZM9.80859 30.2031H14.1055C16.1055 30.2031 17.7878 29.849 19.1523 29.1406C20.5273 28.4219 21.5586 27.3125 22.2461 25.8125C22.944 24.3021 23.293 22.3542 23.293 19.9687C23.293 17.6042 22.944 15.6719 22.2461 14.1719C21.5586 12.6719 20.5326 11.5677 19.168 10.8594C17.8034 10.151 16.1211 9.79688 14.1211 9.79688H9.80859V30.2031ZM38.7656 36H31.5156L42.5625 4H51.2813L62.3125 36H55.0625L47.0469 11.3125H46.7969L38.7656 36ZM38.3125 23.4219H55.4375V28.7031H38.3125V23.4219ZM92.9297 4V36H87.0859L73.1641 15.8594H72.9297V36H66.1641V4H72.1016L85.9141 24.125H86.1953V4H92.9297Z" fill="#020617"/>
<path d="M120.828 36V4H142.391V9.57812H127.594V17.2031H141.281V22.7812H127.594V30.4219H142.453V36H120.828ZM147.77 36V4H154.535V30.4219H168.254V36H147.77Z" fill="#020617"/>
</svg>
