<svg xmlns="http://www.w3.org/2000/svg" width="577.649" height="428.404" viewBox="0 0 577.649 428.404"><g transform="translate(0 0)"><path d="M768.208,647.007H225.867c-9.108-.013-16.49-9.421-16.5-21.029V236.239H784.708V625.978C784.7,637.586,777.316,646.994,768.208,647.007Z" transform="translate(-208.213 -218.603)" fill="#e6e6e6"/><path d="M785.862,245.84H208.213V233.28c.01-8.635,7.392-15.633,16.5-15.643H769.362c9.108.01,16.49,7.008,16.5,15.643Z" transform="translate(-208.213 -217.637)" fill="#383f54"/><ellipse cx="4.283" cy="4.061" rx="4.283" ry="4.061" transform="translate(14.642 10.206)" fill="#fff"/><ellipse cx="4.283" cy="4.061" rx="4.283" ry="4.061" transform="translate(30.901 10.206)" fill="#fff"/><ellipse cx="4.283" cy="4.061" rx="4.283" ry="4.061" transform="translate(47.16 10.206)" fill="#fff"/></g></svg>