<svg xmlns="http://www.w3.org/2000/svg" width="449.21" height="366.938" viewBox="0 0 449.21 366.938"><g transform="translate(-31.395 -72.531)"><path d="M480.605,374.273a3.489,3.489,0,1,1-3.489-3.492A3.489,3.489,0,0,1,480.605,374.273Z" fill="#5f6576"/><path d="M480.605,384.555a3.489,3.489,0,1,1-3.489-3.488A3.483,3.483,0,0,1,480.605,384.555Z" fill="#5f6576"/><path d="M470.32,363.988a3.489,3.489,0,1,1-3.489-3.492A3.489,3.489,0,0,1,470.32,363.988Z" fill="#5f6576"/><path d="M470.32,374.273a3.489,3.489,0,1,1-3.489-3.492A3.489,3.489,0,0,1,470.32,374.273Z" fill="#5f6576"/><path d="M470.32,384.555a3.489,3.489,0,1,1-3.489-3.488A3.483,3.483,0,0,1,470.32,384.555Z" fill="#5f6576"/><path d="M460.036,363.988a3.489,3.489,0,1,1-3.489-3.492A3.489,3.489,0,0,1,460.036,363.988Z" fill="#5f6576"/><path d="M460.036,374.273a3.489,3.489,0,1,1-3.489-3.492A3.489,3.489,0,0,1,460.036,374.273Z" fill="#5f6576"/><path d="M460.036,384.555a3.489,3.489,0,1,1-3.489-3.488A3.483,3.483,0,0,1,460.036,384.555Z" fill="#5f6576"/><circle cx="3.489" cy="3.489" r="3.489" transform="translate(309.075 267.937)" fill="#5f6576"/><circle cx="3.489" cy="3.489" r="3.489" transform="translate(309.075 278.222)" fill="#5f6576"/><circle cx="3.489" cy="3.489" r="3.489" transform="translate(309.075 288.507)" fill="#5f6576"/><path d="M316.054,302.281a3.489,3.489,0,1,1-3.489-3.492A3.491,3.491,0,0,1,316.054,302.281Z" fill="#5f6576"/><path d="M316.054,312.563a3.489,3.489,0,1,1-3.489-3.488A3.49,3.49,0,0,1,316.054,312.563Z" fill="#5f6576"/><path d="M316.054,322.848a3.489,3.489,0,1,1-3.489-3.488A3.49,3.49,0,0,1,316.054,322.848Z" fill="#5f6576"/><circle cx="3.489" cy="3.489" r="3.489" transform="translate(309.075 391.351)" fill="#5f6576"/><circle cx="3.489" cy="3.489" r="3.489" transform="translate(298.791 267.937)" fill="#5f6576"/><circle cx="3.489" cy="3.489" r="3.489" transform="translate(298.791 278.222)" fill="#5f6576"/><circle cx="3.489" cy="3.489" r="3.489" transform="translate(298.791 288.507)" fill="#5f6576"/><path d="M305.77,302.281a3.489,3.489,0,1,1-3.489-3.492A3.492,3.492,0,0,1,305.77,302.281Z" fill="#5f6576"/><path d="M305.77,312.563a3.489,3.489,0,1,1-3.489-3.488A3.49,3.49,0,0,1,305.77,312.563Z" fill="#5f6576"/><path d="M305.77,322.848a3.489,3.489,0,1,1-3.489-3.488A3.49,3.49,0,0,1,305.77,322.848Z" fill="#5f6576"/><path d="M305.77,353.7a3.489,3.489,0,1,1-3.489-3.492A3.489,3.489,0,0,1,305.77,353.7Z" fill="#5f6576"/><path d="M305.77,384.555a3.489,3.489,0,1,1-3.489-3.488A3.483,3.483,0,0,1,305.77,384.555Z" fill="#5f6576"/><circle cx="3.489" cy="3.489" r="3.489" transform="translate(298.791 391.351)" fill="#5f6576"/><circle cx="3.489" cy="3.489" r="3.489" transform="translate(288.507 267.937)" fill="#5f6576"/><circle cx="3.489" cy="3.489" r="3.489" transform="translate(288.507 278.222)" fill="#5f6576"/><circle cx="3.489" cy="3.489" r="3.489" transform="translate(288.507 288.507)" fill="#5f6576"/><path d="M295.485,302.281A3.489,3.489,0,1,1,292,298.789,3.492,3.492,0,0,1,295.485,302.281Z" fill="#5f6576"/><path d="M295.485,312.563A3.489,3.489,0,1,1,292,309.075,3.49,3.49,0,0,1,295.485,312.563Z" fill="#5f6576"/><path d="M295.485,322.848A3.489,3.489,0,1,1,292,319.36,3.49,3.49,0,0,1,295.485,322.848Z" fill="#5f6576"/><path d="M295.485,333.133A3.489,3.489,0,1,1,292,329.645,3.487,3.487,0,0,1,295.485,333.133Z" fill="#5f6576"/><path d="M295.485,343.414A3.489,3.489,0,1,1,292,339.93,3.49,3.49,0,0,1,295.485,343.414Z" fill="#5f6576"/><path d="M295.485,353.7A3.489,3.489,0,1,1,292,350.211,3.489,3.489,0,0,1,295.485,353.7Z" fill="#5f6576"/><path d="M295.485,363.988A3.489,3.489,0,1,1,292,360.5,3.489,3.489,0,0,1,295.485,363.988Z" fill="#5f6576"/><circle cx="3.489" cy="3.489" r="3.489" transform="translate(288.507 391.351)" fill="#5f6576"/><circle cx="3.489" cy="3.489" r="3.489" transform="translate(278.222 267.937)" fill="#5f6576"/><circle cx="3.489" cy="3.489" r="3.489" transform="translate(278.222 278.222)" fill="#5f6576"/><circle cx="3.489" cy="3.489" r="3.489" transform="translate(278.222 288.507)" fill="#5f6576"/><path d="M285.2,302.281a3.489,3.489,0,1,1-3.489-3.492A3.491,3.491,0,0,1,285.2,302.281Z" fill="#5f6576"/><path d="M285.2,312.563a3.489,3.489,0,1,1-3.489-3.488A3.49,3.49,0,0,1,285.2,312.563Z" fill="#5f6576"/><path d="M285.2,322.848a3.489,3.489,0,1,1-3.489-3.488A3.49,3.49,0,0,1,285.2,322.848Z" fill="#5f6576"/><path d="M285.2,333.133a3.489,3.489,0,1,1-3.489-3.488A3.486,3.486,0,0,1,285.2,333.133Z" fill="#5f6576"/><path d="M285.2,343.414a3.489,3.489,0,1,1-3.489-3.484A3.49,3.49,0,0,1,285.2,343.414Z" fill="#5f6576"/><path d="M285.2,353.7a3.489,3.489,0,1,1-3.489-3.492A3.489,3.489,0,0,1,285.2,353.7Z" fill="#5f6576"/><path d="M285.2,363.988a3.489,3.489,0,1,1-3.489-3.492A3.489,3.489,0,0,1,285.2,363.988Z" fill="#5f6576"/><path d="M285.2,374.273a3.489,3.489,0,1,1-3.489-3.492A3.489,3.489,0,0,1,285.2,374.273Z" fill="#5f6576"/><path d="M285.2,384.555a3.489,3.489,0,1,1-3.489-3.488A3.483,3.483,0,0,1,285.2,384.555Z" fill="#5f6576"/><circle cx="3.489" cy="3.489" r="3.489" transform="translate(278.222 391.351)" fill="#5f6576"/><path d="M285.2,405.121a3.489,3.489,0,1,1-3.489-3.488A3.49,3.49,0,0,1,285.2,405.121Z" fill="#5f6576"/><circle cx="3.489" cy="3.489" r="3.489" transform="translate(267.938 278.222)" fill="#5f6576"/><path d="M274.916,302.281a3.489,3.489,0,1,1-3.489-3.492A3.491,3.491,0,0,1,274.916,302.281Z" fill="#5f6576"/><path d="M274.916,312.563a3.489,3.489,0,1,1-3.489-3.488A3.49,3.49,0,0,1,274.916,312.563Z" fill="#5f6576"/><path d="M274.916,322.848a3.489,3.489,0,1,1-3.489-3.488A3.49,3.49,0,0,1,274.916,322.848Z" fill="#5f6576"/><path d="M274.916,333.133a3.489,3.489,0,1,1-3.489-3.488A3.486,3.486,0,0,1,274.916,333.133Z" fill="#5f6576"/><path d="M274.916,343.414a3.489,3.489,0,1,1-3.489-3.484A3.49,3.49,0,0,1,274.916,343.414Z" fill="#5f6576"/><path d="M274.916,353.7a3.489,3.489,0,1,1-3.489-3.492A3.489,3.489,0,0,1,274.916,353.7Z" fill="#5f6576"/><path d="M274.916,363.988a3.489,3.489,0,1,1-3.489-3.492A3.489,3.489,0,0,1,274.916,363.988Z" fill="#5f6576"/><path d="M274.916,374.273a3.489,3.489,0,1,1-3.489-3.492A3.489,3.489,0,0,1,274.916,374.273Z" fill="#5f6576"/><path d="M274.916,384.555a3.489,3.489,0,1,1-3.489-3.488A3.483,3.483,0,0,1,274.916,384.555Z" fill="#5f6576"/><circle cx="3.489" cy="3.489" r="3.489" transform="translate(267.938 391.351)" fill="#5f6576"/><path d="M274.916,405.121a3.489,3.489,0,1,1-3.489-3.488A3.49,3.49,0,0,1,274.916,405.121Z" fill="#5f6576"/><circle cx="3.489" cy="3.489" r="3.489" transform="translate(257.654 278.222)" fill="#5f6576"/><circle cx="3.489" cy="3.489" r="3.489" transform="translate(257.654 288.507)" fill="#5f6576"/><path d="M264.632,302.281a3.489,3.489,0,1,1-3.489-3.492A3.492,3.492,0,0,1,264.632,302.281Z" fill="#5f6576"/><path d="M264.632,312.563a3.489,3.489,0,1,1-3.489-3.488A3.49,3.49,0,0,1,264.632,312.563Z" fill="#5f6576"/><path d="M264.632,322.848a3.489,3.489,0,1,1-3.489-3.488A3.49,3.49,0,0,1,264.632,322.848Z" fill="#5f6576"/><path d="M264.632,333.133a3.489,3.489,0,1,1-3.489-3.488A3.487,3.487,0,0,1,264.632,333.133Z" fill="#5f6576"/><path d="M264.632,343.414a3.489,3.489,0,1,1-3.489-3.484A3.49,3.49,0,0,1,264.632,343.414Z" fill="#5f6576"/><path d="M264.632,353.7a3.489,3.489,0,1,1-3.489-3.492A3.489,3.489,0,0,1,264.632,353.7Z" fill="#5f6576"/><path d="M264.632,363.988a3.489,3.489,0,1,1-3.489-3.492A3.489,3.489,0,0,1,264.632,363.988Z" fill="#5f6576"/><path d="M264.632,374.273a3.489,3.489,0,1,1-3.489-3.492A3.489,3.489,0,0,1,264.632,374.273Z" fill="#5f6576"/><circle cx="3.489" cy="3.489" r="3.489" transform="translate(257.654 391.351)" fill="#5f6576"/><path d="M264.632,405.121a3.489,3.489,0,1,1-3.489-3.488A3.49,3.49,0,0,1,264.632,405.121Z" fill="#5f6576"/><path d="M254.347,199.438a3.489,3.489,0,1,1-3.489-3.492A3.489,3.489,0,0,1,254.347,199.438Z" fill="#5f6576"/><circle cx="3.489" cy="3.489" r="3.489" transform="translate(247.369 278.222)" fill="#5f6576"/><circle cx="3.489" cy="3.489" r="3.489" transform="translate(247.369 288.507)" fill="#5f6576"/><path d="M254.347,302.281a3.489,3.489,0,1,1-3.489-3.492A3.491,3.491,0,0,1,254.347,302.281Z" fill="#5f6576"/><path d="M254.347,312.563a3.489,3.489,0,1,1-3.489-3.488A3.49,3.49,0,0,1,254.347,312.563Z" fill="#5f6576"/><path d="M254.347,322.848a3.489,3.489,0,1,1-3.489-3.488A3.49,3.49,0,0,1,254.347,322.848Z" fill="#5f6576"/><path d="M254.347,333.133a3.489,3.489,0,1,1-3.489-3.488A3.486,3.486,0,0,1,254.347,333.133Z" fill="#5f6576"/><path d="M254.347,343.414a3.489,3.489,0,1,1-3.489-3.484A3.49,3.49,0,0,1,254.347,343.414Z" fill="#5f6576"/><path d="M254.347,353.7a3.489,3.489,0,1,1-3.489-3.492A3.489,3.489,0,0,1,254.347,353.7Z" fill="#5f6576"/><path d="M254.347,363.988a3.489,3.489,0,1,1-3.489-3.492A3.489,3.489,0,0,1,254.347,363.988Z" fill="#5f6576"/><circle cx="3.49" cy="3.49" r="3.49" transform="translate(237.083 278.221)" fill="#5f6576"/><path d="M244.063,302.281a3.49,3.49,0,1,1-3.489-3.492A3.492,3.492,0,0,1,244.063,302.281Z" fill="#5f6576"/><path d="M244.063,312.563a3.49,3.49,0,1,1-3.489-3.488A3.49,3.49,0,0,1,244.063,312.563Z" fill="#5f6576"/><path d="M244.063,322.848a3.49,3.49,0,1,1-3.489-3.488A3.49,3.49,0,0,1,244.063,322.848Z" fill="#5f6576"/><path d="M244.063,333.133a3.49,3.49,0,1,1-3.489-3.488A3.487,3.487,0,0,1,244.063,333.133Z" fill="#5f6576"/><path d="M244.063,343.414a3.49,3.49,0,1,1-3.489-3.484A3.49,3.49,0,0,1,244.063,343.414Z" fill="#5f6576"/><path d="M244.063,353.7a3.49,3.49,0,1,1-3.489-3.492A3.489,3.489,0,0,1,244.063,353.7Z" fill="#5f6576"/><path d="M244.063,363.988a3.49,3.49,0,1,1-3.489-3.492A3.489,3.489,0,0,1,244.063,363.988Z" fill="#5f6576"/><path d="M244.063,405.121a3.49,3.49,0,1,1-3.489-3.488A3.49,3.49,0,0,1,244.063,405.121Z" fill="#5f6576"/><path d="M233.778,312.563a3.489,3.489,0,1,1-3.489-3.488A3.49,3.49,0,0,1,233.778,312.563Z" fill="#5f6576"/><path d="M233.778,322.848a3.489,3.489,0,1,1-3.489-3.488A3.49,3.49,0,0,1,233.778,322.848Z" fill="#5f6576"/><path d="M233.778,333.133a3.489,3.489,0,1,1-3.489-3.488A3.486,3.486,0,0,1,233.778,333.133Z" fill="#5f6576"/><path d="M233.778,343.414a3.489,3.489,0,1,1-3.489-3.484A3.49,3.49,0,0,1,233.778,343.414Z" fill="#5f6576"/><path d="M233.778,353.7a3.489,3.489,0,1,1-3.489-3.492A3.489,3.489,0,0,1,233.778,353.7Z" fill="#5f6576"/><path d="M233.778,363.988a3.489,3.489,0,1,1-3.489-3.492A3.489,3.489,0,0,1,233.778,363.988Z" fill="#5f6576"/><circle cx="3.489" cy="3.489" r="3.489" transform="translate(226.8 391.351)" fill="#5f6576"/><path d="M233.778,405.121a3.489,3.489,0,1,1-3.489-3.488A3.49,3.49,0,0,1,233.778,405.121Z" fill="#5f6576"/><path d="M223.494,127.445a3.49,3.49,0,1,1-3.49-3.492A3.49,3.49,0,0,1,223.494,127.445Z" fill="#5f6576"/><path d="M223.494,312.563a3.49,3.49,0,1,1-3.49-3.488A3.49,3.49,0,0,1,223.494,312.563Z" fill="#5f6576"/><path d="M223.494,322.848A3.49,3.49,0,1,1,220,319.36,3.49,3.49,0,0,1,223.494,322.848Z" fill="#5f6576"/><path d="M223.494,333.133a3.49,3.49,0,1,1-3.49-3.488A3.487,3.487,0,0,1,223.494,333.133Z" fill="#5f6576"/><circle cx="3.49" cy="3.49" r="3.49" transform="translate(216.515 391.35)" fill="#5f6576"/><path d="M223.494,405.121a3.49,3.49,0,1,1-3.49-3.488A3.49,3.49,0,0,1,223.494,405.121Z" fill="#5f6576"/><path d="M213.209,127.445a3.49,3.49,0,1,1-3.489-3.492A3.489,3.489,0,0,1,213.209,127.445Z" fill="#5f6576"/><circle cx="3.49" cy="3.49" r="3.49" transform="translate(206.23 226.799)" fill="#5f6576"/><path d="M213.209,240.574a3.49,3.49,0,1,1-3.489-3.5A3.489,3.489,0,0,1,213.209,240.574Z" fill="#5f6576"/><path d="M213.209,374.273a3.49,3.49,0,1,1-3.489-3.492A3.489,3.489,0,0,1,213.209,374.273Z" fill="#5f6576"/><path d="M213.209,384.555a3.49,3.49,0,1,1-3.489-3.488A3.483,3.483,0,0,1,213.209,384.555Z" fill="#5f6576"/><circle cx="3.49" cy="3.49" r="3.49" transform="translate(195.946 216.514)" fill="#5f6576"/><circle cx="3.49" cy="3.49" r="3.49" transform="translate(195.946 226.799)" fill="#5f6576"/><path d="M202.925,240.574a3.49,3.49,0,1,1-3.49-3.5A3.49,3.49,0,0,1,202.925,240.574Z" fill="#5f6576"/><path d="M202.925,250.859a3.49,3.49,0,1,1-3.49-3.492A3.49,3.49,0,0,1,202.925,250.859Z" fill="#5f6576"/><path d="M202.925,261.141a3.49,3.49,0,1,1-3.49-3.488A3.49,3.49,0,0,1,202.925,261.141Z" fill="#5f6576"/><path d="M202.925,333.133a3.49,3.49,0,1,1-3.49-3.488A3.487,3.487,0,0,1,202.925,333.133Z" fill="#5f6576"/><path d="M202.925,343.414a3.49,3.49,0,1,1-3.49-3.484A3.49,3.49,0,0,1,202.925,343.414Z" fill="#5f6576"/><path d="M202.925,353.7a3.49,3.49,0,1,1-3.49-3.492A3.49,3.49,0,0,1,202.925,353.7Z" fill="#5f6576"/><path d="M202.925,363.988a3.49,3.49,0,1,1-3.49-3.492A3.49,3.49,0,0,1,202.925,363.988Z" fill="#5f6576"/><path d="M202.925,374.273a3.49,3.49,0,1,1-3.49-3.492A3.49,3.49,0,0,1,202.925,374.273Z" fill="#5f6576"/><circle cx="3.49" cy="3.49" r="3.49" transform="translate(195.946 391.35)" fill="#5f6576"/><path d="M202.925,405.121a3.49,3.49,0,1,1-3.49-3.488A3.49,3.49,0,0,1,202.925,405.121Z" fill="#5f6576"/><path d="M192.641,76.023a3.489,3.489,0,1,1-3.489-3.492A3.489,3.489,0,0,1,192.641,76.023Z" fill="#5f6576"/><circle cx="3.489" cy="3.489" r="3.489" transform="translate(185.662 216.515)" fill="#5f6576"/><circle cx="3.489" cy="3.489" r="3.489" transform="translate(185.662 226.8)" fill="#5f6576"/><path d="M192.641,240.574a3.489,3.489,0,1,1-3.489-3.5A3.489,3.489,0,0,1,192.641,240.574Z" fill="#5f6576"/><path d="M192.641,250.859a3.489,3.489,0,1,1-3.489-3.492A3.489,3.489,0,0,1,192.641,250.859Z" fill="#5f6576"/><path d="M192.641,261.141a3.489,3.489,0,1,1-3.489-3.488A3.49,3.49,0,0,1,192.641,261.141Z" fill="#5f6576"/><circle cx="3.489" cy="3.489" r="3.489" transform="translate(185.662 278.222)" fill="#5f6576"/><circle cx="3.489" cy="3.489" r="3.489" transform="translate(185.662 288.507)" fill="#5f6576"/><path d="M192.641,302.281a3.489,3.489,0,1,1-3.489-3.492A3.492,3.492,0,0,1,192.641,302.281Z" fill="#5f6576"/><path d="M192.641,322.848a3.489,3.489,0,1,1-3.489-3.488A3.49,3.49,0,0,1,192.641,322.848Z" fill="#5f6576"/><path d="M192.641,333.133a3.489,3.489,0,1,1-3.489-3.488A3.487,3.487,0,0,1,192.641,333.133Z" fill="#5f6576"/><path d="M192.641,343.414a3.489,3.489,0,1,1-3.489-3.484A3.49,3.49,0,0,1,192.641,343.414Z" fill="#5f6576"/><path d="M192.641,353.7a3.489,3.489,0,1,1-3.489-3.492A3.489,3.489,0,0,1,192.641,353.7Z" fill="#5f6576"/><path d="M192.641,363.988a3.489,3.489,0,1,1-3.489-3.492A3.489,3.489,0,0,1,192.641,363.988Z" fill="#5f6576"/><path d="M192.641,374.273a3.489,3.489,0,1,1-3.489-3.492A3.489,3.489,0,0,1,192.641,374.273Z" fill="#5f6576"/><path d="M192.641,384.555a3.489,3.489,0,1,1-3.489-3.488A3.483,3.483,0,0,1,192.641,384.555Z" fill="#5f6576"/><path d="M182.356,86.305a3.489,3.489,0,1,1-3.489-3.488A3.49,3.49,0,0,1,182.356,86.305Z" fill="#5f6576"/><circle cx="3.489" cy="3.489" r="3.489" transform="translate(175.378 93.101)" fill="#5f6576"/><path d="M182.356,106.871a3.489,3.489,0,1,1-3.489-3.484A3.487,3.487,0,0,1,182.356,106.871Z" fill="#5f6576"/><circle cx="3.489" cy="3.489" r="3.489" transform="translate(175.378 113.671)" fill="#5f6576"/><path d="M182.356,127.445a3.489,3.489,0,1,1-3.489-3.492A3.489,3.489,0,0,1,182.356,127.445Z" fill="#5f6576"/><path d="M182.356,137.73a3.489,3.489,0,1,1-3.489-3.492A3.489,3.489,0,0,1,182.356,137.73Z" fill="#5f6576"/><path d="M182.356,148.012a3.489,3.489,0,1,1-3.489-3.488A3.486,3.486,0,0,1,182.356,148.012Z" fill="#5f6576"/><circle cx="3.489" cy="3.489" r="3.489" transform="translate(175.378 216.515)" fill="#5f6576"/><circle cx="3.489" cy="3.489" r="3.489" transform="translate(175.378 226.8)" fill="#5f6576"/><path d="M182.356,240.574a3.489,3.489,0,1,1-3.489-3.5A3.489,3.489,0,0,1,182.356,240.574Z" fill="#5f6576"/><path d="M182.356,333.133a3.489,3.489,0,1,1-3.489-3.488A3.486,3.486,0,0,1,182.356,333.133Z" fill="#5f6576"/><path d="M182.356,343.414a3.489,3.489,0,1,1-3.489-3.484A3.49,3.49,0,0,1,182.356,343.414Z" fill="#5f6576"/><path d="M182.356,353.7a3.489,3.489,0,1,1-3.489-3.492A3.489,3.489,0,0,1,182.356,353.7Z" fill="#5f6576"/><path d="M182.356,363.988a3.489,3.489,0,1,1-3.489-3.492A3.489,3.489,0,0,1,182.356,363.988Z" fill="#5f6576"/><path d="M182.356,374.273a3.489,3.489,0,1,1-3.489-3.492A3.489,3.489,0,0,1,182.356,374.273Z" fill="#5f6576"/><path d="M182.356,384.555a3.489,3.489,0,1,1-3.489-3.488A3.483,3.483,0,0,1,182.356,384.555Z" fill="#5f6576"/><path d="M182.356,405.121a3.489,3.489,0,1,1-3.489-3.488A3.49,3.49,0,0,1,182.356,405.121Z" fill="#5f6576"/><circle cx="3.49" cy="3.49" r="3.49" transform="translate(165.092 93.1)" fill="#5f6576"/><path d="M172.072,106.871a3.49,3.49,0,1,1-3.489-3.484A3.488,3.488,0,0,1,172.072,106.871Z" fill="#5f6576"/><circle cx="3.49" cy="3.49" r="3.49" transform="translate(165.092 113.67)" fill="#5f6576"/><path d="M172.072,127.445a3.49,3.49,0,1,1-3.489-3.492A3.489,3.489,0,0,1,172.072,127.445Z" fill="#5f6576"/><path d="M172.072,137.73a3.49,3.49,0,1,1-3.489-3.492A3.489,3.489,0,0,1,172.072,137.73Z" fill="#5f6576"/><path d="M172.072,148.012a3.49,3.49,0,1,1-3.489-3.488A3.487,3.487,0,0,1,172.072,148.012Z" fill="#5f6576"/><path d="M172.072,158.3a3.49,3.49,0,1,1-3.489-3.488A3.49,3.49,0,0,1,172.072,158.3Z" fill="#5f6576"/><path d="M172.072,168.578a3.49,3.49,0,1,1-3.489-3.484A3.49,3.49,0,0,1,172.072,168.578Z" fill="#5f6576"/><path d="M172.072,178.867a3.49,3.49,0,1,1-3.489-3.488A3.492,3.492,0,0,1,172.072,178.867Z" fill="#5f6576"/><path d="M172.072,189.148a3.49,3.49,0,1,1-3.489-3.488A3.49,3.49,0,0,1,172.072,189.148Z" fill="#5f6576"/><path d="M172.072,199.438a3.49,3.49,0,1,1-3.489-3.492A3.489,3.489,0,0,1,172.072,199.438Z" fill="#5f6576"/><circle cx="3.49" cy="3.49" r="3.49" transform="translate(165.092 206.229)" fill="#5f6576"/><circle cx="3.49" cy="3.49" r="3.49" transform="translate(165.092 216.514)" fill="#5f6576"/><circle cx="3.49" cy="3.49" r="3.49" transform="translate(165.092 226.799)" fill="#5f6576"/><path d="M172.072,240.574a3.49,3.49,0,1,1-3.489-3.5A3.489,3.489,0,0,1,172.072,240.574Z" fill="#5f6576"/><path d="M172.072,250.859a3.49,3.49,0,1,1-3.489-3.492A3.489,3.489,0,0,1,172.072,250.859Z" fill="#f5d027"/><circle cx="3.49" cy="3.49" r="3.49" transform="translate(165.092 267.936)" fill="#5f6576"/><circle cx="3.49" cy="3.49" r="3.49" transform="translate(165.092 278.221)" fill="#5f6576"/><path d="M172.072,302.281a3.49,3.49,0,1,1-3.489-3.492A3.492,3.492,0,0,1,172.072,302.281Z" fill="#5f6576"/><path d="M172.072,322.848a3.49,3.49,0,1,1-3.489-3.488A3.49,3.49,0,0,1,172.072,322.848Z" fill="#5f6576"/><path d="M172.072,333.133a3.49,3.49,0,1,1-3.489-3.488A3.487,3.487,0,0,1,172.072,333.133Z" fill="#5f6576"/><path d="M172.072,343.414a3.49,3.49,0,1,1-3.489-3.484A3.49,3.49,0,0,1,172.072,343.414Z" fill="#5f6576"/><path d="M172.072,353.7a3.49,3.49,0,1,1-3.489-3.492A3.489,3.489,0,0,1,172.072,353.7Z" fill="#5f6576"/><path d="M172.072,363.988a3.49,3.49,0,1,1-3.489-3.492A3.489,3.489,0,0,1,172.072,363.988Z" fill="#5f6576"/><path d="M172.072,374.273a3.49,3.49,0,1,1-3.489-3.492A3.489,3.489,0,0,1,172.072,374.273Z" fill="#5f6576"/><circle cx="3.49" cy="3.49" r="3.49" transform="translate(165.092 391.35)" fill="#5f6576"/><circle cx="3.489" cy="3.489" r="3.489" transform="translate(154.809 93.101)" fill="#5f6576"/><path d="M161.787,106.871a3.489,3.489,0,1,1-3.489-3.484A3.487,3.487,0,0,1,161.787,106.871Z" fill="#5f6576"/><circle cx="3.489" cy="3.489" r="3.489" transform="translate(154.809 113.671)" fill="#5f6576"/><path d="M161.787,127.445a3.489,3.489,0,1,1-3.489-3.492A3.489,3.489,0,0,1,161.787,127.445Z" fill="#5f6576"/><path d="M161.787,137.73a3.489,3.489,0,1,1-3.489-3.492A3.489,3.489,0,0,1,161.787,137.73Z" fill="#5f6576"/><path d="M161.787,148.012a3.489,3.489,0,1,1-3.489-3.488A3.486,3.486,0,0,1,161.787,148.012Z" fill="#5f6576"/><path d="M161.787,158.3a3.489,3.489,0,1,1-3.489-3.488A3.49,3.49,0,0,1,161.787,158.3Z" fill="#5f6576"/><path d="M161.787,168.578a3.489,3.489,0,1,1-3.489-3.484A3.49,3.49,0,0,1,161.787,168.578Z" fill="#5f6576"/><path d="M161.787,178.867a3.489,3.489,0,1,1-3.489-3.488A3.491,3.491,0,0,1,161.787,178.867Z" fill="#5f6576"/><path d="M161.787,189.148a3.489,3.489,0,1,1-3.489-3.488A3.49,3.49,0,0,1,161.787,189.148Z" fill="#5f6576"/><path d="M161.787,199.438a3.489,3.489,0,1,1-3.489-3.492A3.489,3.489,0,0,1,161.787,199.438Z" fill="#5f6576"/><circle cx="3.489" cy="3.489" r="3.489" transform="translate(154.809 206.23)" fill="#5f6576"/><circle cx="3.489" cy="3.489" r="3.489" transform="translate(154.809 216.515)" fill="#5f6576"/><circle cx="3.489" cy="3.489" r="3.489" transform="translate(154.809 226.8)" fill="#5f6576"/><path d="M161.787,240.574a3.489,3.489,0,1,1-3.489-3.5A3.489,3.489,0,0,1,161.787,240.574Z" fill="#5f6576"/><path d="M161.787,250.859a3.489,3.489,0,1,1-3.489-3.492A3.489,3.489,0,0,1,161.787,250.859Z" fill="#5f6576"/><path d="M161.787,261.141a3.489,3.489,0,1,1-3.489-3.488A3.49,3.49,0,0,1,161.787,261.141Z" fill="#5f6576"/><circle cx="3.489" cy="3.489" r="3.489" transform="translate(154.809 267.937)" fill="#5f6576"/><circle cx="3.489" cy="3.489" r="3.489" transform="translate(154.809 278.222)" fill="#5f6576"/><circle cx="3.489" cy="3.489" r="3.489" transform="translate(154.809 288.507)" fill="#5f6576"/><path d="M161.787,333.133a3.489,3.489,0,1,1-3.489-3.488A3.486,3.486,0,0,1,161.787,333.133Z" fill="#5f6576"/><path d="M161.787,343.414a3.489,3.489,0,1,1-3.489-3.484A3.49,3.49,0,0,1,161.787,343.414Z" fill="#5f6576"/><path d="M161.787,353.7a3.489,3.489,0,1,1-3.489-3.492A3.489,3.489,0,0,1,161.787,353.7Z" fill="#5f6576"/><path d="M161.787,363.988A3.489,3.489,0,1,1,158.3,360.5,3.489,3.489,0,0,1,161.787,363.988Z" fill="#5f6576"/><path d="M161.787,374.273a3.489,3.489,0,1,1-3.489-3.492A3.489,3.489,0,0,1,161.787,374.273Z" fill="#5f6576"/><circle cx="3.49" cy="3.49" r="3.49" transform="translate(144.523 93.1)" fill="#5f6576"/><path d="M151.5,106.871a3.49,3.49,0,1,1-3.489-3.484A3.488,3.488,0,0,1,151.5,106.871Z" fill="#5f6576"/><circle cx="3.49" cy="3.49" r="3.49" transform="translate(144.523 113.67)" fill="#5f6576"/><path d="M151.5,127.445a3.49,3.49,0,1,1-3.489-3.492A3.489,3.489,0,0,1,151.5,127.445Z" fill="#5f6576"/><path d="M151.5,137.73a3.49,3.49,0,1,1-3.489-3.492A3.489,3.489,0,0,1,151.5,137.73Z" fill="#5f6576"/><path d="M151.5,148.012a3.49,3.49,0,1,1-3.489-3.488A3.487,3.487,0,0,1,151.5,148.012Z" fill="#5f6576"/><path d="M151.5,158.3a3.49,3.49,0,1,1-3.489-3.488A3.49,3.49,0,0,1,151.5,158.3Z" fill="#5f6576"/><path d="M151.5,168.578a3.49,3.49,0,1,1-3.489-3.484A3.49,3.49,0,0,1,151.5,168.578Z" fill="#5f6576"/><path d="M151.5,178.867a3.49,3.49,0,1,1-3.489-3.488A3.492,3.492,0,0,1,151.5,178.867Z" fill="#5f6576"/><path d="M151.5,189.148a3.49,3.49,0,1,1-3.489-3.488A3.49,3.49,0,0,1,151.5,189.148Z" fill="#5f6576"/><path d="M151.5,199.438a3.49,3.49,0,1,1-3.489-3.492A3.489,3.489,0,0,1,151.5,199.438Z" fill="#5f6576"/><circle cx="3.49" cy="3.49" r="3.49" transform="translate(144.523 206.229)" fill="#5f6576"/><circle cx="3.49" cy="3.49" r="3.49" transform="translate(144.523 216.514)" fill="#5f6576"/><circle cx="3.49" cy="3.49" r="3.49" transform="translate(144.523 226.799)" fill="#5f6576"/><path d="M151.5,240.574a3.49,3.49,0,1,1-3.489-3.5A3.489,3.489,0,0,1,151.5,240.574Z" fill="#5f6576"/><path d="M151.5,250.859a3.49,3.49,0,1,1-3.489-3.492A3.489,3.489,0,0,1,151.5,250.859Z" fill="#5f6576"/><path d="M151.5,261.141a3.49,3.49,0,1,1-3.489-3.488A3.49,3.49,0,0,1,151.5,261.141Z" fill="#5f6576"/><circle cx="3.49" cy="3.49" r="3.49" transform="translate(144.523 267.936)" fill="#5f6576"/><circle cx="3.49" cy="3.49" r="3.49" transform="translate(144.523 278.221)" fill="#5f6576"/><circle cx="3.49" cy="3.49" r="3.49" transform="translate(144.523 288.506)" fill="#5f6576"/><path d="M151.5,302.281a3.49,3.49,0,1,1-3.489-3.492A3.492,3.492,0,0,1,151.5,302.281Z" fill="#5f6576"/><path d="M151.5,312.563a3.49,3.49,0,1,1-3.489-3.488A3.49,3.49,0,0,1,151.5,312.563Z" fill="#5f6576"/><path d="M151.5,333.133a3.49,3.49,0,1,1-3.489-3.488A3.487,3.487,0,0,1,151.5,333.133Z" fill="#5f6576"/><path d="M151.5,343.414a3.49,3.49,0,1,1-3.489-3.484A3.49,3.49,0,0,1,151.5,343.414Z" fill="#5f6576"/><path d="M151.5,353.7a3.49,3.49,0,1,1-3.489-3.492A3.489,3.489,0,0,1,151.5,353.7Z" fill="#5f6576"/><path d="M151.5,363.988a3.49,3.49,0,1,1-3.489-3.492A3.489,3.489,0,0,1,151.5,363.988Z" fill="#5f6576"/><circle cx="3.49" cy="3.49" r="3.49" transform="translate(144.523 391.35)" fill="#5f6576"/><path d="M151.5,405.121a3.49,3.49,0,1,1-3.489-3.488A3.49,3.49,0,0,1,151.5,405.121Z" fill="#5f6576"/><path d="M141.218,106.871a3.489,3.489,0,1,1-3.489-3.484A3.487,3.487,0,0,1,141.218,106.871Z" fill="#5f6576"/><circle cx="3.489" cy="3.489" r="3.489" transform="translate(134.24 113.671)" fill="#5f6576"/><path d="M141.218,127.445a3.489,3.489,0,1,1-3.489-3.492A3.489,3.489,0,0,1,141.218,127.445Z" fill="#5f6576"/><path d="M141.218,137.73a3.489,3.489,0,1,1-3.489-3.492A3.489,3.489,0,0,1,141.218,137.73Z" fill="#5f6576"/><path d="M141.218,148.012a3.489,3.489,0,1,1-3.489-3.488A3.486,3.486,0,0,1,141.218,148.012Z" fill="#5f6576"/><path d="M141.218,158.3a3.489,3.489,0,1,1-3.489-3.488A3.49,3.49,0,0,1,141.218,158.3Z" fill="#5f6576"/><path d="M141.218,168.578a3.489,3.489,0,1,1-3.489-3.484A3.49,3.49,0,0,1,141.218,168.578Z" fill="#5f6576"/><path d="M141.218,178.867a3.489,3.489,0,1,1-3.489-3.488A3.491,3.491,0,0,1,141.218,178.867Z" fill="#5f6576"/><path d="M141.218,189.148a3.489,3.489,0,1,1-3.489-3.488A3.49,3.49,0,0,1,141.218,189.148Z" fill="#5f6576"/><path d="M141.218,199.438a3.489,3.489,0,1,1-3.489-3.492A3.489,3.489,0,0,1,141.218,199.438Z" fill="#5f6576"/><circle cx="3.489" cy="3.489" r="3.489" transform="translate(134.24 206.23)" fill="#5f6576"/><circle cx="3.489" cy="3.489" r="3.489" transform="translate(134.24 216.515)" fill="#5f6576"/><circle cx="3.489" cy="3.489" r="3.489" transform="translate(134.24 226.8)" fill="#5f6576"/><path d="M141.218,240.574a3.489,3.489,0,1,1-3.489-3.5A3.489,3.489,0,0,1,141.218,240.574Z" fill="#5f6576"/><path d="M141.218,250.859a3.489,3.489,0,1,1-3.489-3.492A3.489,3.489,0,0,1,141.218,250.859Z" fill="#5f6576"/><path d="M141.218,261.141a3.489,3.489,0,1,1-3.489-3.488A3.49,3.49,0,0,1,141.218,261.141Z" fill="#5f6576"/><circle cx="3.489" cy="3.489" r="3.489" transform="translate(134.24 267.937)" fill="#5f6576"/><circle cx="3.489" cy="3.489" r="3.489" transform="translate(134.24 278.222)" fill="#5f6576"/><circle cx="3.489" cy="3.489" r="3.489" transform="translate(134.24 288.507)" fill="#5f6576"/><path d="M141.218,302.281a3.489,3.489,0,1,1-3.489-3.492A3.491,3.491,0,0,1,141.218,302.281Z" fill="#5f6576"/><path d="M141.218,312.563a3.489,3.489,0,1,1-3.489-3.488A3.49,3.49,0,0,1,141.218,312.563Z" fill="#5f6576"/><path d="M141.218,322.848a3.489,3.489,0,1,1-3.489-3.488A3.49,3.49,0,0,1,141.218,322.848Z" fill="#5f6576"/><path d="M141.218,333.133a3.489,3.489,0,1,1-3.489-3.488A3.486,3.486,0,0,1,141.218,333.133Z" fill="#5f6576"/><path d="M141.218,384.555a3.489,3.489,0,1,1-3.489-3.488A3.483,3.483,0,0,1,141.218,384.555Z" fill="#5f6576"/><circle cx="3.489" cy="3.489" r="3.489" transform="translate(134.24 391.351)" fill="#5f6576"/><path d="M130.934,127.445a3.489,3.489,0,1,1-3.489-3.492A3.489,3.489,0,0,1,130.934,127.445Z" fill="#5f6576"/><path d="M130.934,137.73a3.489,3.489,0,1,1-3.489-3.492A3.489,3.489,0,0,1,130.934,137.73Z" fill="#5f6576"/><path d="M130.934,148.012a3.489,3.489,0,1,1-3.489-3.488A3.486,3.486,0,0,1,130.934,148.012Z" fill="#5f6576"/><path d="M130.934,158.3a3.489,3.489,0,1,1-3.489-3.488A3.49,3.49,0,0,1,130.934,158.3Z" fill="#5f6576"/><path d="M130.934,168.578a3.489,3.489,0,1,1-3.489-3.484A3.49,3.49,0,0,1,130.934,168.578Z" fill="#5f6576"/><path d="M130.934,178.867a3.489,3.489,0,1,1-3.489-3.488A3.491,3.491,0,0,1,130.934,178.867Z" fill="#5f6576"/><path d="M130.934,189.148a3.489,3.489,0,1,1-3.489-3.488A3.49,3.49,0,0,1,130.934,189.148Z" fill="#5f6576"/><path d="M130.934,199.438a3.489,3.489,0,1,1-3.489-3.492A3.489,3.489,0,0,1,130.934,199.438Z" fill="#5f6576"/><circle cx="3.489" cy="3.489" r="3.489" transform="translate(123.955 206.23)" fill="#5f6576"/><circle cx="3.489" cy="3.489" r="3.489" transform="translate(123.955 216.515)" fill="#5f6576"/><circle cx="3.489" cy="3.489" r="3.489" transform="translate(123.955 226.8)" fill="#5f6576"/><path d="M130.934,240.574a3.489,3.489,0,1,1-3.489-3.5A3.489,3.489,0,0,1,130.934,240.574Z" fill="#5f6576"/><path d="M130.934,250.859a3.489,3.489,0,1,1-3.489-3.492A3.489,3.489,0,0,1,130.934,250.859Z" fill="#5f6576"/><path d="M130.934,261.141a3.489,3.489,0,1,1-3.489-3.488A3.49,3.49,0,0,1,130.934,261.141Z" fill="#5f6576"/><circle cx="3.489" cy="3.489" r="3.489" transform="translate(123.955 267.937)" fill="#5f6576"/><circle cx="3.489" cy="3.489" r="3.489" transform="translate(123.955 278.222)" fill="#5f6576"/><circle cx="3.489" cy="3.489" r="3.489" transform="translate(123.955 288.507)" fill="#5f6576"/><path d="M130.934,302.281a3.489,3.489,0,1,1-3.489-3.492A3.491,3.491,0,0,1,130.934,302.281Z" fill="#5f6576"/><path d="M130.934,312.563a3.489,3.489,0,1,1-3.489-3.488A3.49,3.49,0,0,1,130.934,312.563Z" fill="#5f6576"/><path d="M130.934,322.848a3.489,3.489,0,1,1-3.489-3.488A3.49,3.49,0,0,1,130.934,322.848Z" fill="#5f6576"/><path d="M130.934,353.7a3.489,3.489,0,1,1-3.489-3.492A3.489,3.489,0,0,1,130.934,353.7Z" fill="#5f6576"/><path d="M130.934,363.988a3.489,3.489,0,1,1-3.489-3.492A3.489,3.489,0,0,1,130.934,363.988Z" fill="#5f6576"/><path d="M130.934,384.555a3.489,3.489,0,1,1-3.489-3.488A3.483,3.483,0,0,1,130.934,384.555Z" fill="#5f6576"/><circle cx="3.489" cy="3.489" r="3.489" transform="translate(123.955 391.351)" fill="#5f6576"/><path d="M120.649,148.012a3.489,3.489,0,1,1-3.489-3.488A3.486,3.486,0,0,1,120.649,148.012Z" fill="#5f6576"/><path d="M120.649,158.3a3.489,3.489,0,1,1-3.489-3.488A3.49,3.49,0,0,1,120.649,158.3Z" fill="#5f6576"/><path d="M120.649,168.578a3.489,3.489,0,1,1-3.489-3.484A3.49,3.49,0,0,1,120.649,168.578Z" fill="#5f6576"/><path d="M120.649,178.867a3.489,3.489,0,1,1-3.489-3.488A3.491,3.491,0,0,1,120.649,178.867Z" fill="#5f6576"/><path d="M120.649,189.148a3.489,3.489,0,1,1-3.489-3.488A3.49,3.49,0,0,1,120.649,189.148Z" fill="#5f6576"/><path d="M120.649,199.438a3.489,3.489,0,1,1-3.489-3.492A3.489,3.489,0,0,1,120.649,199.438Z" fill="#5f6576"/><circle cx="3.489" cy="3.489" r="3.489" transform="translate(113.671 206.23)" fill="#5f6576"/><circle cx="3.489" cy="3.489" r="3.489" transform="translate(113.671 216.515)" fill="#5f6576"/><circle cx="3.489" cy="3.489" r="3.489" transform="translate(113.671 226.8)" fill="#5f6576"/><path d="M120.649,240.574a3.489,3.489,0,1,1-3.489-3.5A3.489,3.489,0,0,1,120.649,240.574Z" fill="#5f6576"/><path d="M120.649,250.859a3.489,3.489,0,1,1-3.489-3.492A3.489,3.489,0,0,1,120.649,250.859Z" fill="#5f6576"/><path d="M120.649,261.141a3.489,3.489,0,1,1-3.489-3.488A3.49,3.49,0,0,1,120.649,261.141Z" fill="#5f6576"/><circle cx="3.489" cy="3.489" r="3.489" transform="translate(113.671 267.937)" fill="#5f6576"/><circle cx="3.489" cy="3.489" r="3.489" transform="translate(113.671 278.222)" fill="#5f6576"/><circle cx="3.489" cy="3.489" r="3.489" transform="translate(113.671 288.507)" fill="#5f6576"/><path d="M120.649,302.281a3.489,3.489,0,1,1-3.489-3.492A3.491,3.491,0,0,1,120.649,302.281Z" fill="#5f6576"/><path d="M120.649,312.563a3.489,3.489,0,1,1-3.489-3.488A3.49,3.49,0,0,1,120.649,312.563Z" fill="#5f6576"/><path d="M120.649,322.848a3.489,3.489,0,1,1-3.489-3.488A3.49,3.49,0,0,1,120.649,322.848Z" fill="#5f6576"/><path d="M120.649,333.133a3.489,3.489,0,1,1-3.489-3.488A3.486,3.486,0,0,1,120.649,333.133Z" fill="#5f6576"/><path d="M120.649,343.414a3.489,3.489,0,1,1-3.489-3.484A3.49,3.49,0,0,1,120.649,343.414Z" fill="#5f6576"/><path d="M120.649,353.7a3.489,3.489,0,1,1-3.489-3.492A3.489,3.489,0,0,1,120.649,353.7Z" fill="#5f6576"/><path d="M120.649,363.988a3.489,3.489,0,1,1-3.489-3.492A3.489,3.489,0,0,1,120.649,363.988Z" fill="#5f6576"/><path d="M120.649,374.273a3.489,3.489,0,1,1-3.489-3.492A3.489,3.489,0,0,1,120.649,374.273Z" fill="#5f6576"/><path d="M120.649,384.555a3.489,3.489,0,1,1-3.489-3.488A3.483,3.483,0,0,1,120.649,384.555Z" fill="#5f6576"/><circle cx="3.489" cy="3.489" r="3.489" transform="translate(113.671 391.351)" fill="#5f6576"/><path d="M120.649,405.121a3.489,3.489,0,1,1-3.489-3.488A3.49,3.49,0,0,1,120.649,405.121Z" fill="#5f6576"/><path d="M110.365,148.012a3.489,3.489,0,1,1-3.489-3.488A3.486,3.486,0,0,1,110.365,148.012Z" fill="#5f6576"/><path d="M110.365,158.3a3.489,3.489,0,1,1-3.489-3.488A3.49,3.49,0,0,1,110.365,158.3Z" fill="#5f6576"/><path d="M110.365,168.578a3.489,3.489,0,1,1-3.489-3.484A3.49,3.49,0,0,1,110.365,168.578Z" fill="#5f6576"/><path d="M110.365,178.867a3.489,3.489,0,1,1-3.489-3.488A3.491,3.491,0,0,1,110.365,178.867Z" fill="#5f6576"/><path d="M110.365,189.148a3.489,3.489,0,1,1-3.489-3.488A3.49,3.49,0,0,1,110.365,189.148Z" fill="#5f6576"/><circle cx="3.489" cy="3.489" r="3.489" transform="translate(103.386 206.23)" fill="#5f6576"/><circle cx="3.489" cy="3.489" r="3.489" transform="translate(103.386 216.515)" fill="#5f6576"/><circle cx="3.489" cy="3.489" r="3.489" transform="translate(103.386 226.8)" fill="#5f6576"/><path d="M110.365,240.574a3.489,3.489,0,1,1-3.489-3.5A3.489,3.489,0,0,1,110.365,240.574Z" fill="#5f6576"/><path d="M110.365,250.859a3.489,3.489,0,1,1-3.489-3.492A3.489,3.489,0,0,1,110.365,250.859Z" fill="#5f6576"/><path d="M110.365,261.141a3.489,3.489,0,1,1-3.489-3.488A3.49,3.49,0,0,1,110.365,261.141Z" fill="#5f6576"/><circle cx="3.489" cy="3.489" r="3.489" transform="translate(103.386 267.937)" fill="#5f6576"/><circle cx="3.489" cy="3.489" r="3.489" transform="translate(103.386 278.222)" fill="#5f6576"/><circle cx="3.489" cy="3.489" r="3.489" transform="translate(103.386 288.507)" fill="#5f6576"/><path d="M110.365,302.281a3.489,3.489,0,1,1-3.489-3.492A3.491,3.491,0,0,1,110.365,302.281Z" fill="#5f6576"/><path d="M110.365,312.563a3.489,3.489,0,1,1-3.489-3.488A3.49,3.49,0,0,1,110.365,312.563Z" fill="#5f6576"/><path d="M110.365,322.848a3.489,3.489,0,1,1-3.489-3.488A3.49,3.49,0,0,1,110.365,322.848Z" fill="#5f6576"/><path d="M110.365,333.133a3.489,3.489,0,1,1-3.489-3.488A3.486,3.486,0,0,1,110.365,333.133Z" fill="#5f6576"/><path d="M110.365,343.414a3.489,3.489,0,1,1-3.489-3.484A3.49,3.49,0,0,1,110.365,343.414Z" fill="#5f6576"/><path d="M110.365,353.7a3.489,3.489,0,1,1-3.489-3.492A3.489,3.489,0,0,1,110.365,353.7Z" fill="#5f6576"/><path d="M110.365,363.988a3.489,3.489,0,1,1-3.489-3.492A3.489,3.489,0,0,1,110.365,363.988Z" fill="#5f6576"/><path d="M110.365,374.273a3.489,3.489,0,1,1-3.489-3.492A3.489,3.489,0,0,1,110.365,374.273Z" fill="#5f6576"/><path d="M110.365,384.555a3.489,3.489,0,1,1-3.489-3.488A3.483,3.483,0,0,1,110.365,384.555Z" fill="#5f6576"/><circle cx="3.489" cy="3.489" r="3.489" transform="translate(103.386 391.351)" fill="#5f6576"/><path d="M110.365,405.121a3.489,3.489,0,1,1-3.489-3.488A3.49,3.49,0,0,1,110.365,405.121Z" fill="#5f6576"/><path d="M100.081,148.012a3.489,3.489,0,1,1-3.489-3.488A3.486,3.486,0,0,1,100.081,148.012Z" fill="#5f6576"/><path d="M100.081,158.3a3.489,3.489,0,1,1-3.489-3.488A3.49,3.49,0,0,1,100.081,158.3Z" fill="#5f6576"/><path d="M100.081,199.438a3.489,3.489,0,1,1-3.489-3.492A3.489,3.489,0,0,1,100.081,199.438Z" fill="#5f6576"/><circle cx="3.489" cy="3.489" r="3.489" transform="translate(93.102 206.23)" fill="#5f6576"/><circle cx="3.489" cy="3.489" r="3.489" transform="translate(93.102 216.515)" fill="#5f6576"/><circle cx="3.489" cy="3.489" r="3.489" transform="translate(93.102 226.8)" fill="#5f6576"/><path d="M100.081,240.574a3.489,3.489,0,1,1-3.489-3.5A3.489,3.489,0,0,1,100.081,240.574Z" fill="#5f6576"/><path d="M100.081,250.859a3.489,3.489,0,1,1-3.489-3.492A3.489,3.489,0,0,1,100.081,250.859Z" fill="#5f6576"/><path d="M100.081,261.141a3.489,3.489,0,1,1-3.489-3.488A3.49,3.49,0,0,1,100.081,261.141Z" fill="#5f6576"/><circle cx="3.489" cy="3.489" r="3.489" transform="translate(93.102 267.937)" fill="#5f6576"/><circle cx="3.489" cy="3.489" r="3.489" transform="translate(93.102 278.222)" fill="#5f6576"/><circle cx="3.489" cy="3.489" r="3.489" transform="translate(93.102 288.507)" fill="#5f6576"/><path d="M100.081,302.281a3.489,3.489,0,1,1-3.489-3.492A3.491,3.491,0,0,1,100.081,302.281Z" fill="#5f6576"/><path d="M100.081,312.563a3.489,3.489,0,1,1-3.489-3.488A3.49,3.49,0,0,1,100.081,312.563Z" fill="#5f6576"/><path d="M100.081,322.848a3.489,3.489,0,1,1-3.489-3.488A3.49,3.49,0,0,1,100.081,322.848Z" fill="#5f6576"/><path d="M100.081,333.133a3.489,3.489,0,1,1-3.489-3.488A3.486,3.486,0,0,1,100.081,333.133Z" fill="#5f6576"/><path d="M100.081,343.414a3.489,3.489,0,1,1-3.489-3.484A3.49,3.49,0,0,1,100.081,343.414Z" fill="#5f6576"/><path d="M100.081,353.7a3.489,3.489,0,1,1-3.489-3.492A3.489,3.489,0,0,1,100.081,353.7Z" fill="#5f6576"/><path d="M100.081,363.988a3.489,3.489,0,1,1-3.489-3.492A3.489,3.489,0,0,1,100.081,363.988Z" fill="#5f6576"/><path d="M100.081,374.273a3.489,3.489,0,1,1-3.489-3.492A3.489,3.489,0,0,1,100.081,374.273Z" fill="#5f6576"/><path d="M100.081,384.555a3.489,3.489,0,1,1-3.489-3.488A3.483,3.483,0,0,1,100.081,384.555Z" fill="#5f6576"/><circle cx="3.489" cy="3.489" r="3.489" transform="translate(93.102 391.351)" fill="#5f6576"/><path d="M100.081,405.121a3.489,3.489,0,1,1-3.489-3.488A3.49,3.49,0,0,1,100.081,405.121Z" fill="#5f6576"/><path d="M89.8,148.012a3.489,3.489,0,1,1-3.489-3.488A3.486,3.486,0,0,1,89.8,148.012Z" fill="#5f6576"/><path d="M89.8,158.3a3.489,3.489,0,1,1-3.489-3.488A3.49,3.49,0,0,1,89.8,158.3Z" fill="#5f6576"/><path d="M89.8,189.148a3.489,3.489,0,1,1-3.489-3.488A3.49,3.49,0,0,1,89.8,189.148Z" fill="#5f6576"/><path d="M89.8,199.438a3.489,3.489,0,1,1-3.489-3.492A3.489,3.489,0,0,1,89.8,199.438Z" fill="#5f6576"/><circle cx="3.489" cy="3.489" r="3.489" transform="translate(82.818 206.23)" fill="#5f6576"/><circle cx="3.489" cy="3.489" r="3.489" transform="translate(82.818 216.515)" fill="#5f6576"/><circle cx="3.489" cy="3.489" r="3.489" transform="translate(82.818 226.8)" fill="#5f6576"/><path d="M89.8,240.574a3.489,3.489,0,1,1-3.489-3.5A3.489,3.489,0,0,1,89.8,240.574Z" fill="#5f6576"/><path d="M89.8,250.859a3.489,3.489,0,1,1-3.489-3.492A3.489,3.489,0,0,1,89.8,250.859Z" fill="#5f6576"/><path d="M89.8,261.141a3.489,3.489,0,1,1-3.489-3.488A3.49,3.49,0,0,1,89.8,261.141Z" fill="#5f6576"/><circle cx="3.489" cy="3.489" r="3.489" transform="translate(82.818 267.937)" fill="#5f6576"/><circle cx="3.489" cy="3.489" r="3.489" transform="translate(82.818 278.222)" fill="#5f6576"/><circle cx="3.489" cy="3.489" r="3.489" transform="translate(82.818 288.507)" fill="#5f6576"/><path d="M89.8,302.281a3.489,3.489,0,1,1-3.489-3.492A3.491,3.491,0,0,1,89.8,302.281Z" fill="#5f6576"/><path d="M89.8,312.563a3.489,3.489,0,1,1-3.489-3.488A3.49,3.49,0,0,1,89.8,312.563Z" fill="#5f6576"/><path d="M89.8,322.848a3.489,3.489,0,1,1-3.489-3.488A3.49,3.49,0,0,1,89.8,322.848Z" fill="#5f6576"/><path d="M89.8,333.133a3.489,3.489,0,1,1-3.489-3.488A3.486,3.486,0,0,1,89.8,333.133Z" fill="#5f6576"/><path d="M89.8,343.414a3.489,3.489,0,1,1-3.489-3.484A3.49,3.49,0,0,1,89.8,343.414Z" fill="#5f6576"/><path d="M89.8,353.7a3.489,3.489,0,1,1-3.489-3.492A3.489,3.489,0,0,1,89.8,353.7Z" fill="#5f6576"/><path d="M89.8,363.988a3.489,3.489,0,1,1-3.489-3.492A3.489,3.489,0,0,1,89.8,363.988Z" fill="#5f6576"/><path d="M89.8,374.273a3.489,3.489,0,1,1-3.489-3.492A3.489,3.489,0,0,1,89.8,374.273Z" fill="#5f6576"/><path d="M89.8,384.555a3.489,3.489,0,1,1-3.489-3.488A3.483,3.483,0,0,1,89.8,384.555Z" fill="#5f6576"/><circle cx="3.489" cy="3.489" r="3.489" transform="translate(82.818 391.351)" fill="#5f6576"/><path d="M79.512,158.3a3.489,3.489,0,1,1-3.489-3.488A3.49,3.49,0,0,1,79.512,158.3Z" fill="#5f6576"/><path d="M79.512,168.578a3.49,3.49,0,1,1-3.489-3.484A3.49,3.49,0,0,1,79.512,168.578Z" fill="#5f6576"/><path d="M79.512,178.867a3.489,3.489,0,1,1-3.489-3.488A3.492,3.492,0,0,1,79.512,178.867Z" fill="#5f6576"/><path d="M79.512,189.148a3.489,3.489,0,1,1-3.489-3.488A3.49,3.49,0,0,1,79.512,189.148Z" fill="#5f6576"/><path d="M79.512,199.438a3.489,3.489,0,1,1-3.489-3.492A3.489,3.489,0,0,1,79.512,199.438Z" fill="#5f6576"/><circle cx="3.49" cy="3.49" r="3.49" transform="translate(72.532 206.229)" fill="#5f6576"/><circle cx="3.49" cy="3.49" r="3.49" transform="translate(72.532 216.514)" fill="#5f6576"/><circle cx="3.49" cy="3.49" r="3.49" transform="translate(72.532 226.799)" fill="#5f6576"/><path d="M79.512,240.574a3.49,3.49,0,1,1-3.489-3.5A3.489,3.489,0,0,1,79.512,240.574Z" fill="#5f6576"/><path d="M79.512,250.859a3.489,3.489,0,1,1-3.489-3.492A3.489,3.489,0,0,1,79.512,250.859Z" fill="#5f6576"/><path d="M79.512,261.141a3.489,3.489,0,1,1-3.489-3.488A3.49,3.49,0,0,1,79.512,261.141Z" fill="#5f6576"/><circle cx="3.49" cy="3.49" r="3.49" transform="translate(72.532 267.936)" fill="#5f6576"/><circle cx="3.49" cy="3.49" r="3.49" transform="translate(72.532 278.221)" fill="#5f6576"/><circle cx="3.49" cy="3.49" r="3.49" transform="translate(72.532 288.506)" fill="#5f6576"/><path d="M79.512,302.281a3.489,3.489,0,1,1-3.489-3.492A3.492,3.492,0,0,1,79.512,302.281Z" fill="#5f6576"/><path d="M79.512,312.563a3.489,3.489,0,1,1-3.489-3.488A3.49,3.49,0,0,1,79.512,312.563Z" fill="#5f6576"/><path d="M79.512,322.848a3.489,3.489,0,1,1-3.489-3.488A3.49,3.49,0,0,1,79.512,322.848Z" fill="#5f6576"/><path d="M79.512,333.133a3.489,3.489,0,1,1-3.489-3.488A3.487,3.487,0,0,1,79.512,333.133Z" fill="#5f6576"/><path d="M79.512,343.414a3.49,3.49,0,1,1-3.489-3.484A3.49,3.49,0,0,1,79.512,343.414Z" fill="#5f6576"/><path d="M79.512,353.7a3.489,3.489,0,1,1-3.489-3.492A3.489,3.489,0,0,1,79.512,353.7Z" fill="#5f6576"/><path d="M79.512,363.988a3.489,3.489,0,1,1-3.489-3.492A3.489,3.489,0,0,1,79.512,363.988Z" fill="#5f6576"/><path d="M79.512,374.273a3.489,3.489,0,1,1-3.489-3.492A3.489,3.489,0,0,1,79.512,374.273Z" fill="#5f6576"/><path d="M79.512,384.555a3.489,3.489,0,1,1-3.489-3.488A3.483,3.483,0,0,1,79.512,384.555Z" fill="#5f6576"/><circle cx="3.49" cy="3.49" r="3.49" transform="translate(72.532 391.35)" fill="#5f6576"/><path d="M69.227,148.012a3.489,3.489,0,1,1-3.489-3.488A3.486,3.486,0,0,1,69.227,148.012Z" fill="#5f6576"/><path d="M69.227,158.3a3.489,3.489,0,1,1-3.489-3.488A3.49,3.49,0,0,1,69.227,158.3Z" fill="#5f6576"/><path d="M69.227,168.578a3.489,3.489,0,1,1-3.489-3.484A3.49,3.49,0,0,1,69.227,168.578Z" fill="#5f6576"/><path d="M69.227,178.867a3.489,3.489,0,1,1-3.489-3.488A3.491,3.491,0,0,1,69.227,178.867Z" fill="#5f6576"/><path d="M69.227,189.148a3.489,3.489,0,1,1-3.489-3.488A3.49,3.49,0,0,1,69.227,189.148Z" fill="#5f6576"/><path d="M69.227,199.438a3.489,3.489,0,1,1-3.489-3.492A3.489,3.489,0,0,1,69.227,199.438Z" fill="#5f6576"/><circle cx="3.489" cy="3.489" r="3.489" transform="translate(62.249 226.8)" fill="#5f6576"/><path d="M69.227,240.574a3.489,3.489,0,1,1-3.489-3.5A3.489,3.489,0,0,1,69.227,240.574Z" fill="#5f6576"/><path d="M69.227,250.859a3.489,3.489,0,1,1-3.489-3.492A3.489,3.489,0,0,1,69.227,250.859Z" fill="#5f6576"/><path d="M69.227,261.141a3.489,3.489,0,1,1-3.489-3.488A3.49,3.49,0,0,1,69.227,261.141Z" fill="#5f6576"/><circle cx="3.489" cy="3.489" r="3.489" transform="translate(62.249 267.937)" fill="#5f6576"/><circle cx="3.489" cy="3.489" r="3.489" transform="translate(62.249 278.222)" fill="#5f6576"/><circle cx="3.489" cy="3.489" r="3.489" transform="translate(62.249 288.507)" fill="#5f6576"/><path d="M69.227,302.281a3.489,3.489,0,1,1-3.489-3.492A3.491,3.491,0,0,1,69.227,302.281Z" fill="#5f6576"/><path d="M69.227,312.563a3.489,3.489,0,1,1-3.489-3.488A3.49,3.49,0,0,1,69.227,312.563Z" fill="#5f6576"/><path d="M69.227,322.848a3.489,3.489,0,1,1-3.489-3.488A3.49,3.49,0,0,1,69.227,322.848Z" fill="#5f6576"/><path d="M69.227,333.133a3.489,3.489,0,1,1-3.489-3.488A3.486,3.486,0,0,1,69.227,333.133Z" fill="#5f6576"/><path d="M69.227,343.414a3.489,3.489,0,1,1-3.489-3.484A3.49,3.49,0,0,1,69.227,343.414Z" fill="#5f6576"/><path d="M69.227,353.7a3.489,3.489,0,1,1-3.489-3.492A3.489,3.489,0,0,1,69.227,353.7Z" fill="#5f6576"/><path d="M69.227,363.988a3.489,3.489,0,1,1-3.489-3.492A3.489,3.489,0,0,1,69.227,363.988Z" fill="#5f6576"/><path d="M69.227,374.273a3.489,3.489,0,1,1-3.489-3.492A3.489,3.489,0,0,1,69.227,374.273Z" fill="#5f6576"/><path d="M69.227,384.555a3.489,3.489,0,1,1-3.489-3.488A3.483,3.483,0,0,1,69.227,384.555Z" fill="#5f6576"/><circle cx="3.489" cy="3.489" r="3.489" transform="translate(62.249 391.351)" fill="#5f6576"/><path d="M58.942,158.3a3.489,3.489,0,1,1-3.489-3.488A3.49,3.49,0,0,1,58.942,158.3Z" fill="#5f6576"/><path d="M58.942,168.578a3.489,3.489,0,1,1-3.489-3.484A3.49,3.49,0,0,1,58.942,168.578Z" fill="#5f6576"/><path d="M58.942,178.867a3.489,3.489,0,1,1-3.489-3.488A3.491,3.491,0,0,1,58.942,178.867Z" fill="#5f6576"/><path d="M58.942,189.148a3.489,3.489,0,1,1-3.489-3.488A3.49,3.49,0,0,1,58.942,189.148Z" fill="#5f6576"/><path d="M58.942,199.438a3.489,3.489,0,1,1-3.489-3.492A3.489,3.489,0,0,1,58.942,199.438Z" fill="#5f6576"/><circle cx="3.489" cy="3.489" r="3.489" transform="translate(51.964 206.23)" fill="#5f6576"/><circle cx="3.489" cy="3.489" r="3.489" transform="translate(51.964 216.515)" fill="#5f6576"/><circle cx="3.489" cy="3.489" r="3.489" transform="translate(51.964 226.8)" fill="#5f6576"/><path d="M58.942,240.574a3.489,3.489,0,1,1-3.489-3.5A3.489,3.489,0,0,1,58.942,240.574Z" fill="#5f6576"/><path d="M58.942,250.859a3.489,3.489,0,1,1-3.489-3.492A3.489,3.489,0,0,1,58.942,250.859Z" fill="#5f6576"/><path d="M58.942,261.141a3.489,3.489,0,1,1-3.489-3.488A3.49,3.49,0,0,1,58.942,261.141Z" fill="#5f6576"/><circle cx="3.489" cy="3.489" r="3.489" transform="translate(51.964 267.937)" fill="#5f6576"/><circle cx="3.489" cy="3.489" r="3.489" transform="translate(51.964 278.222)" fill="#5f6576"/><circle cx="3.489" cy="3.489" r="3.489" transform="translate(51.964 288.507)" fill="#5f6576"/><path d="M58.942,302.281a3.489,3.489,0,1,1-3.489-3.492A3.491,3.491,0,0,1,58.942,302.281Z" fill="#5f6576"/><path d="M58.942,312.563a3.489,3.489,0,1,1-3.489-3.488A3.49,3.49,0,0,1,58.942,312.563Z" fill="#5f6576"/><path d="M58.942,322.848a3.489,3.489,0,1,1-3.489-3.488A3.49,3.49,0,0,1,58.942,322.848Z" fill="#5f6576"/><path d="M58.942,333.133a3.489,3.489,0,1,1-3.489-3.488A3.486,3.486,0,0,1,58.942,333.133Z" fill="#5f6576"/><path d="M58.942,343.414a3.489,3.489,0,1,1-3.489-3.484A3.49,3.49,0,0,1,58.942,343.414Z" fill="#5f6576"/><path d="M58.942,374.273a3.489,3.489,0,1,1-3.489-3.492A3.489,3.489,0,0,1,58.942,374.273Z" fill="#5f6576"/><path d="M48.658,178.867a3.489,3.489,0,1,1-3.489-3.488A3.491,3.491,0,0,1,48.658,178.867Z" fill="#5f6576"/><path d="M48.658,189.148a3.489,3.489,0,1,1-3.489-3.488A3.49,3.49,0,0,1,48.658,189.148Z" fill="#5f6576"/><path d="M48.658,199.438a3.489,3.489,0,1,1-3.489-3.492A3.489,3.489,0,0,1,48.658,199.438Z" fill="#5f6576"/><circle cx="3.489" cy="3.489" r="3.489" transform="translate(41.68 206.23)" fill="#5f6576"/><circle cx="3.489" cy="3.489" r="3.489" transform="translate(41.68 216.515)" fill="#5f6576"/><circle cx="3.489" cy="3.489" r="3.489" transform="translate(41.68 226.8)" fill="#5f6576"/><path d="M48.658,240.574a3.489,3.489,0,1,1-3.489-3.5A3.489,3.489,0,0,1,48.658,240.574Z" fill="#5f6576"/><path d="M48.658,250.859a3.489,3.489,0,1,1-3.489-3.492A3.489,3.489,0,0,1,48.658,250.859Z" fill="#5f6576"/><path d="M48.658,261.141a3.489,3.489,0,1,1-3.489-3.488A3.49,3.49,0,0,1,48.658,261.141Z" fill="#5f6576"/><circle cx="3.489" cy="3.489" r="3.489" transform="translate(41.68 267.937)" fill="#5f6576"/><circle cx="3.489" cy="3.489" r="3.489" transform="translate(41.68 278.222)" fill="#5f6576"/><circle cx="3.489" cy="3.489" r="3.489" transform="translate(41.68 288.507)" fill="#5f6576"/><path d="M48.658,302.281a3.489,3.489,0,1,1-3.489-3.492A3.491,3.491,0,0,1,48.658,302.281Z" fill="#5f6576"/><path d="M48.658,312.563a3.489,3.489,0,1,1-3.489-3.488A3.49,3.49,0,0,1,48.658,312.563Z" fill="#5f6576"/><path d="M48.658,322.848a3.489,3.489,0,1,1-3.489-3.488A3.49,3.49,0,0,1,48.658,322.848Z" fill="#5f6576"/><path d="M48.658,333.133a3.489,3.489,0,1,1-3.489-3.488A3.486,3.486,0,0,1,48.658,333.133Z" fill="#5f6576"/><circle cx="3.489" cy="3.489" r="3.489" transform="translate(31.395 206.23)" fill="#5f6576"/><circle cx="3.489" cy="3.489" r="3.489" transform="translate(31.395 216.515)" fill="#5f6576"/><circle cx="3.489" cy="3.489" r="3.489" transform="translate(31.395 226.8)" fill="#5f6576"/><path d="M38.374,240.574a3.489,3.489,0,1,1-3.489-3.5A3.489,3.489,0,0,1,38.374,240.574Z" fill="#5f6576"/><path d="M38.374,250.859a3.489,3.489,0,1,1-3.489-3.492A3.489,3.489,0,0,1,38.374,250.859Z" fill="#5f6576"/><path d="M38.374,261.141a3.489,3.489,0,1,1-3.489-3.488A3.49,3.49,0,0,1,38.374,261.141Z" fill="#5f6576"/><circle cx="3.489" cy="3.489" r="3.489" transform="translate(31.395 267.937)" fill="#5f6576"/><circle cx="3.489" cy="3.489" r="3.489" transform="translate(31.395 278.222)" fill="#5f6576"/><circle cx="3.489" cy="3.489" r="3.489" transform="translate(31.395 288.507)" fill="#5f6576"/><path d="M38.374,302.281a3.489,3.489,0,1,1-3.489-3.492A3.491,3.491,0,0,1,38.374,302.281Z" fill="#5f6576"/><path d="M38.374,312.563a3.489,3.489,0,1,1-3.489-3.488A3.49,3.49,0,0,1,38.374,312.563Z" fill="#5f6576"/><path d="M38.374,322.848a3.489,3.489,0,1,1-3.489-3.488A3.49,3.49,0,0,1,38.374,322.848Z" fill="#5f6576"/><path d="M38.374,333.133a3.489,3.489,0,1,1-3.489-3.488A3.486,3.486,0,0,1,38.374,333.133Z" fill="#5f6576"/><path d="M285.2,415.41a3.489,3.489,0,1,1-3.489-3.488A3.489,3.489,0,0,1,285.2,415.41Z" fill="#5f6576"/><path d="M274.916,415.41a3.489,3.489,0,1,1-3.489-3.488A3.489,3.489,0,0,1,274.916,415.41Z" fill="#5f6576"/><path d="M274.916,425.7a3.489,3.489,0,1,1-3.489-3.492A3.485,3.485,0,0,1,274.916,425.7Z" fill="#5f6576"/><path d="M274.916,435.977a3.489,3.489,0,1,1-3.489-3.488A3.49,3.49,0,0,1,274.916,435.977Z" fill="#5f6576"/><path d="M264.632,415.41a3.489,3.489,0,1,1-3.489-3.488A3.489,3.489,0,0,1,264.632,415.41Z" fill="#5f6576"/><path d="M264.632,425.7a3.489,3.489,0,1,1-3.489-3.492A3.486,3.486,0,0,1,264.632,425.7Z" fill="#5f6576"/><path d="M254.347,415.41a3.489,3.489,0,1,1-3.489-3.488A3.489,3.489,0,0,1,254.347,415.41Z" fill="#5f6576"/><path d="M254.347,425.7a3.489,3.489,0,1,1-3.489-3.492A3.485,3.485,0,0,1,254.347,425.7Z" fill="#5f6576"/><path d="M244.063,415.41a3.49,3.49,0,1,1-3.489-3.488A3.489,3.489,0,0,1,244.063,415.41Z" fill="#5f6576"/><path d="M244.063,425.7a3.49,3.49,0,1,1-3.489-3.492A3.486,3.486,0,0,1,244.063,425.7Z" fill="#5f6576"/><path d="M233.778,415.41a3.489,3.489,0,1,1-3.489-3.488A3.489,3.489,0,0,1,233.778,415.41Z" fill="#5f6576"/><path d="M223.494,415.41a3.49,3.49,0,1,1-3.49-3.488A3.49,3.49,0,0,1,223.494,415.41Z" fill="#5f6576"/><path d="M202.925,415.41a3.49,3.49,0,1,1-3.49-3.488A3.49,3.49,0,0,1,202.925,415.41Z" fill="#5f6576"/></g></svg>