<svg xmlns="http://www.w3.org/2000/svg" width="536" height="343.554" viewBox="0 0 536 343.554"><path d="M937.347,683.525c-6.944-4.646-10.441-13.484-10.579-21.837-.046-2.8.661-6.049,3.17-7.3A4.356,4.356,0,0,1,936.174,659a42.174,42.174,0,0,1,3.6-7.827c1.241-2.1,2.982-4.284,5.412-4.483,2.819-.231,5.174,2.507,5.574,5.307s-.619,5.587-1.621,8.232A7.361,7.361,0,0,1,960.8,656.1c2.757,2.128,3.665,6.045,2.972,9.458s-2.73,6.4-4.983,9.056a30.082,30.082,0,0,1-9.361,7.769,16.231,16.231,0,0,1-11.887,1.274Z" transform="translate(-436.67 -341.224)" fill="#f2f2f2"/><path d="M797.571,492.13a7.3,7.3,0,0,0,2.611-10.887L817.2,398.634l-15.877-.209L789.5,479.985a7.341,7.341,0,0,0,8.067,12.145Z" transform="translate(-391.873 -261.703)" fill="#ffb8b8"/><path d="M905.446,485.111a7.3,7.3,0,0,0-.61-11.179l-7.308-84.025-15.274,4.338,11.99,81.535a7.341,7.341,0,0,0,11.2,9.331Z" transform="translate(-422.412 -258.974)" fill="#ffb8b8"/><path d="M632.8,477.009h-8.333L620.5,444.868h12.3Z" transform="translate(-198.759 -142.5)" fill="#ffb8b8"/><path d="M612.805,488.653h16.07v10.118H602.687A10.118,10.118,0,0,1,612.805,488.653Z" transform="translate(-193.053 -156.526)" fill="#2f2e41"/><path d="M687.8,477.009h-8.333L675.5,444.868h12.3Z" transform="translate(-216.376 -142.5)" fill="#ffb8b8"/><path d="M667.805,488.653h16.07v10.118H657.687A10.118,10.118,0,0,1,667.805,488.653Z" transform="translate(-210.671 -156.526)" fill="#2f2e41"/><circle cx="16.694" cy="16.694" r="16.694" transform="translate(419.503 71.482)" fill="#ffb8b8"/><path d="M861.291,614.262a2.946,2.946,0,0,1-2.876-2.372L847.13,553.5a2.277,2.277,0,0,0-4.5.181l-6.319,56.874a2.913,2.913,0,0,1-2.776,2.6l-9.478.431a2.878,2.878,0,0,1-2.111-.766,2.907,2.907,0,0,1-.946-2.037l-3.634-87.855a2.91,2.91,0,0,1,1.025-2.348l2.1-1.793a2.931,2.931,0,0,1,1.9-.7h49.126a2.93,2.93,0,0,1,2.927,2.927V610.89a2.922,2.922,0,0,1-2.8,2.924l-10.23.445Z" transform="translate(-401.626 -300.033)" fill="#2f2e41"/><path d="M831.8,480.466c-7.943,0-14.944-2.116-18.478-8.288a2.982,2.982,0,0,1-.4-1.68l4.441-67.884a2.276,2.276,0,0,0-.462-1.53l-12.461-16.338a2.926,2.926,0,0,1,.56-4.107l18.693-14.161a2.288,2.288,0,0,0,.814-1.189l.544-1.906a2.921,2.921,0,0,1,2.7-2.121l13.716-.528a2.955,2.955,0,0,1,2.4,1.1l1.46,1.824a2.269,2.269,0,0,0,.677.571L868.945,376.9a2.933,2.933,0,0,1,1.511,2.531v.041l-.009.039c-5.347,22.3-5.046,50.476.946,88.688a2.926,2.926,0,0,1-1.754,2.762C864.675,473.113,846.6,480.466,831.8,480.466Z" transform="translate(-397.295 -249.629)" fill="#f5d027"/><path d="M815.722,418.139H800.186a2.923,2.923,0,0,1-2.922-3.093c.231-3.958.687-11.485,1.144-17.421.657-8.542,9.027-12.747,9.112-12.789l.164-.08,5.651,3.587,5.259,26.3a2.927,2.927,0,0,1-2.87,3.5Z" transform="translate(-395.186 -257.324)" fill="#f5d027"/><path d="M885.687,415.864a2.931,2.931,0,0,1-2.9-3.246l2.867-26.379,5.539-4.057.126.014a11.457,11.457,0,0,1,8.6,7.353c1.882,4.706,4.758,13.4,6.3,18.17a2.924,2.924,0,0,1-2.094,3.743l-17.745,4.316a2.959,2.959,0,0,1-.706.086Z" transform="translate(-422.579 -256.5)" fill="#f5d027"/><path d="M841.021,332.4c3.57-5.649-.887-21.2-10.6-21.6-2.242-.094-3.1-3.357-3.866-5.468A8.421,8.421,0,0,1,827.65,298a13.823,13.823,0,0,1,5.9-4.763,20.463,20.463,0,1,1,11.46,38.848Z" transform="translate(-404.444 -227.409)" fill="#2f2e41"/><path d="M541.459,197.268h-331a4.763,4.763,0,0,0-4.758,4.758V426.32a4.763,4.763,0,0,0,4.758,4.758h331a4.763,4.763,0,0,0,4.758-4.758V202.026A4.763,4.763,0,0,0,541.459,197.268Zm3.4,229.052a3.4,3.4,0,0,1-3.4,3.4h-331a3.4,3.4,0,0,1-3.4-3.4V202.026a3.4,3.4,0,0,1,3.4-3.4h331a3.4,3.4,0,0,1,3.4,3.4Z" transform="translate(-205.697 -197.268)" fill="#fafafa"/><rect width="339.16" height="1.359" transform="translate(0.68 19.058)" fill="#fafafa"/><circle cx="4.078" cy="4.078" r="4.078" transform="translate(8.156 6.117)" fill="#fafafa"/><circle cx="4.078" cy="4.078" r="4.078" transform="translate(19.881 6.117)" fill="#fafafa"/><circle cx="4.078" cy="4.078" r="4.078" transform="translate(31.605 6.117)" fill="#fafafa"/><path d="M505.26,283.8h-210.7a10.535,10.535,0,0,1,0-21.07h210.7a10.535,10.535,0,0,1,0,21.07Zm-210.7-19.711a9.176,9.176,0,0,0,0,18.351h210.7a9.176,9.176,0,1,0,0-18.351Z" transform="translate(-230.787 -218.237)" fill="#fafafa"/><path d="M355.34,362.8H314.559a10.535,10.535,0,1,1,0-21.07H355.34a10.535,10.535,0,1,1,0,21.07Zm-40.781-19.711a9.176,9.176,0,1,0,0,18.351H355.34a9.176,9.176,0,1,0,0-18.351Z" transform="translate(-237.193 -243.543)" fill="#fafafa"/><path d="M355.34,414.8H314.559a10.535,10.535,0,0,1,0-21.07H355.34a10.535,10.535,0,0,1,0,21.07Zm-40.781-19.711a9.176,9.176,0,1,0,0,18.351H355.34a9.176,9.176,0,1,0,0-18.351Z" transform="translate(-237.193 -260.199)" fill="#fafafa"/><path d="M355.34,466.8H314.559a10.535,10.535,0,1,1,0-21.07H355.34a10.535,10.535,0,1,1,0,21.07Zm-40.781-19.711a9.176,9.176,0,1,0,0,18.351H355.34a9.176,9.176,0,1,0,0-18.351Z" transform="translate(-237.193 -276.856)" fill="#fafafa"/><path d="M359.375,280.747H302.282a4.758,4.758,0,1,1,0-9.516h57.093a4.758,4.758,0,0,1,0,9.516Z" transform="translate(-235.111 -220.96)" fill="#f5d027"/><path d="M596.782,277.247a4.758,4.758,0,1,1,4.758-4.758A4.758,4.758,0,0,1,596.782,277.247Zm0-8.156a3.4,3.4,0,1,0,3.4,3.4A3.4,3.4,0,0,0,596.782,269.091Z" transform="translate(-329.445 -219.839)" fill="#fafafa"/><path d="M607.281,285.174a.678.678,0,0,1-.481-.2l-4.775-4.776a.68.68,0,1,1,.961-.961l4.776,4.776a.68.68,0,0,1-.481,1.16Z" transform="translate(-332.585 -223.461)" fill="#fafafa"/><path d="M581.09,360.646H557.981a6.457,6.457,0,1,1,0-12.914H581.09a6.457,6.457,0,1,1,0,12.914Z" transform="translate(-316.472 -245.465)" fill="#f5d027"/><path d="M581.09,412.646H557.981a6.457,6.457,0,1,1,0-12.914H581.09a6.457,6.457,0,1,1,0,12.914Z" transform="translate(-316.472 -262.121)" fill="#f5d027"/><path d="M581.09,464.646H557.981a6.457,6.457,0,1,1,0-12.914H581.09a6.457,6.457,0,1,1,0,12.914Z" transform="translate(-316.472 -278.778)" fill="#f5d027"/><path d="M913.543,702.091H744.983a.68.68,0,1,1,0-1.359H913.543a.68.68,0,1,1,0,1.359Z" transform="translate(-378.223 -358.538)" fill="#272c3a"/><text transform="translate(67 58)" fill="#383f54" font-size="8" font-family="AnonymousPro, Anonymous Pro"><tspan x="0" y="0">Daniiel.dev</tspan></text></svg>