<?xml version="1.0" encoding="UTF-8"?><svg id="a" xmlns="http://www.w3.org/2000/svg" viewBox="0 0 1678.12 309.34"><defs><style>.b{fill:#f5d027;}.c{fill:#fefefe;}</style></defs><g><path class="c" d="M555.11,101.1c-16.79-14.62-40.83-21.91-72.02-21.91h-109.55V249.41h99.37c17.2,0,31.28-1.04,42.33-3.17,11-2.08,20.14-5.43,27.57-10.05,11.95-7.29,21.14-17.29,27.71-30.01,6.52-12.72,9.82-27.07,9.82-42.92,0-26.85-8.38-47.58-25.22-62.16Zm-32.78,103.53c-11.36,8.47-30.69,12.72-57.95,12.72h-51.2V109.61h70.21c18.47,0,32.41,4.48,41.87,13.45,9.42,8.96,14.12,22.14,14.12,39.52,0,19.56-5.66,33.55-17.07,42.06Z"/><polygon class="c" points="697.71 79.19 601.47 249.41 640.9 249.41 715.46 112.19 789.06 249.41 833.52 249.41 735.92 79.19 697.71 79.19"/><path class="c" d="M1039.32,168.55c0,2.17,.09,5.21,.32,9.19,.23,3.98,.63,10.73,1.27,20.28-2.54-3.12-5.39-6.16-8.51-9.1-3.12-2.94-6.75-6.11-10.77-9.42l-119.83-100.32h-27.07V249.41h35.63v-91.99c0-3.44-.18-7.47-.45-12.13-.23-4.66-.63-9.64-1.18-14.89,1.95,2.26,4.03,4.44,6.29,6.61,2.26,2.13,4.89,4.57,7.88,7.24l124.99,105.16h27.03V79.19h-35.58v89.36Z"/><polygon class="c" points="1133.07 133.49 1133.07 148.34 1133.07 174.73 1133.07 249.41 1172.68 249.41 1172.68 174.73 1172.68 151.19 1166.3 148.34 1133.07 133.49"/><polygon class="b" points="1133.07 113.66 1172.68 131.36 1172.68 79.19 1133.07 79.19 1133.07 113.66"/><polygon class="b" points="1199.57 143.36 1210.71 148.34 1239.18 161.06 1239.18 148.34 1239.18 79.19 1199.57 79.19 1199.57 143.36"/><polygon class="c" points="1199.57 163.19 1199.57 174.73 1199.57 249.41 1239.18 249.41 1239.18 180.89 1225.42 174.73 1199.57 163.19"/><polygon class="c" points="1347.79 175.16 1426.37 175.16 1426.37 146.19 1347.79 146.19 1347.79 108.16 1482.46 108.16 1482.46 79.19 1308.22 79.19 1308.22 249.41 1484.05 249.41 1484.05 217.35 1347.79 217.35 1347.79 175.16"/><polygon class="c" points="1583.6 217.35 1583.6 79.19 1543.94 79.19 1543.94 249.41 1678.12 249.41 1678.12 217.35 1583.6 217.35"/></g><g><g><polygon class="c" points="97.51 124.52 97.51 140.52 97.51 168.95 97.51 249.41 140.19 249.41 140.19 168.95 140.19 143.59 133.31 140.52 97.51 124.52"/><polygon class="b" points="97.51 103.15 140.19 122.22 140.19 66.01 97.51 66.01 97.51 103.15"/><polygon class="b" points="169.16 135.15 181.16 140.52 211.84 154.22 211.84 140.52 211.84 66.01 169.16 66.01 169.16 135.15"/><polygon class="c" points="169.16 156.51 169.16 168.95 169.16 249.41 211.84 249.41 211.84 175.58 197.01 168.95 169.16 156.51"/></g><path class="c" d="M309.35,309.34H97.83C43.89,309.34,0,265.46,0,211.52V0H211.52c53.94,0,97.82,43.88,97.82,97.82v211.52ZM34.15,34.14V211.52c0,35.12,28.57,63.68,63.68,63.68h177.37V97.82c0-35.12-28.56-63.68-63.68-63.68H34.15Z"/></g></svg>