<svg xmlns="http://www.w3.org/2000/svg" viewBox="0 0 1844.03 2903.68"><defs><style>.cls-1,.cls-10,.cls-11,.cls-8,.cls-9{fill:#fff;}.cls-1{stroke:#383f54;stroke-miterlimit:10;stroke-width:26px;}.cls-2,.cls-3,.cls-5,.cls-7{fill:#383f54;}.cls-11,.cls-2,.cls-4{opacity:0.15;}.cls-10,.cls-3{opacity:0.1;}.cls-6{fill:#393f54;}.cls-7{opacity:0.3;}.cls-8{opacity:0.25;}.cls-9{opacity:0.6;}</style></defs><g id="Layer_3" data-name="Layer 3"><polygon class="cls-1" points="1452.35 1990.49 1484.73 2415.17 921.17 2886.73 357.64 2415.09 376.45 1906.85 1452.35 1990.49"/><path class="cls-2" d="M1628.2,2962.76s97.33,141.83,277.83,202.61,323.88-27.7,294.8,7-134.54,138.13-237.61,102.14-219.32-162.37-148.66-68.86,95.2,140,95.2,140L1703.3,3239.18l295.35,247.18,563.57-471.56-29-329.51Z" transform="translate(-1077.48 -599.64)"/><path class="cls-1" d="M1360.86,1116s-155.88,243.61-164,515.42S1200,1964,1200,1964s-49-29.63-78.11-1.84-16,58.58-19.37,91-4.73,60.16,7.36,109.46,36.81,124.07,53.67,167.52,22.65,50.87,29.23,80.84,63.5,87.82,113.73,64.28c0,0,42.4,244.24,221.26,401.3,186,163.35,231.11,199.19,429.94,203.86,195.72,4.59,282.21-50,360.66-117.66,104.12-89.83,298.21-193.89,339.67-472.87,0,0,52.78,27.74,108.92-31s138.52-219.28,138-311.14,14-142.74-12.49-182.23-64-56.26-102.35-41.27-.27-138.66-35.62-325,14.45-500.4-526.2-605.88S1471.92,975.53,1360.86,1116Z" transform="translate(-1077.48 -599.64)"/><path class="cls-3" d="M2892.52,1965.46c-26.44-39.48-64-56.26-102.35-41.27s-.27-138.66-35.62-325c-33.83-178.32,10.32-473.75-460-591.21-209.57,1.06-386.68,59.27-453.53,195.52,0,0,12.38,77.25,146,103.59s330.17,78.66,312.43,231.91,13,196.37-35,211.13-169,10.15-186,39.78-28.4,72.63-50.11,108.33-32.51,82.24-27.58,135.35,16.11,150.27,20.33,172.57,25.08,74-7.42,103.72-71.28,54.4-108.72,36.73-74.34-26-94-16.34-33,11.58-42.39-.12-12-26.33-12-26.33-6.61,49.47,21.86,76.55,67.76,27.68,88.72,18.84,19.61-7.42,34.43.82,18.83,6.56,15.8,22.83-13.91,93.28-16.76,106.46,7.29,13.94,19.13,17.5,22.44,3.35,33.6-1.68,10.33-7.27,6.83-27.22-14.17-122.21-6.72-95.54,16.63,68.4,22.84,85.77-1.84,22,27.54,30.67,116.67,64.65,140.87,79.21,28.07,17.41,28.07,17.41l10.39,6.08s-31.42,29.29-48.37,36.39-52.26,25.43-64.3,30.36-62.26,25.83-124.38,25.69-69.59,12.93-69.59,12.93l32,15.33s-93.82-.89-123.52,18.28,30.92-24.44,138.24,3.26S2094,2814.33,2162.87,2816s54.69-15.93,28.47,28.49S2104,3015.3,2032.14,2998s-85.26-11-129.39,6.54c-40.89,16.22-37,59.64-155.61,37.82,56.57,26.52,116.28,35.76,210.58,38,195.72,4.59,282.21-50,360.66-117.66,104.12-89.83,298.21-193.89,339.67-472.87,0,0,52.78,27.74,108.92-31s138.52-219.29,138-311.14S2919,2005,2892.52,1965.46Z" transform="translate(-1077.48 -599.64)"/><path class="cls-2" d="M2071.32,1840.81s-32.77,53.19-49.74,84.58-15.8,58.91-15.88,80.11,4.37,127.27,9.81,149.59,30.62,105.71-.69,141.62-83.2,56.06-128.44,31.06-73.23-17.71-71.62-48.58,6.17-55.94,18.71-44.6c16.35,14.78,32.58,22.84,45.3,26.68s-16.58-27.33-21.23-54.82,1-44.57,1.37-58.25-9.53,29.8-40.65,57.33-76.17,56.3-71.44,127.06c4.94,73.87,75.41,71.63,96.49,68.48s27.84-22.86,46.85-14.46,29.71,18.25,65.67,9.83,30.29-20.15,49.26-10.43,51.09,24.38,92.66,3.18,46.35-55.65,38.87-89.61-31.2-58.58-37.66-69.33-24.71-56.89-35.12-121.38-18.63-93.83.92-78.14,52.13,38.32,79.67,50.23-.13-13.25-15-39.43-29.33-39.11-17.46-36.84,40.95-4.15,64.76-2.8,47.46.37,58.54-1.36l11.08-1.72s-31.32-1.18-52.78-9-50.21-33.41-50.21-33.41,64.47-51.8,114.38-47.65,60,10.9,70.25,12.69,19.7,3.31,19.7,3.31-53.34-23.56-37.85-20.31,49.54,5.72,49.54,5.72-55-26.14-89.48-39.21-34.82-12.41-17.87-14.66,59.43-6.17,59.43-6.17-66.17-3.26-135.17,1.74S2062,1872.73,2071.32,1840.81Z" transform="translate(-1077.48 -599.64)"/><path class="cls-2" d="M1768.54,1843.26s13.33,23.35,31.93,49.2,48.61,73.36,31.25,107.17-53,57-66.13,80.13-13.3,58.2-13.13,23.09-2-57.67-2-57.67-65.89,41.72-154.38,30.59,35.81-1.92,74.36-21.54,67.26-29.55,53-29.88-39-5.23-39-5.23,28.11-12.25,48.25-23.7,50.65-13.05,32.36-24.08-43.76-26.2-65.43-34-48.17-8.76-75.81-8.75-51.54,2.1-51.54,2.1,18.46-10.49,32.9-19.09,43.14-18.53,19.6-23.72-51.21-11.8-62.09-14.05-34-4.47-34-4.47,62.16-9.43,127.34-6.9S1788.94,1878.18,1768.54,1843.26Z" transform="translate(-1077.48 -599.64)"/><g class="cls-4"><path class="cls-5" d="M2658.05,2489.82s52.78,27.74,108.92-31,138.52-219.29,138-311.14,14-142.74-12.49-182.23-64-56.26-102.35-41.27-.27-138.66-35.62-325c-28.51-150.29-1.63-383.75-274-523.76-52.72,29.23-98.15,79.57-131.9,157.4,0,0,174.25,191.33,157.55,300.45s134,385.06,118.45,594.69-11.52,488.8-136.49,620.09S2269,2978.85,2204.67,3009.74s-89.43,61-238.35,68c-10.79.51-20.15,1.21-28.38,2.06,6.43.23,13,.43,19.78.59,195.72,4.59,282.21-50,360.66-117.66C2422.5,2872.86,2616.59,2768.8,2658.05,2489.82Z" transform="translate(-1077.48 -599.64)"/><path class="cls-5" d="M1109.89,2162.55c12.08,49.3,36.81,124.07,53.67,167.52s22.65,50.87,29.23,80.84,63.5,87.82,113.73,64.28c0,0,42.4,244.24,221.26,401.3,54.28,47.67,96.55,84.46,134.16,112.8a21.35,21.35,0,0,0,3.44-2.25c3.4-3.9-252.29-284.14-278.43-467.57s-80.88-502.61-39.24-695.72-25.61-374.85,101.66-491.08c96.75-88.36,11.43-184-142.36-116.77-45.9,96-105.24,250.57-110.2,415.5-8.17,271.82,3.2,332.58,3.2,332.58s-49-29.63-78.11-1.84-16,58.58-19.37,91S1097.8,2113.25,1109.89,2162.55Z" transform="translate(-1077.48 -599.64)"/></g><path class="cls-5" d="M1393.29,1914.89s40.93-39.65,124.5-44.81,157.31-.48,198.8,2.84c63.19,5,70.1-1.11,61.36-18.07-16.25-31.56-11.43-40.47-74-43.56s-108.67-6.55-137-10.12-80.31-3.69-121.47,19.41-64.34,37.31-73.86,78.07S1363.44,1946,1393.29,1914.89Z" transform="translate(-1077.48 -599.64)"/><path class="cls-5" d="M2486.88,1869.8s-38.36-16.81-137.65-19.15-168,3.62-214.82,8.85c-51.47,5.74-79.47,8.94-58.27-28.53,20.16-35.65,18.88-32.89,66.19-35.53,30-1.68,104.29-13,135.5-16.24s70-16.68,133.58,9.33c41.89,17.13,84.25,37.27,107.08,74.72C2535.28,1890.81,2528.76,1888.83,2486.88,1869.8Z" transform="translate(-1077.48 -599.64)"/><path class="cls-5" d="M1915.27,2380s15.85,8.72,39.63-6.87,40.2-30.76,47.42-35.42,26-11.21,41.16-2c14.28,8.68,30.36,23.76,15.9,23.42-17.54-.42-23.86,13.56-37.74,10s-23.75-8.84-32.06-5.19c-4.67,2-13.89,5.95-22.2,10.43s-24.77,18-43.69,14S1895.39,2368.4,1915.27,2380Z" transform="translate(-1077.48 -599.64)"/><path class="cls-5" d="M1879.31,2357.14c-1.33-1.42-19.93-13.54-31.86-19.46-7.87-3.91-15.73-4-25.34-.11-9.89,4.06-27,12-12.46,13.59,9.58,1,15.74,19.26,26.62,17.62s21.65-7.7,31.31-6.67S1886.91,2365.23,1879.31,2357.14Z" transform="translate(-1077.48 -599.64)"/><path class="cls-6" d="M2038.39,2392.42a72.35,72.35,0,0,0,29.1-1.22,80.57,80.57,0,0,0,25.94-11.58c1-.63,2-1.34,2.9-2s1.9-1.42,2.83-2.15a54.49,54.49,0,0,0,5.21-4.54,56.18,56.18,0,0,0,8.43-10.72,63.25,63.25,0,0,0,8.56-25.89,79.14,79.14,0,0,0,.38-14,101.43,101.43,0,0,0-1.75-14,142.31,142.31,0,0,0-8.49-27.46c-7.44-17.93-17.91-34.75-29.26-51.18,1.85,1.68,3.64,3.42,5.43,5.18s3.49,3.59,5.2,5.43c3.41,3.68,6.65,7.53,9.75,11.5a162.22,162.22,0,0,1,16.41,25.57,131.69,131.69,0,0,1,6.24,14,117.47,117.47,0,0,1,4.53,14.82,102.62,102.62,0,0,1,2.37,15.47,88.23,88.23,0,0,1-.28,15.83,76.63,76.63,0,0,1-3.5,15.6,66,66,0,0,1-7.09,14.46,61.37,61.37,0,0,1-10.54,12.19,60.29,60.29,0,0,1-6.32,4.88c-1.08.73-2.16,1.47-3.28,2.13s-2.21,1.38-3.36,2a81.17,81.17,0,0,1-14.27,6.33,74,74,0,0,1-15.16,3.28c-2.57.24-5.14.39-7.7.38a64.94,64.94,0,0,1-7.65-.51A51.83,51.83,0,0,1,2038.39,2392.42Z" transform="translate(-1077.48 -599.64)"/><path class="cls-6" d="M1833.7,2393.34a53.9,53.9,0,0,1-13.8,3.37,61.43,61.43,0,0,1-14.47,0,57.43,57.43,0,0,1-14.3-3.62,55.75,55.75,0,0,1-13-7.37c-8.06-6.06-14.3-14.23-18.89-23a72.52,72.52,0,0,1-5.56-13.94,81.41,81.41,0,0,1-2.61-14.72,97.68,97.68,0,0,1,2.33-29.3,126.71,126.71,0,0,1,9.72-27.24,140.9,140.9,0,0,1,34.42-44.94,212.42,212.42,0,0,0-26.85,48.25,146.79,146.79,0,0,0-7.5,26,99.58,99.58,0,0,0-1.57,26.4,69.84,69.84,0,0,0,6.66,25,66.13,66.13,0,0,0,15.18,21,55.55,55.55,0,0,0,23,12.3A72.38,72.38,0,0,0,1833.7,2393.34Z" transform="translate(-1077.48 -599.64)"/><path class="cls-6" d="M1672.37,2634.17c6.29,0,11.56,0,16.46-.37a65.78,65.78,0,0,0,13.12-2.08c.49-.16,1-.28,1.47-.46l1.66-.58c1.33-.45,2.67-.91,4-1.32l4-1.16,4-1c5.38-1.26,10.82-2.17,16.26-3s10.88-1.61,16.25-2.61,10.7-2.19,16-3.55l15.82-4c5.32-1.34,10.71-2.73,16.12-3.92s10.87-2.29,16.36-3.27,11-1.76,16.66-2.38a148.33,148.33,0,0,1,34.43-.18c10.91,1.44,21.58,2.95,32.16,4.12s21.13,1.85,31.72,2.16c5.3.11,10.61.19,15.92.15s10.63-.09,16-.22c10.77-.23,21.52-.57,32.45-1s22.18-.88,33.71.19a134.24,134.24,0,0,1,17,2.82c5.3,1.24,10.59,2.49,15.89,3.68s10.61,2.31,15.92,3.42,10.64,2.1,16,3.11,10.66,1.91,16,2.77c2.66.43,5.33.85,8,1.24s5.32.73,8,1a149.56,149.56,0,0,0,15.89.63h4.13c1.42,0,2.84.06,4.26.15a84.69,84.69,0,0,1,8.44.9,98.83,98.83,0,0,1,15.72,3.81c2.39.78,4.58,1.61,7,2.25,1.19.32,2.45.59,3.82.82s2.85.37,4.48.54a15.82,15.82,0,0,1-7.12,6.52,26.78,26.78,0,0,1-9.34,2.38,50.57,50.57,0,0,1-8.63,0c-2.73-.21-5.38-.46-8-.77s-5.2-.61-7.79-1l-3.89-.52-4-.56c-5.68-.77-11.12-1.93-16.6-2.85s-10.9-1.77-16.3-2.77-10.8-2-16.18-3-10.74-2.14-16.09-3.25-10.72-2.18-16.06-3.29l-16-3.29c-2.59-.49-5.09-1-7.65-1.31-1.27-.19-2.55-.29-3.82-.4s-2.56-.21-3.84-.26c-10.23-.54-20.75.77-31.55,2.12s-21.76,2.74-32.74,3.63c-2.74.27-5.52.39-8.3.57s-5.56.28-8.35.38c-5.57.17-11.16.15-16.75,0a295.67,295.67,0,0,1-33.41-2.94c-11-1.52-21.85-3.7-32.46-5.66a134.39,134.39,0,0,0-30.77-1.65c-5.25.23-10.52.75-15.8,1.39-2.63.32-5.27.67-7.91,1.08s-5.26.88-7.89,1.36c-5.26,1-10.5,2.05-15.76,3.3l-15.93,3.72c-5.32,1.19-10.59,2.54-15.79,4.14s-10.35,3.41-15.47,5.26-10.22,3.67-15.35,5.27l-3.84,1.17-3.84,1.09-3.83,1-2.26.56c-.82.23-1.67.34-2.5.51a34.07,34.07,0,0,1-10,.22,33.56,33.56,0,0,1-9.3-2.59,32.65,32.65,0,0,1-7.93-5,29.29,29.29,0,0,1-3.29-3.3A19.33,19.33,0,0,1,1672.37,2634.17Z" transform="translate(-1077.48 -599.64)"/><path class="cls-6" d="M1799.14,2691.78a62.54,62.54,0,0,0,7.56,3.65c2.57,1.09,5.17,2.08,7.81,3a149.21,149.21,0,0,0,16,4.46,235.55,235.55,0,0,0,32.75,4.93c5.49.54,11,.68,16.53,1l8.29.1,4.15.07h4.24c5.65,0,11.29.17,16.92.33s11.25.45,16.86.69c22.42,1,44.67,2.63,66.74,1.84a194.16,194.16,0,0,0,32.8-3.71,132.6,132.6,0,0,0,31.51-10.74,103.6,103.6,0,0,1-30.14,15.76,158.72,158.72,0,0,1-33.57,7q-8.52.92-17,1.22c-5.68.24-11.36.3-17,.27s-11.31-.18-16.94-.36l-16.84-.7-16.78-.83c-5.59-.3-11.16-.51-16.73-.75l-4.18-.17-4.26-.22c-2.85-.14-5.69-.32-8.54-.51l-8.51-.87c-2.84-.25-5.66-.78-8.48-1.17a183.78,183.78,0,0,1-33.21-8.2,129.83,129.83,0,0,1-15.71-6.74A71,71,0,0,1,1799.14,2691.78Z" transform="translate(-1077.48 -599.64)"/><path class="cls-5" d="M1709.93,2010.45s20.66-5.48,43.27-9.58,48.62-10.45,32.69-23.41-40.31-23.25-56-31.9-56.11-36.2-106.8-21.28c-48.11,14.16-70.78,14.62-98,44.94-23.08,25.71-48.26,42.54-37.46,41.51,16.86-1.61,48.1,17.25,76.9,17.93s-6.35-2.14-22.59-15.77-17.56-11.4-14.88-14.87c2.18-2.83,13.87-29.53,46.28-43.34,0,0-2.28,31.13,23.23,51.76,24.73,20,52.6,16.54,67.36,8.72s41.51-39.92,23.64-73.24c0,0,26.67,11,35.78,17.84s19.94,12.93,17.57,15-7.81,13.53-10.47,14.13-9.06-1.87-12.72,5.49S1685.73,2018.32,1709.93,2010.45Z" transform="translate(-1077.48 -599.64)"/><path class="cls-5" d="M2196.48,1994s-10.8-.7-36.52-5.5c-25-4.66-62.86-7.33-42.28-23.08s41.78-30.47,52.89-38.16,63.56-38.11,109.24-25.91c76.13,20.34,98.64,39.42,126.37,62.15s39,30.1,27.15,28.41c-18.48-2.64-42.21,1.49-55.74,4s-28,9-47.91,9.47,3.87-4.77,13.71-10.06,28.06-19.65,28.63-15.51c.11.78-14.11-24.44-29.34-34.29,0,0-5.74,46.27-53.41,50.84-47.14,4.52-76-40.63-65.8-75.22,0,0-28.95,10.84-42.19,20s-19.33,14.56-16.1,18,7,11.86,10.44,16.14,3.88,4,9.43,2.76,7,.36,10.58,5.33C2201.08,1991,2227.11,2001.33,2196.48,1994Z" transform="translate(-1077.48 -599.64)"/><path class="cls-6" d="M1468.73,1991.07a62.26,62.26,0,0,1,5.55-8.43c1-1.35,2.07-2.65,3.17-3.92s2.21-2.54,3.36-3.76a118.55,118.55,0,0,1,15-13.43c2.62-2.11,5.43-4,8.17-6,1.39-1,2.83-1.84,4.25-2.76s2.84-1.86,4.33-2.67c3-1.67,5.84-3.45,8.92-4.9l4.58-2.27,4.7-2,2.36-1a24.57,24.57,0,0,1,2.39-.92l4.85-1.68,2.42-.84c.81-.27,1.58-.49,2.38-.74l4.73-1.45,19-5.71c12.67-3.78,25.42-7.42,38.33-10.71a378.65,378.65,0,0,1,39.31-8.05l5-.68,4.91-.63c3.29-.4,6.57-.85,9.91-1.2s6.71-.64,10.09-.86l5.1-.25,5.14,0c1.71,0,3.43.13,5.15.19s3.43.23,5.14.39c3.43.28,6.81.91,10.19,1.45,3.35.72,6.71,1.36,10,2.35,1.64.48,3.31.86,4.9,1.43l4.83,1.6c1.61.5,3.17,1.15,4.74,1.77s3.14,1.24,4.69,1.9c3,1.42,6.08,2.87,9,4.45s5.82,3.34,8.62,5.16,5.52,3.82,8.13,6c-13-3.45-25.24-8-37.67-11.49l-4.66-1.24c-.77-.22-1.55-.4-2.34-.56l-2.34-.49c-3.12-.73-6.28-1.17-9.41-1.7a133.48,133.48,0,0,0-19-1.08,187.07,187.07,0,0,0-19.17,1.51c-3.22.36-6.47.81-9.74,1.23l-4.9.66-4.82.68c-6.41,1-12.81,2.1-19.18,3.4s-12.73,2.8-19.08,4.38c-12.69,3.16-25.33,6.81-38,10.42l-19,5.47-4.76,1.35c-.79.22-1.6.44-2.37.67l-2.27.72-4.55,1.44c-.77.22-1.51.5-2.25.79l-2.24.85a164.7,164.7,0,0,0-34.07,17.82c-5.37,3.6-10.54,7.51-15.78,11.4S1474.1,1987,1468.73,1991.07Z" transform="translate(-1077.48 -599.64)"/><path class="cls-6" d="M2456.84,1977.71c-3.11-2.84-6.47-5.3-9.65-7.92l-9.68-7.63c-6.42-5.06-12.88-10.05-19.59-14.69a260,260,0,0,0-42.71-23.69c-.94-.41-1.85-.88-2.8-1.24l-2.84-1.12-5.69-2.25c-1-.36-1.89-.78-2.85-1.09l-2.91-1-5.8-1.94-2.9-1-3-.92-6-1.85-11.89-3.77c-7.9-2.54-15.82-4.92-23.75-7.24s-15.92-4.36-23.93-6.24-16.08-3.42-24.2-4.51c-2-.25-4.05-.58-6.08-.78l-6.09-.64c-2-.18-4.06-.27-6.09-.41l-3-.19-3-.08a194.46,194.46,0,0,0-24.17.63,177.92,177.92,0,0,0-23.58,3.62,154.94,154.94,0,0,0-22.62,6.77l-5.47,2.19c-.93.34-1.79.83-2.68,1.23l-2.68,1.24-2.69,1.23-2.62,1.38-5.26,2.74-5.14,3-2.6,1.48-2.51,1.64-5.1,3.22-5,3.47c-3.43,2.21-6.58,4.81-10,7.21l-1.27.9c-.42.31-.81.65-1.22,1l-2.47,1.92c-1.67,1.28-3.37,2.53-5.14,3.77q1.45-2.84,3.06-5.61a63.11,63.11,0,0,1,3.38-5.43c1.24-1.73,2.49-3.47,3.78-5.18.66-.84,1.25-1.76,2-2.54l2.12-2.42c1.42-1.61,2.88-3.19,4.35-4.78l4.72-4.42,2.41-2.18,2.55-2,5.18-4,5.49-3.54c.92-.59,1.83-1.18,2.78-1.73l2.89-1.54c1.93-1,3.84-2.08,5.82-3l6-2.62c2-.91,4.09-1.53,6.14-2.29s4.11-1.5,6.23-2l6.31-1.72c2.13-.47,4.26-.88,6.39-1.32a145,145,0,0,1,25.8-2.47,192.91,192.91,0,0,1,25.6,1.39,384.68,384.68,0,0,1,49.62,9.67c8.13,2,16.18,4.27,24.18,6.63s16,4.78,23.93,7.16l11.91,3.58,5.95,1.75,3,.87,3,1,6,1.92,3,1c1,.32,2,.73,3,1.09l5.92,2.24,3,1.13c1,.36,1.94.83,2.91,1.24a222.41,222.41,0,0,1,44,24.94c6.76,5.06,13.49,10.2,19.37,16.3a105.36,105.36,0,0,1,8.32,9.58c1.28,1.7,2.5,3.44,3.63,5.24A30.83,30.83,0,0,1,2456.84,1977.71Z" transform="translate(-1077.48 -599.64)"/><path class="cls-7" d="M1206.86,2319.3s-19.77-32-25.64-63.88-13.19-96.13-2.69-129.44,3.72,1.52,5.92,20.45,10.71-19,25.16-27.56,17.58-15.81,11,3.57-15.31,52.85-13,68.69-6.08-6.88-2.23-30.63c0,0-11.7,19.16-9.16,35.55s13.66,53.06,21.13,66.44,28.12,24.8,31.48,28.85,17.79,9.57,21.58,10.38,5.55-3.71,4.24-11.59-4.93-26-4.85-32.57a39.6,39.6,0,0,0-5.51-19.71c-3.35-5.49-9.92-21.32-8.38-34.15s15.48-42.34-.62-69-52.78-78.52-78.92-98.38-32.64-24.87-32.51-7,9.7,32.31,6.44,51.37-7.34,27.13-4.65,40,9.19,36,9.16,40.23,2.34,39.83,8.81,63.53S1179.83,2294.5,1206.86,2319.3Z" transform="translate(-1077.48 -599.64)"/><path class="cls-7" d="M2835.94,2262s13.41-47.85,6.31-84.12-20.54-55.79-35.27-77-18.92-26.28-18.65-24,9,24.39,11.06,36.69-12.84-3.28-25-7.21-16.42-4.36-16.42-4.36,28.07,44,28.26,64.25l.18,20.21s7.64-29,3.66-42.64,14.74,12.08,18.65,26.18,1.51,44.77-5.76,61.14-10.33,32.79-39.27,36.5-36.87,1.07-47.88,10.77-21.76,23.77-17.61,7,11.39-33.91,13.45-48.89,15.86-27.86,9.26-47.17a191,191,0,0,0-15.55-33.93l8.39,8.48s-11.49-12.48-3.77-33.51,42.36-69.2,55.77-84.73,45.08-52.17,57.76-56.26,22.83,13.09,25.75,24.66,5.23,18.88,2.16,43.43-3.91,42.25-2.59,52,.09,66.57,3.85,75.6S2849.15,2239.92,2835.94,2262Z" transform="translate(-1077.48 -599.64)"/><path class="cls-6" d="M1230.94,2338a104.59,104.59,0,0,1-16-8.21,125.42,125.42,0,0,1-14.71-10.68,104.32,104.32,0,0,1-13-13.2c-1-1.24-2-2.47-2.91-3.73s-1.78-2.64-2.67-4l-1.32-2-1.17-2.12c-.76-1.41-1.58-2.88-2.26-4.27-2.62-5.49-5-11-7.24-16.58s-4.28-11.19-6.24-16.85-3.7-11.39-5.41-17.14-3.16-11.57-4.56-17.42-2.55-11.77-3.61-17.72-1.85-12-2.41-18.07a168.27,168.27,0,0,1-.77-18.44c0-1.56.05-3.11.15-4.68s.14-3.13.33-4.71.32-3.15.57-4.73l.35-2.37.47-2.39c.28-1.58.69-3.19,1.13-4.77l.32-1.18.32-1.06.66-2.12c.88-2.82,1.75-5.65,2.68-8.46q2.73-8.45,5.74-16.82c2-5.58,4.09-11.14,6.31-16.65s4.54-11,7.09-16.39c-1.2,11.88-2.85,23.58-4.57,35.26-.89,5.83-1.78,11.66-2.72,17.46-.45,2.91-1,5.81-1.44,8.71l-.36,2.17-.18,1.09-.12,1c-.16,1.3-.37,2.57-.44,3.91-.8,10.63.29,21.91,1.94,33.09.85,5.6,1.79,11.23,3,16.83s2.32,11.24,3.65,16.84,2.68,11.21,4.14,16.79,3,11.17,4.52,16.75c3.14,11.13,6.48,22.27,10.17,33.1a83.54,83.54,0,0,0,6.83,14.68l.5.91.56.87,1.13,1.76c.75,1.17,1.5,2.35,2.33,3.49l2.46,3.45c.87,1.12,1.75,2.23,2.62,3.37A205.11,205.11,0,0,0,1230.94,2338Z" transform="translate(-1077.48 -599.64)"/><path class="cls-6" d="M1155.09,2155a159.24,159.24,0,0,1-8.94-19.5c-.66-1.67-1.24-3.38-1.84-5.09s-1.13-3.45-1.6-5.22a66.31,66.31,0,0,1-2.23-11c-.08-1-.19-2-.2-3l.1-3.19c.18-1.85.37-3.68.6-5.47l1.41-10.48c.43-3.43.77-6.78,1-10.09a94.45,94.45,0,0,0,.08-9.8,68.5,68.5,0,0,0-1.11-9.45c-.32-1.54-.63-3.08-1-4.59l-.64-2.26c-.19-.69-.47-1.6-.74-2.48-1.06-3.5-2.07-7.06-2.88-10.74a85.73,85.73,0,0,1-1.88-11.62,37.48,37.48,0,0,1,0-6.79,23.39,23.39,0,0,1,.78-4.16l.36-1.16c.16-.42.35-.86.54-1.29l.29-.64c.1-.21.26-.46.39-.69.28-.47.56-.93.87-1.38a13.77,13.77,0,0,1,6.32-4.74,14,14,0,0,1,3.66-.75l.85-.05a6.89,6.89,0,0,1,.8,0c.49,0,1,.07,1.46.12a10.17,10.17,0,0,1,1.32.21l1.21.28c.78.2,1.4.44,2.11.68a30.45,30.45,0,0,1,3.46,1.57,45.33,45.33,0,0,1,5.52,3.47c1.48,1.09,3,2.18,4.45,3.29l4.33,3.36,4.25,3.41c5.57,4.65,10.95,9.46,16.22,14.4s10.34,10.09,15.24,15.41,9.68,10.8,14.13,16.59c2.26,2.86,4.42,5.85,6.54,8.85l3.06,4.62c1,1.57,2,3.19,2.91,4.78l10.62,18.23a193.6,193.6,0,0,1,10,19.27,77,77,0,0,1,6.13,21.26c.19,1.84.29,3.69.41,5.51,0,1.84-.07,3.67-.15,5.48-.24,1.82-.45,3.61-.71,5.39s-.79,3.51-1.21,5.23a64.29,64.29,0,0,0-3.39-20.48,82.25,82.25,0,0,0-9.12-18.11c-3.69-5.72-7.88-11.21-12.13-16.8q-3.21-4.15-6.42-8.45c-1.06-1.44-2.14-2.85-3.19-4.32l-1.58-2.19c-.53-.74-1-1.48-1.54-2.13l-3-4-3.17-3.94c-2.18-2.59-4.33-5.2-6.65-7.72-4.58-5.05-9.29-10-14.23-14.84s-9.87-9.62-15-14.2-10.29-9.19-15.59-13.55l-4-3.25-4-3.17c-1.33-1-2.68-2-4-3a35,35,0,0,0-3.39-2.24,7.64,7.64,0,0,0-.71-.39c-.2-.08-.46-.24-.61-.29s-.33-.14-.4-.16l-.07,0s-.06,0,0,0h.48a4.41,4.41,0,0,0,1.06-.27,4.29,4.29,0,0,0,2.15-1.6.93.93,0,0,0,.18-.26s0-.11,0-.13,0,0,0,0a.06.06,0,0,0,0-.07.19.19,0,0,1,0,.1,4.75,4.75,0,0,0-.23,1,24,24,0,0,0-.15,3.78,68.65,68.65,0,0,0,1,9.34c.58,3.24,1.2,6.55,2,9.86.37,1.54.79,3.66,1.18,5.54.22,1,.31,1.94.46,2.91s.31,1.94.37,2.92a84.32,84.32,0,0,1,.28,11.66,89.5,89.5,0,0,1-1.3,11.32c-.65,3.69-1.43,7.31-2.38,10.81s-1.88,6.93-2.83,10.26c-.48,1.67-.91,3.31-1.32,4.94l-.39,2.09c-.11.73-.13,1.53-.22,2.3a63.22,63.22,0,0,0,.27,9.95c.11,1.71.37,3.42.56,5.14s.45,3.45.75,5.18c.53,3.45,1.17,6.92,1.83,10.39S1154.35,2151.52,1155.09,2155Z" transform="translate(-1077.48 -599.64)"/><path class="cls-6" d="M1264.68,2170.84c-1.3,6.29-2.37,12.57-3.28,18.8a133.28,133.28,0,0,0-1.48,18.47,48.7,48.7,0,0,0,.7,8.62,25.15,25.15,0,0,0,1,3.74,13,13,0,0,0,.69,1.54l.18.35.09.18.14.24.55,1c1.48,2.57,3,5,4.77,7.46a90.74,90.74,0,0,1,5.65,8.45c.48.81.89,1.74,1.33,2.63s.77,1.85,1.13,2.79.63,1.91.87,2.86.49,1.91.66,2.84.33,1.86.46,2.79l.28,2.73c.09.91.1,1.77.16,2.66l.13,2.36a82.19,82.19,0,0,0,1.11,8.41c.5,2.93,1.14,5.94,1.79,9s1.31,6.28,1.86,9.71c.27,1.73.51,3.53.64,5.57a30.5,30.5,0,0,1,0,3.35l-.07,1,0,.49-.09.57-.19,1.14c-.07.37-.22.9-.35,1.33a14.21,14.21,0,0,1-1.32,3.08,12.37,12.37,0,0,1-3.13,3.51c-.35.26-.7.51-1.06.74s-.75.39-1.14.57a11.23,11.23,0,0,1-2.29.8,16.83,16.83,0,0,1-2.13.32c-.6,0-1.13,0-1.7,0a17.38,17.38,0,0,1-4.91-1.07l-.5-.17-.3-.12-.59-.24-1.18-.47c-3.15-1.28-6.25-2.66-9.29-4.17a134,134,0,0,1-17.51-10.52,103.33,103.33,0,0,1-15.54-13.63l-1.78-1.9-1.67-2-1.66-2-.83-1-.76-1.07c-1-1.43-2-2.85-3-4.3s-1.79-3-2.68-4.55a43.94,43.94,0,0,1-2.41-4.68l-1.13-2.39c-.18-.4-.38-.79-.55-1.19l-.45-1.24-1.78-5c-.55-1.62-.94-3.11-1.42-4.67-.94-3.08-1.75-6.23-2.58-9.35l-1.19-4.73c-.39-1.58-.72-3.18-1.07-4.77a139.58,139.58,0,0,1-2.89-19.55,75.45,75.45,0,0,1,1.07-19.9,46,46,0,0,1,1.18-4.83c.4-1.6,1.06-3.14,1.6-4.68.27-.77.64-1.51,1-2.25l1-2.2c.74-1.45,1.59-2.83,2.4-4.21a65.74,65.74,0,0,0-2,18.62,84.58,84.58,0,0,0,2.78,18.05c3.07,11.83,7.69,23.38,12.49,35,.6,1.42,1.19,3,1.8,4.29l1.86,3.85.45,1c.16.31.35.61.53.92l1.07,1.85a33.9,33.9,0,0,0,2.25,3.61,77.23,77.23,0,0,0,11,13.07l1.56,1.49.78.75.82.7,3.3,2.83,3.45,2.66c1.16.87,2.4,1.67,3.58,2.51a122.75,122.75,0,0,0,15.23,8.91c2.64,1.34,5.33,2.58,8.05,3.72l1,.42.51.21.26.11.07,0c.19.08.32.07-.3,0a2.33,2.33,0,0,0-.52,0,3.41,3.41,0,0,0-1,.14,8.59,8.59,0,0,0-1.17.4,3.78,3.78,0,0,0-.59.34,5.27,5.27,0,0,0-.59.37,5.8,5.8,0,0,0-1.56,1.76,4.07,4.07,0,0,0-.4.88,1.52,1.52,0,0,0,0,.19s0,0,0,0h0v-.11l0-.21a12,12,0,0,0,0-1.41c0-1.14-.15-2.5-.32-3.9-.35-2.86-.87-5.92-1.34-9.08-.93-6.34-2-12.93-1.94-20.31l.06-2.41c0-.69.07-1.42,0-2.1l0-2-.13-1.94a21.68,21.68,0,0,0-1.67-7c-1-2.29-2.49-5-4.07-7.93a79.85,79.85,0,0,1-4.31-9.27l-.46-1.19-.12-.3-.13-.37-.25-.76a25.35,25.35,0,0,1-.79-3,32.08,32.08,0,0,1-.56-5.65,55.69,55.69,0,0,1,.93-10.41,105.56,105.56,0,0,1,5.54-18.93A132.54,132.54,0,0,1,1264.68,2170.84Z" transform="translate(-1077.48 -599.64)"/><path class="cls-6" d="M2790.19,2335.3c0-1.5,0-3,0-4.51l.12-2.26c.06-.76.15-1.52.22-2.28a30.94,30.94,0,0,1,2.47-9.14,49.59,49.59,0,0,1,4.87-8.09l5.19-7.23c3.41-4.74,6.67-9.56,9.76-14.39s6-9.82,8.7-14.83a217.08,217.08,0,0,0,13.89-30.94c1-2.62,1.74-5.31,2.62-8,.45-1.32.78-2.67,1.13-4l1-4c.65-2.69,1.16-5.39,1.76-8.08.43-2.71.82-5.43,1.21-8.14.22-2.71.54-5.43.71-8.14l.08-4.08,0-2a19.64,19.64,0,0,0,0-2l-.18-4.06-.09-2,0-1-.12-1-.48-4.11c-.19-1.37-.26-2.75-.53-4.12l-.68-4.1c-.23-1.37-.44-2.75-.78-4.11s-.63-2.72-.91-4.09l-.44-2.06-.54-2c-.73-2.72-1.41-5.46-2.29-8.16l-1.22-4.1-1.37-4.08c-3.61-10.9-8-21.77-12.08-33-2-5.6-3.9-11.38-5.45-17.21a81.08,81.08,0,0,1-2.64-17.91,135.36,135.36,0,0,0,7.45,16c2.89,5.12,5.79,10.16,8.88,15.22a350.25,350.25,0,0,1,17.36,31.46,156.48,156.48,0,0,1,12,35.09c.4,1.52.59,3.08.84,4.64l.73,4.67.18,1.17.1,1.19.2,2.39.38,4.79a19.24,19.24,0,0,1,.07,2.4v2.39l0,4.79c-.16,3.18-.47,6.35-.72,9.52-.49,3.13-1,6.27-1.52,9.38l-1,4.62-.52,2.31a22.44,22.44,0,0,1-.59,2.28,153.92,153.92,0,0,1-6.13,17.73l-1.84,4.28c-.61,1.43-1.33,2.8-2,4.21s-1.34,2.79-2.06,4.16l-2.24,4.05c-1.45,2.73-3.09,5.33-4.69,8-.79,1.32-1.69,2.56-2.53,3.85s-1.68,2.56-2.58,3.8c-1.78,2.5-3.59,5-5.5,7.35s-3.83,4.76-5.82,7.07c-4,4.6-8.26,8.93-12.65,13.08-2.2,2-4.43,4.08-6.59,6a54.93,54.93,0,0,0-5.88,6C2794.07,2323.93,2792.1,2329.64,2790.19,2335.3Z" transform="translate(-1077.48 -599.64)"/><path class="cls-6" d="M2850.45,2171c-.33-4.2-.57-8.38-.93-12.56s-.65-8.35-1-12.51-.74-8.3-1.19-12.43l-.7-6.16c-.29-2-.51-4.08-.86-6.09l-.47-3-.56-2.95c-.17-1-.4-1.94-.63-2.88s-.44-1.8-.7-3a74.79,74.79,0,0,1-1.77-13.4,187.21,187.21,0,0,1,.7-25.92c.37-4.24.8-8.46,1.25-12.63s1-8.32,1.36-12.33c.11-1,.17-2,.26-3l.05-.72v-.53l0-.54,0-.61c0-1.63-.17-3.46-.4-5.3a85.56,85.56,0,0,0-2.14-11.15,89.42,89.42,0,0,0-3.5-10.67,41.94,41.94,0,0,0-4.91-9,12.63,12.63,0,0,0-5.25-4.61,5.26,5.26,0,0,0-2.1-.25,8.27,8.27,0,0,0-1.34.32c-.25.09-.5.15-.76.23l-.84.41a12.86,12.86,0,0,0-1.79,1,16.24,16.24,0,0,0-1.88,1.29c-.33.25-.61.42-1,.73l-1.1.9-2.21,1.9c-3,2.58-5.9,5.38-8.81,8.2-5.88,5.62-11.58,11.55-17.26,17.52-11.33,12-22.33,24.31-33,36.9s-21,25.51-30.47,39a182.25,182.25,0,0,0-12.89,20.94,65.68,65.68,0,0,0-4.64,11.27c-1.14,3.86-1.83,8-.55,12.06a14.94,14.94,0,0,1-2.08-6.05,32.18,32.18,0,0,1-.13-6.51,61.36,61.36,0,0,1,2.6-12.69,149.19,149.19,0,0,1,9.86-23.69,349.33,349.33,0,0,1,26.79-43.27q3.7-5.16,7.5-10.25c2.55-3.37,5.16-6.71,7.78-10,5.23-6.66,10.7-13.12,16.26-19.52s11.38-12.61,17.4-18.72c3-3,6.15-6,9.46-9,.82-.73,1.67-1.47,2.52-2.2l1.32-1.1c.43-.36,1-.78,1.51-1.16a32.55,32.55,0,0,1,3.27-2.28,28.29,28.29,0,0,1,3.71-2l2-.89c.73-.25,1.48-.48,2.23-.71a25.61,25.61,0,0,1,4.78-.95,23.6,23.6,0,0,1,10.22,1.35,17.73,17.73,0,0,1,2.31,1l1.12.56c.37.19.68.42,1,.63.67.43,1.34.87,2,1.32l1.74,1.45a17.62,17.62,0,0,1,1.59,1.5c.49.51,1,1,1.47,1.54a37.74,37.74,0,0,1,2.48,3.2,59.3,59.3,0,0,1,6.78,13.1,89.16,89.16,0,0,1,3.88,13.26,101.37,101.37,0,0,1,2,13.56,59,59,0,0,1,.16,7.22l0,1-.09,1-.1,1-.12.84c-.16,1.09-.31,2.22-.49,3.27-.68,4.28-1.42,8.39-2.18,12.49s-1.5,8.16-2.18,12.21-1.31,8.07-1.84,12.09-.95,8-1.14,12a70.4,70.4,0,0,0,.17,11.56c.06.86.21,2.09.32,3.18s.25,2.24.29,3.32l.19,3.27.07,3.23a251.86,251.86,0,0,1-1.15,25.43Q2852.55,2158.57,2850.45,2171Z" transform="translate(-1077.48 -599.64)"/><path class="cls-6" d="M2701.38,2150.39a87.53,87.53,0,0,1,14.74,17.6,69.23,69.23,0,0,1,9.43,21.76,50,50,0,0,1,1.24,12.42l-.05,1.6-.16,1.6-.18,1.6-.28,1.6-.3,1.59-.4,1.58-.42,1.59-.37,1.33c-1,3.56-2,7.11-2.89,10.67s-1.67,7.12-2.46,10.67c-1.51,7.13-2.53,14.32-4,22-.71,3.82-1.53,7.73-2.58,11.57l-1.51,5.5-1.44,5.35-1.33,5.27c-.43,1.72-.81,3.42-1.08,4.94-.12.72-.22,1.46-.23,1.78v.1a.23.23,0,0,0,0,0,2.24,2.24,0,0,0,0-.52,4,4,0,0,0-.19-.91l-.14-.47c-.06-.18-.12-.35-.2-.53a4.59,4.59,0,0,0-.24-.5l-.37-.63a7.65,7.65,0,0,0-1.5-1.76,10.76,10.76,0,0,0-1.07-.81,8.64,8.64,0,0,0-1.42-.73,7.83,7.83,0,0,0-1.51-.44,8.47,8.47,0,0,0-1.16-.16,8,8,0,0,0-2.26.18,6.4,6.4,0,0,0-1,.28,4.4,4.4,0,0,0-.5.21l-.38.18a4.25,4.25,0,0,0-.74.44l-.27.19-.11.09s0,0,0,0,.09-.11.25-.3l.81-1c.37-.46.73-.86,1.1-1.29a96.73,96.73,0,0,1,8.92-8.68,108.4,108.4,0,0,1,9.74-7.57c1.74-1.18,3.56-2.31,5.54-3.39a38.29,38.29,0,0,1,6.76-3,22,22,0,0,1,4.78-1,14.85,14.85,0,0,1,1.56-.06l.84,0,.49,0,1.15.08c1.63.08,3.4.1,5.15.11a133.78,133.78,0,0,0,21-1.48,75.73,75.73,0,0,0,9.88-2.13,42.47,42.47,0,0,0,8.56-3.44,19.16,19.16,0,0,0,3.25-2.26,4.87,4.87,0,0,0,.66-.61,5.64,5.64,0,0,0,.59-.61l.53-.63c.21-.27.46-.64.69-1a81.84,81.84,0,0,0,5.34-8.88c1.65-3.14,3.24-6.37,4.71-9.66s2.78-6.65,4-10,2.37-6.84,3.36-10.31,1.86-7,2.53-10.54a104.29,104.29,0,0,0,1.5-10.72,78.27,78.27,0,0,0,.1-10.83,53.55,53.55,0,0,0-1.76-10.77,47.54,47.54,0,0,0-4.13-10.37,45.91,45.91,0,0,1,11,20.27,72.46,72.46,0,0,1,2.07,11.63,101,101,0,0,1,.3,11.8,124.2,124.2,0,0,1-3.26,23.29c-.88,3.83-1.94,7.61-3.15,11.35s-2.54,7.46-4.11,11.12a98,98,0,0,1-5.37,11c-.28.47-.51.9-.84,1.41l-1.15,1.64c-.38.56-.82,1-1.24,1.52a14.76,14.76,0,0,1-1.31,1.41,35.56,35.56,0,0,1-5.66,4.63,53,53,0,0,1-12,5.78,92.17,92.17,0,0,1-12,3.24,139.91,139.91,0,0,1-23.94,2.48c-2,0-4,0-6.13-.06l-1.67-.09c-.46,0-.11,0-.08,0a.48.48,0,0,1,.15,0c.07,0-.26,0-.72.21a21.16,21.16,0,0,0-3.51,1.64c-1.31.73-2.68,1.61-4.05,2.53a96.27,96.27,0,0,0-15.48,13.15l-.76.84-1,1.15a22.11,22.11,0,0,1-1.7,1.74l-.28.25-.38.31c-.27.22-.47.38-.82.63s-.89.56-1.34.81l-.55.26-.66.26a11.31,11.31,0,0,1-1.37.41,10.28,10.28,0,0,1-2.61.19,9.38,9.38,0,0,1-1.34-.16,10.64,10.64,0,0,1-1.67-.51,9.8,9.8,0,0,1-1.58-.81,7.24,7.24,0,0,1-1.2-.91,10.06,10.06,0,0,1-1.73-2c-.29-.44-.32-.55-.46-.79s-.21-.44-.31-.67-.18-.45-.26-.68-.18-.53-.21-.64c-.13-.53-.24-1.07-.32-1.61a14.1,14.1,0,0,1-.09-1.92l0-.75,0-.6a34.39,34.39,0,0,1,.58-3.8c.46-2.17,1-4.12,1.5-6s1.11-3.77,1.68-5.62l1.76-5.47,1.74-5.3c1.07-3.37,2.08-6.77,3-10.3l2.69-10.9c.95-3.71,2-7.47,3.1-11.19s2.38-7.4,3.73-11,2.74-7.21,4.25-10.74l.56-1.33.44-1.11.45-1.11.35-1.14.37-1.15.28-1.18.29-1.19.21-1.21a42,42,0,0,0,.45-10.07,70.58,70.58,0,0,0-5.05-20.79c-1.35-3.42-2.86-6.81-4.57-10.13A111.28,111.28,0,0,0,2701.38,2150.39Z" transform="translate(-1077.48 -599.64)"/><path class="cls-6" d="M2755.26,2061.39c.9.77,1.64,1.46,2.43,2.2l2.29,2.17c1.51,1.46,3,2.94,4.46,4.42,2.92,3,5.75,6,8.48,9.15s5.36,6.33,7.87,9.59,4.84,6.66,7,10.08c-3.18-2.55-6.4-5-9.75-7.2s-6.73-4.36-10.2-6.34-7-3.9-10.5-5.69q-2.66-1.33-5.33-2.6l-2.67-1.23c-.88-.39-1.81-.81-2.6-1.12Z" transform="translate(-1077.48 -599.64)"/><path class="cls-6" d="M1225.83,2089.09c-.61.21-1.49.61-2.26,1s-1.59.75-2.39,1.15c-1.59.8-3.18,1.66-4.74,2.55a95.62,95.62,0,0,0-9.12,5.95,74.4,74.4,0,0,0-8.33,7.19,53.53,53.53,0,0,0-7,8.81,55.91,55.91,0,0,1,3.68-11,81.4,81.4,0,0,1,5.8-10.38,105.71,105.71,0,0,1,7.22-9.61c1.3-1.54,2.64-3.05,4-4.53.69-.74,1.41-1.48,2.14-2.21s1.43-1.41,2.38-2.24Z" transform="translate(-1077.48 -599.64)"/><path class="cls-8" d="M2312,1941.18s-4.55,24.07-31,22.45-27.71-32.77-27.71-32.77L2240,1945.12l.3-12.91-10.55,12s5.17,33.57,36.72,43.92,53.57-10.66,61.52-24.71.34-14.57.34-14.57-11.82,14.52-20.54,19.39,10-11.47,8.32-25.41S2313.64,1936.11,2312,1941.18Z" transform="translate(-1077.48 -599.64)"/><path class="cls-8" d="M1665.78,1956.12s1.84,25.75-25.61,31.23-37.11-25.93-37.11-25.93l-9.7,18.1-3.16-13.23-7.54,15.07s14.3,32.81,49.3,34.85,51.84-25.29,56.18-41.75-3.57-14.93-3.57-14.93-8.17,18-15.77,25.28,7.11-14.37,1.67-28.13S1666.11,1950.51,1665.78,1956.12Z" transform="translate(-1077.48 -599.64)"/><path class="cls-9" d="M2250.71,1920.36c0,.5-8.88,32.75-7.89,32.6s21.31-11.91,22.4-15.86,2.19-8.73,3.21-2.58,3.11,15.64,3.11,15.64a19.12,19.12,0,0,1,9.34-8.39c6.82-3,21.4-3.14,14.55-7.93s-26-13.2-27.51-13.07-2.1-1.87-1.49.13a20.31,20.31,0,0,0,2.22,4.36Z" transform="translate(-1077.48 -599.64)"/><path class="cls-9" d="M1603.67,1945.94c0,.5-8.88,32.75-7.89,32.6s21.31-11.91,22.4-15.86,2.19-8.73,3.21-2.58,3.11,15.64,3.11,15.64a19.12,19.12,0,0,1,9.34-8.39c6.82-3,21.4-3.14,14.56-7.93s-26-13.2-27.52-13.07-2.1-1.87-1.49.13a20.31,20.31,0,0,0,2.22,4.36Z" transform="translate(-1077.48 -599.64)"/><path class="cls-7" d="M1678.08,2637.08s19.86-5.84,49.39-22.15,72.85-38.82,82.5-43.76c40.23-20.57,50.3-26.3,80.59-19s38,13.59,61.47,5.42c26.67-9.27,37.27-12,55.67-5.64s81,37.94,95.42,44.86c19,9.13,54.38,34.75,75.92,38.79s-45.88,1.76-60-1.42-83.9-24.39-121.09-17.55-88.4-1.11-118.25-4.84-66,.69-102.46,9.56S1696.56,2646.75,1678.08,2637.08Z" transform="translate(-1077.48 -599.64)"/><path class="cls-6" d="M2034.6,1907.27q-2.41,5.16-4.55,10.43c-1.43,3.51-2.81,7-4.08,10.58a224.11,224.11,0,0,0-6.66,21.55,158.11,158.11,0,0,0-4,21.92l-.48,5.5-.16,5.48,0,1.37,0,1.4.05,2.81c0,1.87.07,3.74.15,5.62.55,15,1.66,30.09,2.8,45.18l1.73,22.66,1.67,22.7c.51,7.58,1,15.16,1.42,22.77s.72,15.23.89,22.88c.3,14.49,3.39,29.26,6.33,44.08s6.08,29.88,7.43,45.22a136.71,136.71,0,0,1,.11,23.07c-.13,1.92-.42,3.83-.65,5.73-.14,1-.32,1.9-.48,2.84s-.31,1.89-.54,2.83l-.64,2.8-.76,2.76c-.46,1.85-1.18,3.64-1.77,5.44,3.05-14.95,2.19-30.09-.43-44.82s-6.62-29.28-10.39-44c-1.88-7.37-3.74-14.79-5.23-22.37a156,156,0,0,1-3-23.26c-.36-7.51-.75-15-1.28-22.58s-1-15.09-1.54-22.65l-1.53-22.7c-.46-7.58-1-15.16-1.32-22.76-.76-15.19-1.34-30.42-1.09-45.75,0-1.91.07-3.83.15-5.76l.12-2.88.06-1.44.13-1.47.53-5.88.92-5.79a157.59,157.59,0,0,1,5.94-22.44l2-5.41,2.16-5.33c1.51-3.53,3-7,4.77-10.45s3.47-6.8,5.33-10.14S2032.46,1910.41,2034.6,1907.27Z" transform="translate(-1077.48 -599.64)"/><path class="cls-7" d="M1762.83,2360.8s23.33,17.07,41.05,14.39-6.74-23,.66-28,37.08-13.12,59-.42,45.17,29.7,55.5,31.54,20.83,2.66,38.62-8.52,45.46-36.69,68.45-28.64,34.26,8.1,32.58,13.58-7.46,7.55-1.81,11.43,18.49,11.48,26.22,11.66,20,.29,20,.29-21.42,15.21-44.4,15.84-29.07-3.26-41.84-9.3-22-15.31-35.91-7.91-32.55,22.63-61.52,15.11-35.94-20.5-51-10.7-22.52,21.32-51.87,15.83S1772.9,2364.56,1762.83,2360.8Z" transform="translate(-1077.48 -599.64)"/><path class="cls-5" d="M2692.16,2110.43s.88-149.67-36.53-248.58-72.49-240.16-71.06-301.06,10.61-113-15-150-34.89-65.07-35.65-61.11,7.84,32.64,4,27.25-24.9-39.67-24.9-39.67,2.58,31.19,3.91,59-8.82-19.41-32.17-40.5-32.49-26.59-42.69-43.39-20-52.14-13.42-20.85,9.72,37.32,6.55,31.28-36-44.42-36-44.42,13.53,43.89,11.95,82.93,1.56,17.93-26.23-11.21-36.34-59.81-29.69-33.16,32,49.77,6.66,26.65-51.06-25.71-73.56-54.72-84.09-85.44-99.45-79.84-44.54-21.58-53.47-7.88,2,28.53-18.3,17.45l-20.27-11.08s-24.57,2.74-36.77,14.37-14.5,18.21-36.28,18.35-33.27-18-37.11,4.43,12.79,47.33-5.37,31-6.45-35.25-25.24-25.1-22.34,20.67-39.28,8.35-2.9-17.29-39.4-14.18-87.2-10-99.57-18.9-15.64-11-15.64-11-85.53-24.54-128.37-5.68-126.43,62.16-165,89.51-100.54,69.16-100.54,69.16l5-24.61s-69.53,64.6-58.66,165.53c0,0-7.71-9.89-17.68-36.62L1285.2,1441s.86,76,16.21,136.39S1323,1690,1310,1736.08s-32.47,141-37.12,225.65-1.36,170.19-1.43,201.32,5.79,35.24-9.83,23.61-8.2-17.41-19.51-43.51-7.35-25.34-17.43-47.44-17.31-24.25-21.6-38.92-3.7-39.83-7.38-24,1.14,35.79-3.68,15.81-.74-25.19-12.75-49.32-30.23-38.46-36.68-73.72-22.68-49.55-21.52-70.72,2.91-39-2-55-6.22-17.37-8.29-41.93-5.13-63-9.82-89-25.86-54.93-18.25-125,17.6-100.26,7.91-82.61-16.09,36.06-11.82,23.57-1.18-62.29,11.52-95.11-6.91-100.18,19.55-155.19,29.68-78.78,39.45-99.75,5.67-15.76,22.3-47.16,31.86-58.86,61.55-82,65-58.08,125.94-116.26l61-58.17L1357.5,874.8s50.61-67.69,119.59-99.84,143.36-68.82,184.36-84.63,46.34-17.46,41-15.82-78.11,16.71-115.62,34.37,5-24.61,111.58-50.36,89.85-27.91,157.82-26.31,96.31-2.14,126.45-6.73,106.48-21.33,191-11.39,96,12.86,92.49,10.13L2235,599.64s56.92,20.77,111.37,33.53,163.2,45.36,216.12,85.46,69.5,86.42,79.22,123.74,4.53,32.79,27.16,46.57,63.26,32.54,80.7,79.47,26.71,47.14,48.35,84.74,55.8,86.54,76.52,181.53,7.23,180.33,9.62,229,3,58.36,2.73,71.6-4.58,44.49-9.95,75.49-10.06,33.55-13.35,60.62-4.23,39-8.41,47.5-4.51-5.41-12.44,22.22,5.05,122.66-6,140.28-17.51,12.17-22.56,29.94,1.34-.63-12.47,22.89-26.87,15.92-31.15,29.07-22.74,65.7-36.09,97.84S2718.06,2107.73,2692.16,2110.43Z" transform="translate(-1077.48 -599.64)"/><path class="cls-10" d="M2874.42,1234.68c-20.72-95-54.89-143.93-76.52-181.53s-30.91-37.82-48.35-84.74-58.06-65.69-80.7-79.47-17.44-9.25-27.16-46.57-26.29-83.63-79.22-123.74-161.66-72.69-216.12-85.46S2235,599.64,2235,599.64l31.22,24.58c3.47,2.73-7.95-.19-92.49-10.13s-160.9,6.8-191,11.39-58.49,8.34-126.45,6.73-51.24.56-157.82,26.31-149.09,68-111.58,50.36,110.28-32.73,115.62-34.37,0,0-41,15.82S1546.07,742.8,1477.09,775,1357.5,874.8,1357.5,874.8l62.62-43.56-61,58.17c-61,58.18-96.25,93.12-125.94,116.26s-44.91,50.61-61.55,82-12.54,26.2-22.3,47.16-13,44.74-39.45,99.75S1103,1357,1090.35,1389.78s-7.25,82.63-11.52,95.11,2.13-5.91,11.82-23.57-.3,12.58-7.91,82.61,13.56,99,18.25,125,7.75,64.43,9.82,89,3.37,25.92,8.29,41.93,3.18,33.85,2,55,15.06,35.46,21.52,70.72,24.66,49.6,36.68,73.72,7.92,29.33,12.75,49.32,0,0,3.68-15.81,3.09,9.34,7.38,24,11.53,16.83,21.6,38.92a147,147,0,0,1,6.21,15.47,74.16,74.16,0,0,0,0-17.09c-2.58-25.73-1.83-34.48-.2-66.24s13.43-82.7,13.43-82.7-16.32,18.17-30,35.51-6.2.73,15.22-46.45,17.33-135.6,33.56-187.32,6.74-23.69-7.9-2-37.49,91.84-37.49,91.84l2.89-47.62c2.89-47.62,27.18-141.54,27.43-152.14s-14.7,24.39-14.7,24.39.39-16.77,9.27-56.31-4.66,10.49-24,44.48-9.87,6.83.92-38.84,19-169.12,20.07-177.3,5.74,18.94,14.91,42.12,0,0,2.75-41.7,46.91-117,46.91-117l-4.53,42.29,50.93-62.39c50.92-62.39,216.21-133.56,216.21-133.56-63.56-1.49-109.37,31.21-103.18,21.42s44.54-34.72,44.54-34.72c-80.81.08-126.87,71.19-83.85,16.57s183.72-38.72,156.19-50.63-94.89-20.79-94.89-20.79l21.31-4.79c21.3-4.8,39.78-1.71,77.51-.82s71,21.54,81,21.77-9.15-5.51-37.6-34.66-49.24-46.87-52.45-50.92,9.83,4.21,37.37,16.12,65.17,45.25,67.17,44.64-10.67-24.76-15.07-34.8,13,10.9,42.92,33.47,52.92,31.05,52.92,31.05l-14.8-18.23c-14.81-18.24-19.15-58.74-22.31-93.26s-38.18-94.29-38.18-94.29,20.24,12.4,55.8,49,34.54,52.48,45.38,70,28.84,41.08,32.81,41.18,0,0-8.72-23.39-17.55-42.15-21.19-84.62-29.49-69.58-5.4-51.79,28.49,27.83,65.42,91,77.73,111.78,87.4,113.78,0,0-24.42-50.92-14.73-86.89-14.73-86.89,42.7,61.94,49.6,69.17-8.36-57.6-11.29-83.29,15.45,18.92,46.12,66.44,23.3,23.52,58.63,60.56,33.79,65.26,34.52,34.37-5-86.67-5-86.67,22.37,25.26,27.67,25.38-2.51-6.24-32.53-81.13-146-137.68-68.1-106.7,108.15,93.52,147.14,125.34,69.55,46.68,80,54,0,0-29-43.08-54.82-109.92-54.82-109.92,44,43.43,46,48.78,2.56-11.42,1.35-35.3,0,0,20.71,20.8,51,47.13,58.85,50.85,0,0-12-51.51-25.92-61.55-.68-45.94,32.6,50,65.38,92.51-4.47-35.21-6.19-46.52,37.44,41.29,51.13,50.89-22.56-54.85-36.86-94.26,0,0,32.51,25.93,61.77,20.67,83.95,35.1-1.88-4.68-20.4-33.6,3.31.08,29.54,11.29,83.65,19.86,96.1,25.45,0,0-22,4.78,0,0,40,16.84,45.63,30.88,69.41,61.91,2.55,4-13.73-7.61-92.13-25.35-95.43-26.09,19.9,27,27,36.4-21-9.1-48.48-22.34,9.7,38,9.7,38L2492.81,1042c-23.46-16.45-43.68-29.51-56.67-40.42s3.14,7.36,9.16,32.67,22.85,42.27,22.85,42.27-27-8.58-29-8,13.48,18.2,19.29,24.3,0,0-28.29-7.95-93.34-2.2-93.34-2.2,11.71,8.89,20.87,13.74,0,0-28.39-4-91.11,15.73-91.11,15.73,3.28,1.4,37.79,26.73,77.45,85.94,77.45,85.94-20.83-43.54-21.4-47.53,0,0,24,22.42,39.8,53.93,39.8,53.93c-5.33-55.1-67.49-115.52-38.14-96.28s96.77,100.53,96.77,100.53-12-35.17-19.27-63.16,15.21,10.52,31.12,28.56,16.82,17.17,48.75,48.84,38.26,44.17,38.26,44.17-1.24-3.56-9.12-25.38-22.2-50.87-22.2-50.87l29.38,27.19s-8.47-15.21-17.87-28.68,0,0,64,58.91,90.37,137.25,108.45,157.11-23.52-13.8-60.15-33.43-5.34,1.86,39.94,66.51,66.66,131.4,66.66,131.4-38.81-38.9-67.65-51.94,0,0,16.5,30.42,34.7,83,42.11,106.08,0,0-22.9-40.28-70.61-76.73-70.61-76.73,1.64,5.34,30.28,64.3,4.33,115.8,25.91,174.59,8.15,141.5,17.19,94.9-6.88-120.27,11.66-44.76,3.18,180.37,3.18,180.37h0c12.85-32.15,28.51-76.82,32.41-88.79,4.28-13.15,17.35-5.55,31.15-29.07s7.41-5.13,12.47-22.89,11.55-12.31,22.56-29.94-2-112.65,6-140.28,8.27-13.71,12.44-22.22,5.12-20.42,8.41-47.5,8-29.61,13.35-60.62,9.64-62.25,9.95-75.49-.34-23-2.73-71.6S2895.15,1329.66,2874.42,1234.68Z" transform="translate(-1077.48 -599.64)"/><path class="cls-11" d="M2814.1,1911.29c5.05-17.77,11.55-12.31,22.56-29.94s-2-112.65,6-140.28,8.27-13.71,12.44-22.22,5.12-20.42,8.41-47.5,8-29.61,13.35-60.62,9.64-62.25,9.95-75.49-.34-23-2.73-71.6,11.11-134-9.62-229-54.89-143.93-76.52-181.53-30.91-37.82-48.35-84.74-58.06-65.69-80.7-79.47-17.44-9.25-27.16-46.57-26.29-83.63-79.22-123.74-161.66-72.69-216.12-85.46S2235,599.64,2235,599.64l31.22,24.58c3.47,2.73-7.95-.19-92.49-10.13s-160.9,6.8-191,11.39-58.49,8.34-126.45,6.73-51.24.56-157.82,26.31-149.09,68-111.58,50.36,110.28-32.73,115.62-34.37,0,0-41,15.82S1546.07,742.8,1477.09,775,1357.5,874.8,1357.5,874.8l62.62-43.56-61,58.17c-61,58.18-96.25,93.12-125.94,116.26s-44.91,50.61-61.55,82-12.54,26.2-22.3,47.16-13,44.74-39.45,99.75S1103,1357,1090.35,1389.78s-7.25,82.63-11.52,95.11,2.13-5.91,11.82-23.57-.3,12.58-7.91,82.61,13.56,99,18.25,125,7.75,64.43,9.82,89,3.37,25.92,8.29,41.93,3.18,33.85,2,55,15.06,35.46,21.52,70.72,24.66,49.6,36.68,73.72c.38.78.71,1.48,1.06,2.22,9.57-1.52-10.5-28.78-16.42-62.63-8.43-48.27,22.2-154.91,22.2-154.91s-27.14,64.71-37.66,98.9,0,0,5.29-37-7.07-112.33,4-207.45,72.41-224.38,48.92-202-54.7,110-54.7,110l16-77.34-28.65,54.08,16.33-56.14c16.34-56.13,64.88-148.38,112.83-215.42s158.73-130.77,115.27-113.25-126.49,83.12-126.49,83.12,10.65-30.21,21-47.85-6.74,5.14-50.71,43.84-8.67,2.45,8.63-28.94,33.88-60.14,110.12-119.28,147.12-59.45,99.45-60.58-122.68,34.2-127.31,34.09,21-18,69.39-49.36S1643,929.22,1643,929.22c-66.88-30.4-207,15.66-188.8,1.51s93.09-43.5,93.09-43.5c-82.18,2-215.56,124.74-101.78,18.79s333.4-66.32,333.4-66.32l-84.81-55L1764,798.28c69.89,13.57,86,6,139,2s139.23,22.49,139.23,22.49c-57.86-46.4-208.42-65.85-208.42-65.85s17.26-1.58,89.55.13,165.57,51.59,215.67,61.38,91.56,49.85,65.88,15.46-170.52-100.06-177-106.17,14.5,3,46,13,29.08,6,74.68,10.38,95.47,24.1,95.47,24.1c-50.52-48.21-172.26-82.21-172.26-82.21s37.86-4.41,146.21,35.24,177.74,102.88,193.11,125.27,61.44,44.11,61.44,44.11-18.65-33.12-22-42S2501,892,2559.52,918.74s73.12,45.29,75.69,48.89-4.09-14.23-14.27-38.31,8,2.83,46,39.06,16.09,66.61,48.49,115.95,15.51,16.26-11.56,3.26-22.72-10.25-50.1-10,0,0,46.05,32,97.25,145.36,97.25,145.36l-31.66-43.13c-31.66-43.14-138.65-74.81-138.65-74.81s29.24,33.37,36,45.89-5.24-2.77-36-9.68,0,0,88.11,83.33,83.87,151.23,91.27,174.36-10.3-12.6-41.12-54,3.28,10.67,15.32,56.88,19.6,72.88,23,118-1.84,40.58-1.84,40.58l-24-36.78c-24-36.77,3.46,8,11.27,51.49s7.28,103.5,6.21,111.42,0,0-6.65-17.81-29.71-51-29.71-51l9.68,39.08c9.68,39.09,24.43,125.1,24.43,125.1l-3.41-5.38c-3.4-5.38-50.13-46.22-50.13-46.22s6.83,9.88,38.14,68,24.26,103.9,24.26,103.9C2815.44,1910.66,2809,1929.05,2814.1,1911.29Z" transform="translate(-1077.48 -599.64)"/></g></svg>