<svg xmlns="http://www.w3.org/2000/svg" width="405.384" height="93.554" viewBox="0 0 405.384 93.554"><g transform="translate(-196.616 -354.923)"><rect width="405.384" height="93.554" rx="15" transform="translate(196.616 354.923)" fill="#272c3a"/><rect width="70.804" height="7.966" rx="3.983" transform="translate(209.489 378.983)" fill="#f5d027"/><rect width="119.08" height="4.779" rx="2.39" transform="translate(209.489 394.215)" fill="#f2f2f2"/><rect width="112.643" height="4.779" rx="2.39" transform="translate(209.489 406.12)" fill="#f2f2f2"/><rect width="82.068" height="4.779" rx="2.39" transform="translate(209.489 418.024)" fill="#f2f2f2"/><path d="M717.808,269.219l-12.884,6.037,11.4-8.441A63.769,63.769,0,0,0,710.1,258.7l-55.876,13.749L704.7,253.392a64.275,64.275,0,0,0-7.329-5.531l-85.141,13.577a62.776,62.776,0,0,0-13.975,39.423h128.16a62.654,62.654,0,0,0-8.6-31.642Z" transform="translate(-148.412 128.485)" fill="#f2f2f2" opacity="0.4"/><path d="M667.875,297.072l-43.623-64.15s66.064,22.833,58.566,64.149Z" transform="translate(-167.094 132.275)" fill="#383f54"/><path d="M679.316,297.072l43.623-64.149s-66.064,22.833-58.566,64.149Z" transform="translate(-163.529 132.275)" fill="#f5d027"/></g></svg>