<svg xmlns="http://www.w3.org/2000/svg" width="595.451" height="419.628" viewBox="0 0 595.451 419.628"><defs><style>.a{fill:#f5d027;}.b{fill:#f2f2f2;}.c{fill:#3f3d56;}.d{fill:#272c3a;}.e{fill:#a0616a;}.f{fill:#e6e6e6;}.g{fill:#ffb8b8;}.h{fill:#5f6576;}</style></defs><circle class="a" cx="32.428" cy="32.428" r="32.428" transform="translate(271.681 353.883)"/><path class="b" d="M711.98,583.122c18.141-5.448,37.428-11.13,51.816-24.082,12.857-11.574,21.536-29.248,16.21-46.605-5.315-17.322-21.236-28.872-37.673-34.617-9.323-3.258-19.077-5.066-28.826-6.486-10.6-1.544-21.244-2.808-31.885-4.025q-64.628-7.392-129.741-9.031c-21.42-.539-42.835-.526-64.258-.216-19.132.278-39.281.271-57.029-7.861-13.8-6.323-26.328-17.827-30.174-32.945-4.439-17.451,3.749-35.222,15.495-47.86a125.455,125.455,0,0,1,20.892-17.424c8.1-5.593,16.478-10.79,25.04-15.641a348.7,348.7,0,0,1,52.706-24.3c8.985-3.267,18.1-6.086,27.3-8.686a233.588,233.588,0,0,0,23.063-7.386c14.51-5.783,28.311-15.579,32-31.639,3.5-15.221-2.4-31.744-12.735-43.052-11.958-13.082-29.988-18.816-47.274-19.744-19.406-1.042-38.365,3.815-56.6,9.979-19.454,6.574-38.489,14.134-58.354,19.459a392.616,392.616,0,0,1-60.058,11.164c-9.927,1.057-20.155,2.251-30.141,1.441-8.37-.678-16.7-3.14-22.864-9.079-5.289-5.093-8.439-12.093-7.356-19.479.2-1.342,2.235-.771,2.039.562-1.319,8.992,4.794,17.277,12.325,21.522,8.7,4.905,19.3,4.912,28.989,4.351a379.14,379.14,0,0,0,62.4-9.02c20.156-4.6,39.592-11.185,59.007-18.215,18.438-6.677,37.289-13.194,56.988-14.64,17.092-1.255,35.072,1.235,49.963,10.167A55.272,55.272,0,0,1,599.013,245.7c3,14.68-1.154,29.456-12.266,39.7-11.506,10.607-27.282,15.142-41.984,19.318a384.644,384.644,0,0,0-54.558,19.529,342.483,342.483,0,0,0-51.32,28.852c-15.682,10.717-31.159,24.2-36.119,43.32a39.908,39.908,0,0,0,1.982,26.763,48.908,48.908,0,0,0,15.693,18.624c15.735,11.578,35.566,13.955,54.573,14.192,21.347.266,42.694-.455,64.048-.1q65.277,1.071,130.288,7.947,16.29,1.724,32.539,3.812a294.207,294.207,0,0,1,29.1,4.719c17.033,3.953,33.608,11.555,44.194,26a41.11,41.11,0,0,1,3.5,44.952c-8.13,16-23.357,26.17-39.529,32.854a280.465,280.465,0,0,1-26.613,8.985,1.058,1.058,0,0,1-.562-2.039Z" transform="translate(-214.147 -166.206)"/><circle class="b" cx="16.919" cy="16.919" r="16.919" transform="translate(71.829 32.075)"/><circle class="b" cx="16.919" cy="16.919" r="16.919" transform="translate(189.203 64.15)"/><circle class="b" cx="16.919" cy="16.919" r="16.919" transform="translate(288.6)"/><circle class="b" cx="16.919" cy="16.919" r="16.919" transform="translate(350.635 71.905)"/><circle class="b" cx="16.919" cy="16.919" r="16.919" transform="translate(266.747 155.088)"/><circle class="b" cx="16.919" cy="16.919" r="16.919" transform="translate(160.3 195.27)"/><circle class="b" cx="16.919" cy="16.919" r="16.919" transform="translate(273.091 258.01)"/><circle class="b" cx="16.919" cy="16.919" r="16.919" transform="translate(394.342 293.258)"/><circle class="b" cx="16.919" cy="16.919" r="16.919" transform="translate(536.036 285.503)"/><path class="a" d="M565.243,220.372c-50.68.358-92.176,41.542-92.9,92.218-.007.468-.01,3.758-.009,8.061a23.79,23.79,0,0,0,23.786,23.789h0a23.8,23.8,0,0,0,23.8-23.82c0-2.932,0-4.958,0-5.082a45.117,45.117,0,1,1,69.452,37.982l.008.01s-33.857,21.8-44.18,51.7l.009,0a66.27,66.27,0,0,0-2.731,18.87c0,2.626.155,25.6.453,44.255a24.523,24.523,0,0,0,24.525,24.125h0A24.529,24.529,0,0,0,591.986,467.8c-.1-17.08-.16-36.969-.16-38.412,0-18.36,17.712-36.654,32.261-48.583a97.85,97.85,0,0,0,33.652-53.575,61.163,61.163,0,0,0,1.762-13.277,93.582,93.582,0,0,0-94.258-93.579Z" transform="translate(-264.607 -172.433)"/><path class="c" d="M772.276,746.928H178.5a.839.839,0,0,1,0-1.679H772.274a.839.839,0,1,1,0,1.679Z" transform="translate(-177.662 -327.301)"/><circle class="d" cx="21.148" cy="21.148" r="21.148" transform="translate(421.874 150.151)"/><path class="e" d="M567.674,568.177h-8.642l-4.112-33.336h12.756Z" transform="translate(-163.731 -157.807)"/><path class="d" d="M547.6,578.626h16.668V589.12H537.109A10.494,10.494,0,0,1,547.6,578.626Z" transform="translate(-158.476 -170.726)"/><path class="e" d="M662.674,568.177h-8.642l-4.112-33.336h12.756Z" transform="translate(-191.761 -157.807)"/><path class="d" d="M642.6,578.626h16.668V589.12H632.109A10.494,10.494,0,0,1,642.6,578.626Z" transform="translate(-186.506 -170.726)"/><circle class="e" cx="17.314" cy="17.314" r="17.314" transform="translate(422.495 157.943)"/><path class="d" d="M790.281,484.095l7.747-17.8a22.123,22.123,0,0,0-4.9-25.1,22.469,22.469,0,0,0-2.164-1.882,21.808,21.808,0,0,0-13.387-4.632,22.686,22.686,0,0,0-9.446,2.1c-.254.113-.5.233-.755.352-.486.233-.965.486-1.431.747a22.331,22.331,0,0,0-11.068,16.834l-3.419,28.649c-.86,2.249-31.539,83.459-20.81,145.459a3.149,3.149,0,0,0,2.693,2.587l10.878,1.48a3.17,3.17,0,0,0,3.532-2.489l18.251-87a2.47,2.47,0,0,1,4.793-.162l25.787,91.488a3.152,3.152,0,0,0,3.038,2.312,3.614,3.614,0,0,0,.613-.057l13.288-2.559a3.152,3.152,0,0,0,2.559-3.391C814.129,609.265,803.752,500.189,790.281,484.095Z" transform="translate(-340.152 -235.667)"/><path class="e" d="M706.082,418.762a7.089,7.089,0,0,0,7.468,7.9l9.678,23.258,7.321-10.852-10.313-20.422a7.127,7.127,0,0,0-14.155.119Z" transform="translate(-333.56 -229.097)"/><path class="e" d="M796.833,526.057a7.089,7.089,0,0,0,5.94-9.1l20.363-14.831-12.259-4.591L793.42,512.32a7.127,7.127,0,0,0,3.414,13.737Z" transform="translate(-357.985 -254.211)"/><path class="d" d="M742.627,473.087a12.029,12.029,0,0,1-2.325-.229,11.494,11.494,0,0,1-8.422-6.779l-13.559-16.533a3.173,3.173,0,0,1,.783-4.71l9.647-5.971a3.172,3.172,0,0,1,4.381,1.051l9.557,15.744,18.3-13.525a6.853,6.853,0,0,1,7.973,10.97L750.7,469.768a11.457,11.457,0,0,1-8.069,3.32Z" transform="translate(-336.973 -236.761)"/><path class="d" d="M818.334,500.117h-.075a3.178,3.178,0,0,1-2.334-1.107L807.349,489a3.172,3.172,0,0,1,.649-4.7l16.06-10.706L809.509,456.1A6.853,6.853,0,0,1,820,447.514l17.683,17.28a11.649,11.649,0,0,1-2.591,18.992l-14.452,15.335A3.178,3.178,0,0,1,818.334,500.117Z" transform="translate(-363.228 -238.925)"/><path class="f" d="M791.3,459.254a3.265,3.265,0,0,1-.411-.026,3.145,3.145,0,0,1-2.616-2.164l-6.445-19.759a2.173,2.173,0,0,1,1.124-2.626l.209-.1c.19-.09.377-.179.569-.265a22.963,22.963,0,0,1,9.589-2.131,22.084,22.084,0,0,1,12.1,3.635,2.206,2.206,0,0,1,.635,3.027l-12.09,18.94A3.141,3.141,0,0,1,791.3,459.254Z" transform="translate(-355.892 -234.93)"/><circle class="d" cx="6.92" cy="6.92" r="6.92" transform="translate(452.776 148.017)"/><path class="d" d="M788.44,361.365h0a18.329,18.329,0,0,0-18.329,18.329v7.754h9.537l4.562-7.754,1.369,7.754h28.944l-7.754-7.754a18.329,18.329,0,0,0-18.329-18.329Z" transform="translate(-352.466 -214.034)"/><path class="d" d="M834.809,362.322a10.68,10.68,0,0,1,11.618-7.328c4.41.737,7.9,4.282,9.975,8.242s3.037,8.391,4.434,12.638,3.378,8.518,6.9,11.268,8.937,3.5,12.4.667a14.182,14.182,0,0,1-26.419,5.062c-1.827-3.251-2.3-7.061-2.841-10.751s-1.246-7.508-3.427-10.532-6.265-5-9.731-3.622Z" transform="translate(-371.556 -212.125)"/><path class="c" d="M502.7,349.4h0a23.79,23.79,0,0,1-23.788-23.786c0-4.306,0-7.6.009-8.063a92.7,92.7,0,0,1,10.827-42.232,92.914,92.914,0,0,0-17.877,53.512c-.007.468-.01,3.758-.009,8.06a23.79,23.79,0,0,0,23.786,23.789h0a23.808,23.808,0,0,0,22.9-17.335A23.7,23.7,0,0,1,502.7,349.4Z" transform="translate(-264.468 -188.646)"/><path class="c" d="M591.141,286.736a45.119,45.119,0,0,1,39.237,63.031,45.115,45.115,0,1,0-75.73-47.221,45.026,45.026,0,0,1,36.493-15.81Z" transform="translate(-288.893 -188.671)"/><path class="c" d="M603.392,550.142h0a24.524,24.524,0,0,1-24.525-24.13c-.3-18.645-.453-41.623-.453-44.249a66.268,66.268,0,0,1,2.731-18.87l-.009,0a66.991,66.991,0,0,1,3.873-8.953,77.571,77.571,0,0,0-10.922,20.233l.008,0a66.273,66.273,0,0,0-2.731,18.87c0,2.626.155,25.6.453,44.255a24.523,24.523,0,0,0,24.525,24.125h0a24.533,24.533,0,0,0,23.545-17.654A24.433,24.433,0,0,1,603.392,550.142Z" transform="translate(-293.826 -241.348)"/><path class="g" d="M126.54,568.632h8.642l4.112-33.335H126.538Z" transform="translate(-37.335 -157.941)"/><path class="d" d="M0,0H27.162V10.495H10.495A10.494,10.494,0,0,1,0,0Z" transform="translate(114.513 418.716) rotate(179.997)"/><path class="g" d="M82.54,568.632h8.642L95.294,535.3H82.538Z" transform="translate(-24.353 -157.941)"/><path class="d" d="M0,0H27.162V10.495H10.495A10.494,10.494,0,0,1,0,0Z" transform="translate(83.495 418.716) rotate(179.997)"/><path class="d" d="M266.077,672l-8.442-.444a3.294,3.294,0,0,1-3.115-3.5l10.09-111.71,46.464,12.538,4.477-1.221-14,98.893a3.311,3.311,0,0,1-3.072,2.781l-9.1.424a3.3,3.3,0,0,1-3.476-3.381l1.649-59.354a1.1,1.1,0,0,0-2.173-.254l-15.9,62.608a3.275,3.275,0,0,1-3.221,2.626C266.2,672.009,266.137,672.007,266.077,672Z" transform="translate(-200.338 -271.565)"/><circle class="g" cx="17.314" cy="17.314" r="17.314" transform="translate(73.442 158.753)"/><path class="h" d="M265.5,462.806l1.9,41.075.688,14.944a3.273,3.273,0,0,0,2.167,2.943l44.649,16.174a3.151,3.151,0,0,0,1.128.2,3.273,3.273,0,0,0,3.288-3.375l-1.83-73.855a26.034,26.034,0,0,0-21.673-25.15c-.432-.066-.871-.132-1.311-.19a25.554,25.554,0,0,0-20.56,6.656,26.25,26.25,0,0,0-8.449,20.582Z" transform="translate(-203.57 -235.871)"/><path class="g" d="M357.934,555.987a7.094,7.094,0,0,1-3.785-10.734L339.008,525.12l13.066-.809,12.375,19.243a7.128,7.128,0,0,1-6.515,12.433Z" transform="translate(-225.268 -262.112)"/><path class="h" d="M340.168,520.258a3.274,3.274,0,0,1-1.791-1.775l-22.811-54.347a8.786,8.786,0,1,1,16.2-6.8l22.811,54.348A3.3,3.3,0,0,1,352.817,516l-10.127,4.25a3.272,3.272,0,0,1-2.522.012Z" transform="translate(-218.149 -240.761)"/><path class="a" d="M298.345,527.8l21.909-41.951a3.439,3.439,0,0,1,4.635-1.455L356.69,501a3.439,3.439,0,0,1,1.455,4.635L336.235,547.59a3.439,3.439,0,0,1-4.635,1.455l-31.8-16.608a3.439,3.439,0,0,1-1.454-4.635Z" transform="translate(-213.155 -250.22)"/><path class="g" d="M305.971,511.8a7.094,7.094,0,0,0-10.939-3.144l-20.992-13.926L274,507.819l19.939,11.217a7.128,7.128,0,0,0,12.027-7.238Z" transform="translate(-206.089 -253.384)"/><path class="h" d="M271.068,499.788,253.912,486.2a12.1,12.1,0,0,1-5.515-19.129l15.577-20.415a7.117,7.117,0,0,1,12.075,7.25l-12.325,20.161,18.113,8.591a3.295,3.295,0,0,1,1.373,4.737L275.9,498.965a3.3,3.3,0,0,1-2.232,1.488l-.054.009A3.31,3.31,0,0,1,271.068,499.788Z" transform="translate(-197.726 -238.429)"/><path class="d" d="M284.282,403.514a1.5,1.5,0,0,1,1.309-1.987,3.475,3.475,0,0,1,2.451,1.209,9.749,9.749,0,0,0,2.165,1.859,1.863,1.863,0,0,0,2.451-.443,3.409,3.409,0,0,0-.13-2.646,26.017,26.017,0,0,1-1.149-6.887,12.127,12.127,0,0,1,1.734-7.365c1.864-2.626,5.2-3.623,8.35-3.55s6.257,1.046,9.381,1.661c1.078.212,2.346.321,3.068-.515.767-.889.485-2.327.159-3.527-.847-3.114-1.745-6.334-3.712-8.849a13.323,13.323,0,0,0-8.5-4.787,20.4,20.4,0,0,0-9.49,1.077,25.447,25.447,0,0,0-12.465,8.684,20.61,20.61,0,0,0-3.932,15.227,18.8,18.8,0,0,0,6.969,11.882Z" transform="translate(-206.609 -215.854)"/><path class="c" d="M588.314,714.056a32.423,32.423,0,0,1-12.034-50.4,32.426,32.426,0,1,0,44.108,46.854A32.406,32.406,0,0,1,588.314,714.056Z" transform="translate(-291.35 -303.227)"/></svg>