<svg xmlns="http://www.w3.org/2000/svg" width="54.051" height="54.051" viewBox="0 0 54.051 54.051"><path d="M64,84.438l17.3,12.5a5.038,5.038,0,0,0,5.933,0l17.3-12.5V67.378A3.378,3.378,0,0,0,101.16,64H67.378A3.378,3.378,0,0,0,64,67.378Zm10.134-10.3a1.689,1.689,0,0,1,1.689-1.689H92.714A1.689,1.689,0,0,1,94.4,74.134v1.689a1.689,1.689,0,0,1-1.689,1.689H75.824a1.689,1.689,0,0,1-1.689-1.689Zm0,8.445a1.689,1.689,0,0,1,1.689-1.689H92.714A1.689,1.689,0,0,1,94.4,82.58v1.689a1.689,1.689,0,0,1-1.689,1.689H75.824a1.689,1.689,0,0,1-1.689-1.689Z" transform="translate(-57.244 -57.243)" fill="#fafafa"/><path d="M37.16,16.889A1.689,1.689,0,0,0,35.471,15.2H18.58a1.689,1.689,0,0,0-1.689,1.689v1.689a1.689,1.689,0,0,0,1.689,1.689H35.471a1.689,1.689,0,0,0,1.689-1.689Zm-1.689,6.756H18.58a1.689,1.689,0,0,0-1.689,1.689v1.689a1.689,1.689,0,0,0,1.689,1.689H35.471a1.689,1.689,0,0,0,1.689-1.689V25.334A1.689,1.689,0,0,0,35.471,23.645Zm-.7-19.277C33,3.081,29.474-.034,27.025,0c-2.449-.032-5.975,3.083-7.749,4.37l-3.23,2.386H38ZM6.756,13.616c-2.523,1.869-4.508,3.336-4.814,3.589A5.067,5.067,0,0,0,0,21.185v1.13l6.756,4.877Zm45.352,3.589c-.306-.243-2.291-1.721-4.814-3.579V27.192l6.756-4.877v-1.13a5.067,5.067,0,0,0-1.942-3.98ZM27.025,44.03a8.444,8.444,0,0,1-4.95-1.6L0,26.485v22.5a5.067,5.067,0,0,0,5.067,5.067H48.983a5.067,5.067,0,0,0,5.067-5.067v-22.5L31.976,42.426a8.445,8.445,0,0,1-4.951,1.6Z" transform="translate(0 0.002)" fill="#272c3a"/></svg>